<svg xmlns="http://www.w3.org/2000/svg" xmlns:xlink="http://www.w3.org/1999/xlink" width="1920" height="1080">\n<path  d="M 0 0
L 1920 0
L 1920 1080
L 0 1080
L 0 0" style="stroke-width:0;stroke:rgba(255,255,255,1.0);fill:rgba(255,255,255,1.0)"/><path  d="M 38 15
L 1783 15
L 1783 998
L 38 998
L 38 15" style="stroke-width:0;stroke:rgba(255,255,255,1.0);fill:rgba(255,255,255,1.0)"/><path  d="M 38 998
L 1783 998" style="stroke-width:1;stroke:rgba(51,51,51,1.0);fill:none"/><path  d="M 38 998
L 38 1003" style="stroke-width:1;stroke:rgba(51,51,51,1.0);fill:none"/><text x="38" y="1018" style="stroke-width:0;stroke:none;fill:rgba(51,51,51,1.0);font-size:20.8px;font-family:'Roboto Medium',sans-serif" transform="rotate(45.00,38,1018)">920.438</text><path  d="M 164 998
L 164 1003" style="stroke-width:1;stroke:rgba(51,51,51,1.0);fill:none"/><text x="164" y="1018" style="stroke-width:0;stroke:none;fill:rgba(51,51,51,1.0);font-size:20.8px;font-family:'Roboto Medium',sans-serif" transform="rotate(45.00,164,1018)">920.6</text><path  d="M 318 998
L 318 1003" style="stroke-width:1;stroke:rgba(51,51,51,1.0);fill:none"/><text x="318" y="1018" style="stroke-width:0;stroke:none;fill:rgba(51,51,51,1.0);font-size:20.8px;font-family:'Roboto Medium',sans-serif" transform="rotate(45.00,318,1018)">920.8</text><path  d="M 395 998
L 395 1003" style="stroke-width:1;stroke:rgba(51,51,51,1.0);fill:none"/><text x="395" y="1018" style="stroke-width:0;stroke:none;fill:rgba(51,51,51,1.0);font-size:20.8px;font-family:'Roboto Medium',sans-serif" transform="rotate(45.00,395,1018)">920.9</text><path  d="M 472 998
L 472 1003" style="stroke-width:1;stroke:rgba(51,51,51,1.0);fill:none"/><text x="472" y="1018" style="stroke-width:0;stroke:none;fill:rgba(51,51,51,1.0);font-size:20.8px;font-family:'Roboto Medium',sans-serif" transform="rotate(45.00,472,1018)">921</text><path  d="M 627 998
L 627 1003" style="stroke-width:1;stroke:rgba(51,51,51,1.0);fill:none"/><text x="627" y="1018" style="stroke-width:0;stroke:none;fill:rgba(51,51,51,1.0);font-size:20.8px;font-family:'Roboto Medium',sans-serif" transform="rotate(45.00,627,1018)">921.2</text><path  d="M 656 998
L 656 1003" style="stroke-width:1;stroke:rgba(51,51,51,1.0);fill:none"/><text x="656" y="1018" style="stroke-width:0;stroke:none;fill:rgba(51,51,51,1.0);font-size:20.8px;font-family:'Roboto Medium',sans-serif" transform="rotate(45.00,656,1018)">921.237</text><path  d="M 752 998
L 752 1003" style="stroke-width:1;stroke:rgba(51,51,51,1.0);fill:none"/><text x="752" y="1018" style="stroke-width:0;stroke:none;fill:rgba(51,51,51,1.0);font-size:20.8px;font-family:'Roboto Medium',sans-serif" transform="rotate(45.00,752,1018)">921.362</text><path  d="M 781 998
L 781 1003" style="stroke-width:1;stroke:rgba(51,51,51,1.0);fill:none"/><text x="781" y="1018" style="stroke-width:0;stroke:none;fill:rgba(51,51,51,1.0);font-size:20.8px;font-family:'Roboto Medium',sans-serif" transform="rotate(45.00,781,1018)">921.4</text><path  d="M 935 998
L 935 1003" style="stroke-width:1;stroke:rgba(51,51,51,1.0);fill:none"/><text x="935" y="1018" style="stroke-width:0;stroke:none;fill:rgba(51,51,51,1.0);font-size:20.8px;font-family:'Roboto Medium',sans-serif" transform="rotate(45.00,935,1018)">921.6</text><path  d="M 1012 998
L 1012 1003" style="stroke-width:1;stroke:rgba(51,51,51,1.0);fill:none"/><text x="1012" y="1018" style="stroke-width:0;stroke:none;fill:rgba(51,51,51,1.0);font-size:20.8px;font-family:'Roboto Medium',sans-serif" transform="rotate(45.00,1012,1018)">921.7</text><path  d="M 1089 998
L 1089 1003" style="stroke-width:1;stroke:rgba(51,51,51,1.0);fill:none"/><text x="1089" y="1018" style="stroke-width:0;stroke:none;fill:rgba(51,51,51,1.0);font-size:20.8px;font-family:'Roboto Medium',sans-serif" transform="rotate(45.00,1089,1018)">921.8</text><path  d="M 1244 998
L 1244 1003" style="stroke-width:1;stroke:rgba(51,51,51,1.0);fill:none"/><text x="1244" y="1018" style="stroke-width:0;stroke:none;fill:rgba(51,51,51,1.0);font-size:20.8px;font-family:'Roboto Medium',sans-serif" transform="rotate(45.00,1244,1018)">922</text><path  d="M 1321 998
L 1321 1003" style="stroke-width:1;stroke:rgba(51,51,51,1.0);fill:none"/><text x="1321" y="1018" style="stroke-width:0;stroke:none;fill:rgba(51,51,51,1.0);font-size:20.8px;font-family:'Roboto Medium',sans-serif" transform="rotate(45.00,1321,1018)">922.1</text><path  d="M 1369 998
L 1369 1003" style="stroke-width:1;stroke:rgba(51,51,51,1.0);fill:none"/><text x="1369" y="1018" style="stroke-width:0;stroke:none;fill:rgba(51,51,51,1.0);font-size:20.8px;font-family:'Roboto Medium',sans-serif" transform="rotate(45.00,1369,1018)">922.163</text><path  d="M 1783 998
L 1783 1003" style="stroke-width:1;stroke:rgba(51,51,51,1.0);fill:none"/><text x="1783" y="1018" style="stroke-width:0;stroke:none;fill:rgba(51,51,51,1.0);font-size:20.8px;font-family:'Roboto Medium',sans-serif" transform="rotate(45.00,1783,1018)">922.7</text><path  d="M 164 998
L 164 15" style="stroke-width:0;stroke:none;fill:none"/><path  d="M 318 998
L 318 15" style="stroke-width:0;stroke:none;fill:none"/><path  d="M 395 998
L 395 15" style="stroke-width:0;stroke:none;fill:none"/><path  d="M 472 998
L 472 15" style="stroke-width:0;stroke:none;fill:none"/><path  d="M 627 998
L 627 15" style="stroke-width:0;stroke:none;fill:none"/><path  d="M 656 998
L 656 15" style="stroke-width:0;stroke:none;fill:none"/><path  d="M 752 998
L 752 15" style="stroke-width:0;stroke:none;fill:none"/><path  d="M 781 998
L 781 15" style="stroke-width:0;stroke:none;fill:none"/><path  d="M 935 998
L 935 15" style="stroke-width:0;stroke:none;fill:none"/><path  d="M 1012 998
L 1012 15" style="stroke-width:0;stroke:none;fill:none"/><path  d="M 1089 998
L 1089 15" style="stroke-width:0;stroke:none;fill:none"/><path  d="M 1244 998
L 1244 15" style="stroke-width:0;stroke:none;fill:none"/><path  d="M 1321 998
L 1321 15" style="stroke-width:0;stroke:none;fill:none"/><path  d="M 1369 998
L 1369 15" style="stroke-width:0;stroke:none;fill:none"/><path  d="M 1784 998
L 1784 15" style="stroke-width:1;stroke:rgba(51,51,51,1.0);fill:none"/><path  d="M 1784 998
L 1789 998" style="stroke-width:1;stroke:rgba(51,51,51,1.0);fill:none"/><text x="1794" y="1008" style="stroke-width:0;stroke:none;fill:rgba(51,51,51,1.0);font-size:20.8px;font-family:'Roboto Medium',sans-serif"></text><path  d="M 1784 801
L 1789 801" style="stroke-width:1;stroke:rgba(51,51,51,1.0);fill:none"/><text x="1794" y="811" style="stroke-width:0;stroke:none;fill:rgba(51,51,51,1.0);font-size:20.8px;font-family:'Roboto Medium',sans-serif">Downlink</text><path  d="M 1784 604
L 1789 604" style="stroke-width:1;stroke:rgba(51,51,51,1.0);fill:none"/><text x="1794" y="614" style="stroke-width:0;stroke:none;fill:rgba(51,51,51,1.0);font-size:20.8px;font-family:'Roboto Medium',sans-serif">Radio</text><path  d="M 1784 408
L 1789 408" style="stroke-width:1;stroke:rgba(51,51,51,1.0);fill:none"/><text x="1794" y="418" style="stroke-width:0;stroke:none;fill:rgba(51,51,51,1.0);font-size:20.8px;font-family:'Roboto Medium',sans-serif">Uplink</text><path  d="M 1784 211
L 1789 211" style="stroke-width:1;stroke:rgba(51,51,51,1.0);fill:none"/><text x="1794" y="221" style="stroke-width:0;stroke:none;fill:rgba(51,51,51,1.0);font-size:20.8px;font-family:'Roboto Medium',sans-serif">Std/FSK</text><path  d="M 1784 15
L 1789 15" style="stroke-width:1;stroke:rgba(51,51,51,1.0);fill:none"/><text x="1794" y="25" style="stroke-width:0;stroke:none;fill:rgba(51,51,51,1.0);font-size:20.8px;font-family:'Roboto Medium',sans-serif"></text><path  d="M 38 604
L 1783 604" style="stroke-width:0;stroke:none;fill:none"/><path  d="M 38 801
L 1783 801" style="stroke-width:0;stroke:none;fill:none"/><path  d="M 38 604
L 1783 604" style="stroke-width:0;stroke:none;fill:none"/><path  d="M 38 408
L 1783 408" style="stroke-width:0;stroke:none;fill:none"/><path  d="M 38 211
L 1783 211" style="stroke-width:0;stroke:none;fill:none"/><path  d="M 37 998
L 37 15" style="stroke-width:1;stroke:rgba(51,51,51,1.0);fill:none"/><path  d="M 37 998
L 32 998" style="stroke-width:1;stroke:rgba(51,51,51,1.0);fill:none"/><text x="-15" y="1008" style="stroke-width:0;stroke:none;fill:rgba(51,51,51,1.0);font-size:20.8px;font-family:'Roboto Medium',sans-serif">0.00</text><path  d="M 37 998
L 32 998" style="stroke-width:1;stroke:rgba(51,51,51,1.0);fill:none"/><text x="-15" y="1008" style="stroke-width:0;stroke:none;fill:rgba(51,51,51,1.0);font-size:20.8px;font-family:'Roboto Medium',sans-serif">0.00</text><path  d="M 37 998
L 32 998" style="stroke-width:1;stroke:rgba(51,51,51,1.0);fill:none"/><text x="-15" y="1008" style="stroke-width:0;stroke:none;fill:rgba(51,51,51,1.0);font-size:20.8px;font-family:'Roboto Medium',sans-serif">0.00</text><path  d="M 37 998
L 32 998" style="stroke-width:1;stroke:rgba(51,51,51,1.0);fill:none"/><text x="-15" y="1008" style="stroke-width:0;stroke:none;fill:rgba(51,51,51,1.0);font-size:20.8px;font-family:'Roboto Medium',sans-serif">0.00</text><path  d="M 37 998
L 32 998" style="stroke-width:1;stroke:rgba(51,51,51,1.0);fill:none"/><text x="-15" y="1008" style="stroke-width:0;stroke:none;fill:rgba(51,51,51,1.0);font-size:20.8px;font-family:'Roboto Medium',sans-serif">0.00</text><path  d="M 37 998
L 32 998" style="stroke-width:1;stroke:rgba(51,51,51,1.0);fill:none"/><text x="-15" y="1008" style="stroke-width:0;stroke:none;fill:rgba(51,51,51,1.0);font-size:20.8px;font-family:'Roboto Medium',sans-serif">0.00</text><path  d="M 37 998
L 32 998" style="stroke-width:1;stroke:rgba(51,51,51,1.0);fill:none"/><text x="-15" y="1008" style="stroke-width:0;stroke:none;fill:rgba(51,51,51,1.0);font-size:20.8px;font-family:'Roboto Medium',sans-serif">0.00</text><path  d="M 37 998
L 32 998" style="stroke-width:1;stroke:rgba(51,51,51,1.0);fill:none"/><text x="-15" y="1008" style="stroke-width:0;stroke:none;fill:rgba(51,51,51,1.0);font-size:20.8px;font-family:'Roboto Medium',sans-serif">0.00</text><path  d="M 37 998
L 32 998" style="stroke-width:1;stroke:rgba(51,51,51,1.0);fill:none"/><text x="-15" y="1008" style="stroke-width:0;stroke:none;fill:rgba(51,51,51,1.0);font-size:20.8px;font-family:'Roboto Medium',sans-serif">0.00</text><path  d="M 37 998
L 32 998" style="stroke-width:1;stroke:rgba(51,51,51,1.0);fill:none"/><text x="-15" y="1008" style="stroke-width:0;stroke:none;fill:rgba(51,51,51,1.0);font-size:20.8px;font-family:'Roboto Medium',sans-serif">0.00</text><path  d="M 37 998
L 32 998" style="stroke-width:1;stroke:rgba(51,51,51,1.0);fill:none"/><text x="-15" y="1008" style="stroke-width:0;stroke:none;fill:rgba(51,51,51,1.0);font-size:20.8px;font-family:'Roboto Medium',sans-serif">0.00</text><path  d="M 37 998
L 32 998" style="stroke-width:1;stroke:rgba(51,51,51,1.0);fill:none"/><text x="-15" y="1008" style="stroke-width:0;stroke:none;fill:rgba(51,51,51,1.0);font-size:20.8px;font-family:'Roboto Medium',sans-serif">0.00</text><path  d="M 37 998
L 32 998" style="stroke-width:1;stroke:rgba(51,51,51,1.0);fill:none"/><text x="-15" y="1008" style="stroke-width:0;stroke:none;fill:rgba(51,51,51,1.0);font-size:20.8px;font-family:'Roboto Medium',sans-serif">0.00</text><path  d="M 37 998
L 32 998" style="stroke-width:1;stroke:rgba(51,51,51,1.0);fill:none"/><text x="-15" y="1008" style="stroke-width:0;stroke:none;fill:rgba(51,51,51,1.0);font-size:20.8px;font-family:'Roboto Medium',sans-serif">0.00</text><path  d="M 37 998
L 32 998" style="stroke-width:1;stroke:rgba(51,51,51,1.0);fill:none"/><text x="-15" y="1008" style="stroke-width:0;stroke:none;fill:rgba(51,51,51,1.0);font-size:20.8px;font-family:'Roboto Medium',sans-serif">0.00</text><path  d="M 37 998
L 32 998" style="stroke-width:1;stroke:rgba(51,51,51,1.0);fill:none"/><text x="-15" y="1008" style="stroke-width:0;stroke:none;fill:rgba(51,51,51,1.0);font-size:20.8px;font-family:'Roboto Medium',sans-serif">0.00</text><path  d="M 37 998
L 32 998" style="stroke-width:1;stroke:rgba(51,51,51,1.0);fill:none"/><text x="-15" y="1008" style="stroke-width:0;stroke:none;fill:rgba(51,51,51,1.0);font-size:20.8px;font-family:'Roboto Medium',sans-serif">0.00</text><path  d="M 37 998
L 32 998" style="stroke-width:1;stroke:rgba(51,51,51,1.0);fill:none"/><text x="-15" y="1008" style="stroke-width:0;stroke:none;fill:rgba(51,51,51,1.0);font-size:20.8px;font-family:'Roboto Medium',sans-serif">0.00</text><path  d="M 37 998
L 32 998" style="stroke-width:1;stroke:rgba(51,51,51,1.0);fill:none"/><text x="-15" y="1008" style="stroke-width:0;stroke:none;fill:rgba(51,51,51,1.0);font-size:20.8px;font-family:'Roboto Medium',sans-serif">0.00</text><path  d="M 37 998
L 32 998" style="stroke-width:1;stroke:rgba(51,51,51,1.0);fill:none"/><text x="-15" y="1008" style="stroke-width:0;stroke:none;fill:rgba(51,51,51,1.0);font-size:20.8px;font-family:'Roboto Medium',sans-serif">0.00</text><path  d="M 37 998
L 32 998" style="stroke-width:1;stroke:rgba(51,51,51,1.0);fill:none"/><text x="-15" y="1008" style="stroke-width:0;stroke:none;fill:rgba(51,51,51,1.0);font-size:20.8px;font-family:'Roboto Medium',sans-serif">0.00</text><path  d="M 37 998
L 32 998" style="stroke-width:1;stroke:rgba(51,51,51,1.0);fill:none"/><text x="-15" y="1008" style="stroke-width:0;stroke:none;fill:rgba(51,51,51,1.0);font-size:20.8px;font-family:'Roboto Medium',sans-serif">0.00</text><path  d="M 37 998
L 32 998" style="stroke-width:1;stroke:rgba(51,51,51,1.0);fill:none"/><text x="-15" y="1008" style="stroke-width:0;stroke:none;fill:rgba(51,51,51,1.0);font-size:20.8px;font-family:'Roboto Medium',sans-serif">0.00</text><path  d="M 38 998
L 1783 998" style="stroke-width:0;stroke:none;fill:none"/><path  d="M 38 998
L 1783 998" style="stroke-width:0;stroke:none;fill:none"/><path  d="M 38 998
L 1783 998" style="stroke-width:0;stroke:none;fill:none"/><path  d="M 38 998
L 1783 998" style="stroke-width:0;stroke:none;fill:none"/><path  d="M 38 998
L 1783 998" style="stroke-width:0;stroke:none;fill:none"/><path  d="M 38 998
L 1783 998" style="stroke-width:0;stroke:none;fill:none"/><path  d="M 38 998
L 1783 998" style="stroke-width:0;stroke:none;fill:none"/><path  d="M 38 998
L 1783 998" style="stroke-width:0;stroke:none;fill:none"/><path  d="M 38 998
L 1783 998" style="stroke-width:0;stroke:none;fill:none"/><path  d="M 38 998
L 1783 998" style="stroke-width:0;stroke:none;fill:none"/><path  d="M 38 998
L 1783 998" style="stroke-width:0;stroke:none;fill:none"/><path  d="M 38 998
L 1783 998" style="stroke-width:0;stroke:none;fill:none"/><path  d="M 38 998
L 1783 998" style="stroke-width:0;stroke:none;fill:none"/><path  d="M 38 998
L 1783 998" style="stroke-width:0;stroke:none;fill:none"/><path  d="M 38 998
L 1783 998" style="stroke-width:0;stroke:none;fill:none"/><path  d="M 38 998
L 1783 998" style="stroke-width:0;stroke:none;fill:none"/><path  d="M 38 998
L 1783 998" style="stroke-width:0;stroke:none;fill:none"/><path  d="M 38 998
L 1783 998" style="stroke-width:0;stroke:none;fill:none"/><path  d="M 38 998
L 1783 998" style="stroke-width:0;stroke:none;fill:none"/><path  d="M 38 998
L 1783 998" style="stroke-width:0;stroke:none;fill:none"/><path  d="M 38 998
L 1783 998" style="stroke-width:0;stroke:none;fill:none"/><path  d="M 38 998
L 1783 998" style="stroke-width:0;stroke:none;fill:none"/><path  d="M 116 408
L 212 408
L 212 604
L 116 604
L 116 408" style="stroke-width:0;stroke:none;fill:rgba(0,116,217,0.5)"/><path  d="M 116 408
L 212 408" style="stroke-width:1;stroke:rgba(0,116,217,0.5);fill:none"/><path  d="M 270 408
L 366 408
L 366 604
L 270 604
L 270 408" style="stroke-width:0;stroke:none;fill:rgba(0,116,217,0.5)"/><path  d="M 270 408
L 366 408" style="stroke-width:1;stroke:rgba(0,116,217,0.5);fill:none"/><path  d="M 424 408
L 521 408
L 521 604
L 424 604
L 424 408" style="stroke-width:0;stroke:none;fill:rgba(0,116,217,0.5)"/><path  d="M 424 408
L 521 408" style="stroke-width:1;stroke:rgba(0,116,217,0.5);fill:none"/><path  d="M 578 408
L 675 408
L 675 604
L 578 604
L 578 408" style="stroke-width:0;stroke:none;fill:rgba(0,116,217,0.5)"/><path  d="M 578 408
L 675 408" style="stroke-width:1;stroke:rgba(0,116,217,0.5);fill:none"/><path  d="M 733 408
L 829 408
L 829 604
L 733 604
L 733 408" style="stroke-width:0;stroke:none;fill:rgba(0,217,101,0.5)"/><path  d="M 733 408
L 829 408" style="stroke-width:1;stroke:rgba(0,217,101,0.5);fill:none"/><path  d="M 887 408
L 983 408
L 983 604
L 887 604
L 887 408" style="stroke-width:0;stroke:none;fill:rgba(0,217,101,0.5)"/><path  d="M 887 408
L 983 408" style="stroke-width:1;stroke:rgba(0,217,101,0.5);fill:none"/><path  d="M 1041 408
L 1138 408
L 1138 604
L 1041 604
L 1041 408" style="stroke-width:0;stroke:none;fill:rgba(0,217,101,0.5)"/><path  d="M 1041 408
L 1138 408" style="stroke-width:1;stroke:rgba(0,217,101,0.5);fill:none"/><path  d="M 1195 408
L 1292 408
L 1292 604
L 1195 604
L 1195 408" style="stroke-width:0;stroke:none;fill:rgba(0,217,101,0.5)"/><path  d="M 1195 408
L 1292 408" style="stroke-width:1;stroke:rgba(0,217,101,0.5);fill:none"/><path  d="M 1224 211
L 1417 211
L 1417 604
L 1224 604
L 1224 211" style="stroke-width:0;stroke:none;fill:rgba(0,217,101,0.5)"/><path  d="M 1224 211
L 1417 211" style="stroke-width:1;stroke:rgba(0,217,101,0.5);fill:none"/><path  d="M 1735 211
L 1832 211
L 1832 604
L 1735 604
L 1735 211" style="stroke-width:0;stroke:none;fill:rgba(0,217,101,0.5)"/><path  d="M 1735 211
L 1832 211" style="stroke-width:1;stroke:rgba(0,217,101,0.5);fill:none"/><path  d="M 116 801
L 212 801
L 212 604
L 116 604
L 116 801" style="stroke-width:0;stroke:none;fill:rgba(0,217,210,0.5)"/><path  d="M 116 801
L 212 801" style="stroke-width:1;stroke:rgba(0,217,210,0.5);fill:none"/><path  d="M 270 801
L 366 801
L 366 604
L 270 604
L 270 801" style="stroke-width:0;stroke:none;fill:rgba(0,217,210,0.5)"/><path  d="M 270 801
L 366 801" style="stroke-width:1;stroke:rgba(0,217,210,0.5);fill:none"/><path  d="M 424 801
L 521 801
L 521 604
L 424 604
L 424 801" style="stroke-width:0;stroke:none;fill:rgba(0,217,210,0.5)"/><path  d="M 424 801
L 521 801" style="stroke-width:1;stroke:rgba(0,217,210,0.5);fill:none"/><path  d="M 578 801
L 675 801
L 675 604
L 578 604
L 578 801" style="stroke-width:0;stroke:none;fill:rgba(0,217,210,0.5)"/><path  d="M 578 801
L 675 801" style="stroke-width:1;stroke:rgba(0,217,210,0.5);fill:none"/><path  d="M 733 801
L 829 801
L 829 604
L 733 604
L 733 801" style="stroke-width:0;stroke:none;fill:rgba(0,217,210,0.5)"/><path  d="M 733 801
L 829 801" style="stroke-width:1;stroke:rgba(0,217,210,0.5);fill:none"/><path  d="M 887 801
L 983 801
L 983 604
L 887 604
L 887 801" style="stroke-width:0;stroke:none;fill:rgba(0,217,210,0.5)"/><path  d="M 887 801
L 983 801" style="stroke-width:1;stroke:rgba(0,217,210,0.5);fill:none"/><path  d="M 1041 801
L 1138 801
L 1138 604
L 1041 604
L 1041 801" style="stroke-width:0;stroke:none;fill:rgba(0,217,210,0.5)"/><path  d="M 1041 801
L 1138 801" style="stroke-width:1;stroke:rgba(0,217,210,0.5);fill:none"/><path  d="M 1195 801
L 1292 801
L 1292 604
L 1195 604
L 1195 801" style="stroke-width:0;stroke:none;fill:rgba(0,217,210,0.5)"/><path  d="M 1195 801
L 1292 801" style="stroke-width:1;stroke:rgba(0,217,210,0.5);fill:none"/><path  d="M 38 604
L 752 604" style="stroke-width:10;stroke:rgba(0,116,217,0.5);fill:none"/><path  d="M 656 604
L 1369 604" style="stroke-width:10;stroke:rgba(0,217,101,0.5);fill:none"/><path  d="M 164 408
L 174 393
L 238 393
L 238 423
L 174 423
L 164 408
Z" style="stroke-width:1;stroke:rgba(0,116,217,1.0);fill:rgba(255,255,255,1.0)"/><text x="179" y="418" style="stroke-width:0;stroke:none;fill:rgba(51,51,51,1.0);font-size:20.8px;font-family:'Roboto Medium',sans-serif">920.6</text><path  d="M 318 408
L 328 393
L 392 393
L 392 423
L 328 423
L 318 408
Z" style="stroke-width:1;stroke:rgba(0,116,217,1.0);fill:rgba(255,255,255,1.0)"/><text x="333" y="418" style="stroke-width:0;stroke:none;fill:rgba(51,51,51,1.0);font-size:20.8px;font-family:'Roboto Medium',sans-serif">920.8</text><path  d="M 472 408
L 482 393
L 528 393
L 528 423
L 482 423
L 472 408
Z" style="stroke-width:1;stroke:rgba(0,116,217,1.0);fill:rgba(255,255,255,1.0)"/><text x="487" y="418" style="stroke-width:0;stroke:none;fill:rgba(51,51,51,1.0);font-size:20.8px;font-family:'Roboto Medium',sans-serif">921</text><path  d="M 627 408
L 637 393
L 701 393
L 701 423
L 637 423
L 627 408
Z" style="stroke-width:1;stroke:rgba(0,116,217,1.0);fill:rgba(255,255,255,1.0)"/><text x="642" y="418" style="stroke-width:0;stroke:none;fill:rgba(51,51,51,1.0);font-size:20.8px;font-family:'Roboto Medium',sans-serif">921.2</text><path  d="M 781 408
L 791 393
L 855 393
L 855 423
L 791 423
L 781 408
Z" style="stroke-width:1;stroke:rgba(0,116,217,1.0);fill:rgba(255,255,255,1.0)"/><text x="796" y="418" style="stroke-width:0;stroke:none;fill:rgba(51,51,51,1.0);font-size:20.8px;font-family:'Roboto Medium',sans-serif">921.4</text><path  d="M 935 408
L 945 393
L 1009 393
L 1009 423
L 945 423
L 935 408
Z" style="stroke-width:1;stroke:rgba(0,116,217,1.0);fill:rgba(255,255,255,1.0)"/><text x="950" y="418" style="stroke-width:0;stroke:none;fill:rgba(51,51,51,1.0);font-size:20.8px;font-family:'Roboto Medium',sans-serif">921.6</text><path  d="M 1089 408
L 1099 393
L 1163 393
L 1163 423
L 1099 423
L 1089 408
Z" style="stroke-width:1;stroke:rgba(0,116,217,1.0);fill:rgba(255,255,255,1.0)"/><text x="1104" y="418" style="stroke-width:0;stroke:none;fill:rgba(51,51,51,1.0);font-size:20.8px;font-family:'Roboto Medium',sans-serif">921.8</text><path  d="M 1244 408
L 1254 393
L 1300 393
L 1300 423
L 1254 423
L 1244 408
Z" style="stroke-width:1;stroke:rgba(0,116,217,1.0);fill:rgba(255,255,255,1.0)"/><text x="1259" y="418" style="stroke-width:0;stroke:none;fill:rgba(51,51,51,1.0);font-size:20.8px;font-family:'Roboto Medium',sans-serif">922</text><path  d="M 1321 211
L 1331 196
L 1446 196
L 1446 226
L 1331 226
L 1321 211
Z" style="stroke-width:1;stroke:rgba(0,116,217,1.0);fill:rgba(255,255,255,1.0)"/><text x="1336" y="221" style="stroke-width:0;stroke:none;fill:rgba(51,51,51,1.0);font-size:20.8px;font-family:'Roboto Medium',sans-serif">922.1 (Std)</text><path  d="M 1783 211
L 1793 196
L 1914 196
L 1914 226
L 1793 226
L 1783 211
Z" style="stroke-width:1;stroke:rgba(0,116,217,1.0);fill:rgba(255,255,255,1.0)"/><text x="1798" y="221" style="stroke-width:0;stroke:none;fill:rgba(51,51,51,1.0);font-size:20.8px;font-family:'Roboto Medium',sans-serif">922.7 (FSK)</text><path  d="M 164 801
L 174 786
L 238 786
L 238 816
L 174 816
L 164 801
Z" style="stroke-width:1;stroke:rgba(0,116,217,1.0);fill:rgba(255,255,255,1.0)"/><text x="179" y="811" style="stroke-width:0;stroke:none;fill:rgba(51,51,51,1.0);font-size:20.8px;font-family:'Roboto Medium',sans-serif">920.6</text><path  d="M 318 801
L 328 786
L 392 786
L 392 816
L 328 816
L 318 801
Z" style="stroke-width:1;stroke:rgba(0,116,217,1.0);fill:rgba(255,255,255,1.0)"/><text x="333" y="811" style="stroke-width:0;stroke:none;fill:rgba(51,51,51,1.0);font-size:20.8px;font-family:'Roboto Medium',sans-serif">920.8</text><path  d="M 472 801
L 482 786
L 528 786
L 528 816
L 482 816
L 472 801
Z" style="stroke-width:1;stroke:rgba(0,116,217,1.0);fill:rgba(255,255,255,1.0)"/><text x="487" y="811" style="stroke-width:0;stroke:none;fill:rgba(51,51,51,1.0);font-size:20.8px;font-family:'Roboto Medium',sans-serif">921</text><path  d="M 627 801
L 637 786
L 701 786
L 701 816
L 637 816
L 627 801
Z" style="stroke-width:1;stroke:rgba(0,116,217,1.0);fill:rgba(255,255,255,1.0)"/><text x="642" y="811" style="stroke-width:0;stroke:none;fill:rgba(51,51,51,1.0);font-size:20.8px;font-family:'Roboto Medium',sans-serif">921.2</text><path  d="M 781 801
L 791 786
L 855 786
L 855 816
L 791 816
L 781 801
Z" style="stroke-width:1;stroke:rgba(0,116,217,1.0);fill:rgba(255,255,255,1.0)"/><text x="796" y="811" style="stroke-width:0;stroke:none;fill:rgba(51,51,51,1.0);font-size:20.8px;font-family:'Roboto Medium',sans-serif">921.4</text><path  d="M 935 801
L 945 786
L 1009 786
L 1009 816
L 945 816
L 935 801
Z" style="stroke-width:1;stroke:rgba(0,116,217,1.0);fill:rgba(255,255,255,1.0)"/><text x="950" y="811" style="stroke-width:0;stroke:none;fill:rgba(51,51,51,1.0);font-size:20.8px;font-family:'Roboto Medium',sans-serif">921.6</text><path  d="M 1089 801
L 1099 786
L 1163 786
L 1163 816
L 1099 816
L 1089 801
Z" style="stroke-width:1;stroke:rgba(0,116,217,1.0);fill:rgba(255,255,255,1.0)"/><text x="1104" y="811" style="stroke-width:0;stroke:none;fill:rgba(51,51,51,1.0);font-size:20.8px;font-family:'Roboto Medium',sans-serif">921.8</text><path  d="M 1244 801
L 1254 786
L 1300 786
L 1300 816
L 1254 816
L 1244 801
Z" style="stroke-width:1;stroke:rgba(0,116,217,1.0);fill:rgba(255,255,255,1.0)"/><text x="1259" y="811" style="stroke-width:0;stroke:none;fill:rgba(51,51,51,1.0);font-size:20.8px;font-family:'Roboto Medium',sans-serif">922</text><path  d="M 395 604
L 405 589
L 550 589
L 550 619
L 405 619
L 395 604
Z" style="stroke-width:1;stroke:rgba(0,116,217,1.0);fill:rgba(255,255,255,1.0)"/><text x="410" y="614" style="stroke-width:0;stroke:none;fill:rgba(51,51,51,1.0);font-size:20.8px;font-family:'Roboto Medium',sans-serif">Radio 0: 920.9</text><path  d="M 1012 604
L 1022 589
L 1167 589
L 1167 619
L 1022 619
L 1012 604
Z" style="stroke-width:1;stroke:rgba(0,116,217,1.0);fill:rgba(255,255,255,1.0)"/><text x="1027" y="614" style="stroke-width:0;stroke:none;fill:rgba(51,51,51,1.0);font-size:20.8px;font-family:'Roboto Medium',sans-serif">Radio 1: 921.7</text><text x="761" y="47" style="stroke-width:0;stroke:none;fill:rgba(51,51,51,1.0);font-size:37.5px;font-family:'Roboto Medium',sans-serif">AS_920_923_TTN_JP_3</text></svg>