<svg xmlns="http://www.w3.org/2000/svg" xmlns:xlink="http://www.w3.org/1999/xlink" width="1920" height="1080">\n<path  d="M 0 0
L 1920 0
L 1920 1080
L 0 1080
L 0 0" style="stroke-width:0;stroke:rgba(255,255,255,1.0);fill:rgba(255,255,255,1.0)"/><path  d="M 38 15
L 1819 15
L 1819 998
L 38 998
L 38 15" style="stroke-width:0;stroke:rgba(255,255,255,1.0);fill:rgba(255,255,255,1.0)"/><path  d="M 38 998
L 1819 998" style="stroke-width:1;stroke:rgba(51,51,51,1.0);fill:none"/><path  d="M 38 998
L 38 1003" style="stroke-width:1;stroke:rgba(51,51,51,1.0);fill:none"/><text x="38" y="1018" style="stroke-width:0;stroke:none;fill:rgba(51,51,51,1.0);font-size:20.8px;font-family:'Roboto Medium',sans-serif" transform="rotate(45.00,38,1018)">923.138</text><path  d="M 96 998
L 96 1003" style="stroke-width:1;stroke:rgba(51,51,51,1.0);fill:none"/><text x="96" y="1018" style="stroke-width:0;stroke:none;fill:rgba(51,51,51,1.0);font-size:20.8px;font-family:'Roboto Medium',sans-serif" transform="rotate(45.00,96,1018)">923.2</text><path  d="M 281 998
L 281 1003" style="stroke-width:1;stroke:rgba(51,51,51,1.0);fill:none"/><text x="281" y="1018" style="stroke-width:0;stroke:none;fill:rgba(51,51,51,1.0);font-size:20.8px;font-family:'Roboto Medium',sans-serif" transform="rotate(45.00,281,1018)">923.4</text><path  d="M 466 998
L 466 1003" style="stroke-width:1;stroke:rgba(51,51,51,1.0);fill:none"/><text x="466" y="1018" style="stroke-width:0;stroke:none;fill:rgba(51,51,51,1.0);font-size:20.8px;font-family:'Roboto Medium',sans-serif" transform="rotate(45.00,466,1018)">923.6</text><path  d="M 651 998
L 651 1003" style="stroke-width:1;stroke:rgba(51,51,51,1.0);fill:none"/><text x="651" y="1018" style="stroke-width:0;stroke:none;fill:rgba(51,51,51,1.0);font-size:20.8px;font-family:'Roboto Medium',sans-serif" transform="rotate(45.00,651,1018)">923.8</text><path  d="M 836 998
L 836 1003" style="stroke-width:1;stroke:rgba(51,51,51,1.0);fill:none"/><text x="836" y="1018" style="stroke-width:0;stroke:none;fill:rgba(51,51,51,1.0);font-size:20.8px;font-family:'Roboto Medium',sans-serif" transform="rotate(45.00,836,1018)">924</text><path  d="M 894 998
L 894 1003" style="stroke-width:1;stroke:rgba(51,51,51,1.0);fill:none"/><text x="894" y="1018" style="stroke-width:0;stroke:none;fill:rgba(51,51,51,1.0);font-size:20.8px;font-family:'Roboto Medium',sans-serif" transform="rotate(45.00,894,1018)">924.062</text><path  d="M 964 998
L 964 1003" style="stroke-width:1;stroke:rgba(51,51,51,1.0);fill:none"/><text x="964" y="1018" style="stroke-width:0;stroke:none;fill:rgba(51,51,51,1.0);font-size:20.8px;font-family:'Roboto Medium',sans-serif" transform="rotate(45.00,964,1018)">924.138</text><path  d="M 1022 998
L 1022 1003" style="stroke-width:1;stroke:rgba(51,51,51,1.0);fill:none"/><text x="1022" y="1018" style="stroke-width:0;stroke:none;fill:rgba(51,51,51,1.0);font-size:20.8px;font-family:'Roboto Medium',sans-serif" transform="rotate(45.00,1022,1018)">924.2</text><path  d="M 1207 998
L 1207 1003" style="stroke-width:1;stroke:rgba(51,51,51,1.0);fill:none"/><text x="1207" y="1018" style="stroke-width:0;stroke:none;fill:rgba(51,51,51,1.0);font-size:20.8px;font-family:'Roboto Medium',sans-serif" transform="rotate(45.00,1207,1018)">924.4</text><path  d="M 1299 998
L 1299 1003" style="stroke-width:1;stroke:rgba(51,51,51,1.0);fill:none"/><text x="1299" y="1018" style="stroke-width:0;stroke:none;fill:rgba(51,51,51,1.0);font-size:20.8px;font-family:'Roboto Medium',sans-serif" transform="rotate(45.00,1299,1018)">924.5</text><path  d="M 1392 998
L 1392 1003" style="stroke-width:1;stroke:rgba(51,51,51,1.0);fill:none"/><text x="1392" y="1018" style="stroke-width:0;stroke:none;fill:rgba(51,51,51,1.0);font-size:20.8px;font-family:'Roboto Medium',sans-serif" transform="rotate(45.00,1392,1018)">924.6</text><path  d="M 1577 998
L 1577 1003" style="stroke-width:1;stroke:rgba(51,51,51,1.0);fill:none"/><text x="1577" y="1018" style="stroke-width:0;stroke:none;fill:rgba(51,51,51,1.0);font-size:20.8px;font-family:'Roboto Medium',sans-serif" transform="rotate(45.00,1577,1018)">924.8</text><path  d="M 1819 998
L 1819 1003" style="stroke-width:1;stroke:rgba(51,51,51,1.0);fill:none"/><text x="1819" y="1018" style="stroke-width:0;stroke:none;fill:rgba(51,51,51,1.0);font-size:20.8px;font-family:'Roboto Medium',sans-serif" transform="rotate(45.00,1819,1018)">925.062</text><path  d="M 96 998
L 96 15" style="stroke-width:0;stroke:none;fill:none"/><path  d="M 281 998
L 281 15" style="stroke-width:0;stroke:none;fill:none"/><path  d="M 466 998
L 466 15" style="stroke-width:0;stroke:none;fill:none"/><path  d="M 651 998
L 651 15" style="stroke-width:0;stroke:none;fill:none"/><path  d="M 836 998
L 836 15" style="stroke-width:0;stroke:none;fill:none"/><path  d="M 894 998
L 894 15" style="stroke-width:0;stroke:none;fill:none"/><path  d="M 964 998
L 964 15" style="stroke-width:0;stroke:none;fill:none"/><path  d="M 1022 998
L 1022 15" style="stroke-width:0;stroke:none;fill:none"/><path  d="M 1207 998
L 1207 15" style="stroke-width:0;stroke:none;fill:none"/><path  d="M 1299 998
L 1299 15" style="stroke-width:0;stroke:none;fill:none"/><path  d="M 1392 998
L 1392 15" style="stroke-width:0;stroke:none;fill:none"/><path  d="M 1577 998
L 1577 15" style="stroke-width:0;stroke:none;fill:none"/><path  d="M 1820 998
L 1820 15" style="stroke-width:1;stroke:rgba(51,51,51,1.0);fill:none"/><path  d="M 1820 998
L 1825 998" style="stroke-width:1;stroke:rgba(51,51,51,1.0);fill:none"/><text x="1830" y="1008" style="stroke-width:0;stroke:none;fill:rgba(51,51,51,1.0);font-size:20.8px;font-family:'Roboto Medium',sans-serif"></text><path  d="M 1820 801
L 1825 801" style="stroke-width:1;stroke:rgba(51,51,51,1.0);fill:none"/><text x="1830" y="811" style="stroke-width:0;stroke:none;fill:rgba(51,51,51,1.0);font-size:20.8px;font-family:'Roboto Medium',sans-serif">Downlink</text><path  d="M 1820 604
L 1825 604" style="stroke-width:1;stroke:rgba(51,51,51,1.0);fill:none"/><text x="1830" y="614" style="stroke-width:0;stroke:none;fill:rgba(51,51,51,1.0);font-size:20.8px;font-family:'Roboto Medium',sans-serif">Radio</text><path  d="M 1820 408
L 1825 408" style="stroke-width:1;stroke:rgba(51,51,51,1.0);fill:none"/><text x="1830" y="418" style="stroke-width:0;stroke:none;fill:rgba(51,51,51,1.0);font-size:20.8px;font-family:'Roboto Medium',sans-serif">Uplink</text><path  d="M 1820 211
L 1825 211" style="stroke-width:1;stroke:rgba(51,51,51,1.0);fill:none"/><text x="1830" y="221" style="stroke-width:0;stroke:none;fill:rgba(51,51,51,1.0);font-size:20.8px;font-family:'Roboto Medium',sans-serif">Std/FSK</text><path  d="M 1820 15
L 1825 15" style="stroke-width:1;stroke:rgba(51,51,51,1.0);fill:none"/><text x="1830" y="25" style="stroke-width:0;stroke:none;fill:rgba(51,51,51,1.0);font-size:20.8px;font-family:'Roboto Medium',sans-serif"></text><path  d="M 38 604
L 1819 604" style="stroke-width:0;stroke:none;fill:none"/><path  d="M 38 801
L 1819 801" style="stroke-width:0;stroke:none;fill:none"/><path  d="M 38 604
L 1819 604" style="stroke-width:0;stroke:none;fill:none"/><path  d="M 38 408
L 1819 408" style="stroke-width:0;stroke:none;fill:none"/><path  d="M 38 211
L 1819 211" style="stroke-width:0;stroke:none;fill:none"/><path  d="M 37 998
L 37 15" style="stroke-width:1;stroke:rgba(51,51,51,1.0);fill:none"/><path  d="M 37 998
L 32 998" style="stroke-width:1;stroke:rgba(51,51,51,1.0);fill:none"/><text x="-15" y="1008" style="stroke-width:0;stroke:none;fill:rgba(51,51,51,1.0);font-size:20.8px;font-family:'Roboto Medium',sans-serif">0.00</text><path  d="M 37 998
L 32 998" style="stroke-width:1;stroke:rgba(51,51,51,1.0);fill:none"/><text x="-15" y="1008" style="stroke-width:0;stroke:none;fill:rgba(51,51,51,1.0);font-size:20.8px;font-family:'Roboto Medium',sans-serif">0.00</text><path  d="M 37 998
L 32 998" style="stroke-width:1;stroke:rgba(51,51,51,1.0);fill:none"/><text x="-15" y="1008" style="stroke-width:0;stroke:none;fill:rgba(51,51,51,1.0);font-size:20.8px;font-family:'Roboto Medium',sans-serif">0.00</text><path  d="M 37 998
L 32 998" style="stroke-width:1;stroke:rgba(51,51,51,1.0);fill:none"/><text x="-15" y="1008" style="stroke-width:0;stroke:none;fill:rgba(51,51,51,1.0);font-size:20.8px;font-family:'Roboto Medium',sans-serif">0.00</text><path  d="M 37 998
L 32 998" style="stroke-width:1;stroke:rgba(51,51,51,1.0);fill:none"/><text x="-15" y="1008" style="stroke-width:0;stroke:none;fill:rgba(51,51,51,1.0);font-size:20.8px;font-family:'Roboto Medium',sans-serif">0.00</text><path  d="M 37 998
L 32 998" style="stroke-width:1;stroke:rgba(51,51,51,1.0);fill:none"/><text x="-15" y="1008" style="stroke-width:0;stroke:none;fill:rgba(51,51,51,1.0);font-size:20.8px;font-family:'Roboto Medium',sans-serif">0.00</text><path  d="M 37 998
L 32 998" style="stroke-width:1;stroke:rgba(51,51,51,1.0);fill:none"/><text x="-15" y="1008" style="stroke-width:0;stroke:none;fill:rgba(51,51,51,1.0);font-size:20.8px;font-family:'Roboto Medium',sans-serif">0.00</text><path  d="M 37 998
L 32 998" style="stroke-width:1;stroke:rgba(51,51,51,1.0);fill:none"/><text x="-15" y="1008" style="stroke-width:0;stroke:none;fill:rgba(51,51,51,1.0);font-size:20.8px;font-family:'Roboto Medium',sans-serif">0.00</text><path  d="M 37 998
L 32 998" style="stroke-width:1;stroke:rgba(51,51,51,1.0);fill:none"/><text x="-15" y="1008" style="stroke-width:0;stroke:none;fill:rgba(51,51,51,1.0);font-size:20.8px;font-family:'Roboto Medium',sans-serif">0.00</text><path  d="M 37 998
L 32 998" style="stroke-width:1;stroke:rgba(51,51,51,1.0);fill:none"/><text x="-15" y="1008" style="stroke-width:0;stroke:none;fill:rgba(51,51,51,1.0);font-size:20.8px;font-family:'Roboto Medium',sans-serif">0.00</text><path  d="M 37 998
L 32 998" style="stroke-width:1;stroke:rgba(51,51,51,1.0);fill:none"/><text x="-15" y="1008" style="stroke-width:0;stroke:none;fill:rgba(51,51,51,1.0);font-size:20.8px;font-family:'Roboto Medium',sans-serif">0.00</text><path  d="M 37 998
L 32 998" style="stroke-width:1;stroke:rgba(51,51,51,1.0);fill:none"/><text x="-15" y="1008" style="stroke-width:0;stroke:none;fill:rgba(51,51,51,1.0);font-size:20.8px;font-family:'Roboto Medium',sans-serif">0.00</text><path  d="M 37 998
L 32 998" style="stroke-width:1;stroke:rgba(51,51,51,1.0);fill:none"/><text x="-15" y="1008" style="stroke-width:0;stroke:none;fill:rgba(51,51,51,1.0);font-size:20.8px;font-family:'Roboto Medium',sans-serif">0.00</text><path  d="M 37 998
L 32 998" style="stroke-width:1;stroke:rgba(51,51,51,1.0);fill:none"/><text x="-15" y="1008" style="stroke-width:0;stroke:none;fill:rgba(51,51,51,1.0);font-size:20.8px;font-family:'Roboto Medium',sans-serif">0.00</text><path  d="M 37 998
L 32 998" style="stroke-width:1;stroke:rgba(51,51,51,1.0);fill:none"/><text x="-15" y="1008" style="stroke-width:0;stroke:none;fill:rgba(51,51,51,1.0);font-size:20.8px;font-family:'Roboto Medium',sans-serif">0.00</text><path  d="M 37 998
L 32 998" style="stroke-width:1;stroke:rgba(51,51,51,1.0);fill:none"/><text x="-15" y="1008" style="stroke-width:0;stroke:none;fill:rgba(51,51,51,1.0);font-size:20.8px;font-family:'Roboto Medium',sans-serif">0.00</text><path  d="M 37 998
L 32 998" style="stroke-width:1;stroke:rgba(51,51,51,1.0);fill:none"/><text x="-15" y="1008" style="stroke-width:0;stroke:none;fill:rgba(51,51,51,1.0);font-size:20.8px;font-family:'Roboto Medium',sans-serif">0.00</text><path  d="M 37 998
L 32 998" style="stroke-width:1;stroke:rgba(51,51,51,1.0);fill:none"/><text x="-15" y="1008" style="stroke-width:0;stroke:none;fill:rgba(51,51,51,1.0);font-size:20.8px;font-family:'Roboto Medium',sans-serif">0.00</text><path  d="M 37 998
L 32 998" style="stroke-width:1;stroke:rgba(51,51,51,1.0);fill:none"/><text x="-15" y="1008" style="stroke-width:0;stroke:none;fill:rgba(51,51,51,1.0);font-size:20.8px;font-family:'Roboto Medium',sans-serif">0.00</text><path  d="M 37 998
L 32 998" style="stroke-width:1;stroke:rgba(51,51,51,1.0);fill:none"/><text x="-15" y="1008" style="stroke-width:0;stroke:none;fill:rgba(51,51,51,1.0);font-size:20.8px;font-family:'Roboto Medium',sans-serif">0.00</text><path  d="M 37 998
L 32 998" style="stroke-width:1;stroke:rgba(51,51,51,1.0);fill:none"/><text x="-15" y="1008" style="stroke-width:0;stroke:none;fill:rgba(51,51,51,1.0);font-size:20.8px;font-family:'Roboto Medium',sans-serif">0.00</text><path  d="M 37 998
L 32 998" style="stroke-width:1;stroke:rgba(51,51,51,1.0);fill:none"/><text x="-15" y="1008" style="stroke-width:0;stroke:none;fill:rgba(51,51,51,1.0);font-size:20.8px;font-family:'Roboto Medium',sans-serif">0.00</text><path  d="M 37 998
L 32 998" style="stroke-width:1;stroke:rgba(51,51,51,1.0);fill:none"/><text x="-15" y="1008" style="stroke-width:0;stroke:none;fill:rgba(51,51,51,1.0);font-size:20.8px;font-family:'Roboto Medium',sans-serif">0.00</text><path  d="M 38 998
L 1819 998" style="stroke-width:0;stroke:none;fill:none"/><path  d="M 38 998
L 1819 998" style="stroke-width:0;stroke:none;fill:none"/><path  d="M 38 998
L 1819 998" style="stroke-width:0;stroke:none;fill:none"/><path  d="M 38 998
L 1819 998" style="stroke-width:0;stroke:none;fill:none"/><path  d="M 38 998
L 1819 998" style="stroke-width:0;stroke:none;fill:none"/><path  d="M 38 998
L 1819 998" style="stroke-width:0;stroke:none;fill:none"/><path  d="M 38 998
L 1819 998" style="stroke-width:0;stroke:none;fill:none"/><path  d="M 38 998
L 1819 998" style="stroke-width:0;stroke:none;fill:none"/><path  d="M 38 998
L 1819 998" style="stroke-width:0;stroke:none;fill:none"/><path  d="M 38 998
L 1819 998" style="stroke-width:0;stroke:none;fill:none"/><path  d="M 38 998
L 1819 998" style="stroke-width:0;stroke:none;fill:none"/><path  d="M 38 998
L 1819 998" style="stroke-width:0;stroke:none;fill:none"/><path  d="M 38 998
L 1819 998" style="stroke-width:0;stroke:none;fill:none"/><path  d="M 38 998
L 1819 998" style="stroke-width:0;stroke:none;fill:none"/><path  d="M 38 998
L 1819 998" style="stroke-width:0;stroke:none;fill:none"/><path  d="M 38 998
L 1819 998" style="stroke-width:0;stroke:none;fill:none"/><path  d="M 38 998
L 1819 998" style="stroke-width:0;stroke:none;fill:none"/><path  d="M 38 998
L 1819 998" style="stroke-width:0;stroke:none;fill:none"/><path  d="M 38 998
L 1819 998" style="stroke-width:0;stroke:none;fill:none"/><path  d="M 38 998
L 1819 998" style="stroke-width:0;stroke:none;fill:none"/><path  d="M 38 998
L 1819 998" style="stroke-width:0;stroke:none;fill:none"/><path  d="M 38 998
L 1819 998" style="stroke-width:0;stroke:none;fill:none"/><path  d="M 38 408
L 154 408
L 154 604
L 38 604
L 38 408" style="stroke-width:0;stroke:none;fill:rgba(0,116,217,0.5)"/><path  d="M 38 408
L 154 408" style="stroke-width:1;stroke:rgba(0,116,217,0.5);fill:none"/><path  d="M 224 408
L 339 408
L 339 604
L 224 604
L 224 408" style="stroke-width:0;stroke:none;fill:rgba(0,116,217,0.5)"/><path  d="M 224 408
L 339 408" style="stroke-width:1;stroke:rgba(0,116,217,0.5);fill:none"/><path  d="M 409 408
L 524 408
L 524 604
L 409 604
L 409 408" style="stroke-width:0;stroke:none;fill:rgba(0,116,217,0.5)"/><path  d="M 409 408
L 524 408" style="stroke-width:1;stroke:rgba(0,116,217,0.5);fill:none"/><path  d="M 594 408
L 709 408
L 709 604
L 594 604
L 594 408" style="stroke-width:0;stroke:none;fill:rgba(0,116,217,0.5)"/><path  d="M 594 408
L 709 408" style="stroke-width:1;stroke:rgba(0,116,217,0.5);fill:none"/><path  d="M 779 408
L 894 408
L 894 604
L 779 604
L 779 408" style="stroke-width:0;stroke:none;fill:rgba(0,116,217,0.5)"/><path  d="M 779 408
L 894 408" style="stroke-width:1;stroke:rgba(0,116,217,0.5);fill:none"/><path  d="M 964 408
L 1079 408
L 1079 604
L 964 604
L 964 408" style="stroke-width:0;stroke:none;fill:rgba(0,217,101,0.5)"/><path  d="M 964 408
L 1079 408" style="stroke-width:1;stroke:rgba(0,217,101,0.5);fill:none"/><path  d="M 1149 408
L 1264 408
L 1264 604
L 1149 604
L 1149 408" style="stroke-width:0;stroke:none;fill:rgba(0,217,101,0.5)"/><path  d="M 1149 408
L 1264 408" style="stroke-width:1;stroke:rgba(0,217,101,0.5);fill:none"/><path  d="M 1334 408
L 1449 408
L 1449 604
L 1334 604
L 1334 408" style="stroke-width:0;stroke:none;fill:rgba(0,217,101,0.5)"/><path  d="M 1334 408
L 1449 408" style="stroke-width:1;stroke:rgba(0,217,101,0.5);fill:none"/><path  d="M 1183 211
L 1415 211
L 1415 604
L 1183 604
L 1183 211" style="stroke-width:0;stroke:none;fill:rgba(0,217,101,0.5)"/><path  d="M 1183 211
L 1415 211" style="stroke-width:1;stroke:rgba(0,217,101,0.5);fill:none"/><path  d="M 1519 211
L 1634 211
L 1634 604
L 1519 604
L 1519 211" style="stroke-width:0;stroke:none;fill:rgba(0,217,101,0.5)"/><path  d="M 1519 211
L 1634 211" style="stroke-width:1;stroke:rgba(0,217,101,0.5);fill:none"/><path  d="M 38 801
L 154 801
L 154 604
L 38 604
L 38 801" style="stroke-width:0;stroke:none;fill:rgba(0,217,210,0.5)"/><path  d="M 38 801
L 154 801" style="stroke-width:1;stroke:rgba(0,217,210,0.5);fill:none"/><path  d="M 224 801
L 339 801
L 339 604
L 224 604
L 224 801" style="stroke-width:0;stroke:none;fill:rgba(0,217,210,0.5)"/><path  d="M 224 801
L 339 801" style="stroke-width:1;stroke:rgba(0,217,210,0.5);fill:none"/><path  d="M 409 801
L 524 801
L 524 604
L 409 604
L 409 801" style="stroke-width:0;stroke:none;fill:rgba(0,217,210,0.5)"/><path  d="M 409 801
L 524 801" style="stroke-width:1;stroke:rgba(0,217,210,0.5);fill:none"/><path  d="M 594 801
L 709 801
L 709 604
L 594 604
L 594 801" style="stroke-width:0;stroke:none;fill:rgba(0,217,210,0.5)"/><path  d="M 594 801
L 709 801" style="stroke-width:1;stroke:rgba(0,217,210,0.5);fill:none"/><path  d="M 779 801
L 894 801
L 894 604
L 779 604
L 779 801" style="stroke-width:0;stroke:none;fill:rgba(0,217,210,0.5)"/><path  d="M 779 801
L 894 801" style="stroke-width:1;stroke:rgba(0,217,210,0.5);fill:none"/><path  d="M 964 801
L 1079 801
L 1079 604
L 964 604
L 964 801" style="stroke-width:0;stroke:none;fill:rgba(0,217,210,0.5)"/><path  d="M 964 801
L 1079 801" style="stroke-width:1;stroke:rgba(0,217,210,0.5);fill:none"/><path  d="M 1149 801
L 1264 801
L 1264 604
L 1149 604
L 1149 801" style="stroke-width:0;stroke:none;fill:rgba(0,217,210,0.5)"/><path  d="M 1149 801
L 1264 801" style="stroke-width:1;stroke:rgba(0,217,210,0.5);fill:none"/><path  d="M 1334 801
L 1449 801
L 1449 604
L 1334 604
L 1334 801" style="stroke-width:0;stroke:none;fill:rgba(0,217,210,0.5)"/><path  d="M 1334 801
L 1449 801" style="stroke-width:1;stroke:rgba(0,217,210,0.5);fill:none"/><path  d="M 38 604
L 894 604" style="stroke-width:10;stroke:rgba(0,116,217,0.5);fill:none"/><path  d="M 964 604
L 1819 604" style="stroke-width:10;stroke:rgba(0,217,101,0.5);fill:none"/><path  d="M 96 408
L 106 393
L 170 393
L 170 423
L 106 423
L 96 408
Z" style="stroke-width:1;stroke:rgba(0,116,217,1.0);fill:rgba(255,255,255,1.0)"/><text x="111" y="418" style="stroke-width:0;stroke:none;fill:rgba(51,51,51,1.0);font-size:20.8px;font-family:'Roboto Medium',sans-serif">923.2</text><path  d="M 281 408
L 291 393
L 355 393
L 355 423
L 291 423
L 281 408
Z" style="stroke-width:1;stroke:rgba(0,116,217,1.0);fill:rgba(255,255,255,1.0)"/><text x="296" y="418" style="stroke-width:0;stroke:none;fill:rgba(51,51,51,1.0);font-size:20.8px;font-family:'Roboto Medium',sans-serif">923.4</text><path  d="M 466 408
L 476 393
L 540 393
L 540 423
L 476 423
L 466 408
Z" style="stroke-width:1;stroke:rgba(0,116,217,1.0);fill:rgba(255,255,255,1.0)"/><text x="481" y="418" style="stroke-width:0;stroke:none;fill:rgba(51,51,51,1.0);font-size:20.8px;font-family:'Roboto Medium',sans-serif">923.6</text><path  d="M 651 408
L 661 393
L 725 393
L 725 423
L 661 423
L 651 408
Z" style="stroke-width:1;stroke:rgba(0,116,217,1.0);fill:rgba(255,255,255,1.0)"/><text x="666" y="418" style="stroke-width:0;stroke:none;fill:rgba(51,51,51,1.0);font-size:20.8px;font-family:'Roboto Medium',sans-serif">923.8</text><path  d="M 836 408
L 846 393
L 892 393
L 892 423
L 846 423
L 836 408
Z" style="stroke-width:1;stroke:rgba(0,116,217,1.0);fill:rgba(255,255,255,1.0)"/><text x="851" y="418" style="stroke-width:0;stroke:none;fill:rgba(51,51,51,1.0);font-size:20.8px;font-family:'Roboto Medium',sans-serif">924</text><path  d="M 1022 408
L 1032 393
L 1096 393
L 1096 423
L 1032 423
L 1022 408
Z" style="stroke-width:1;stroke:rgba(0,116,217,1.0);fill:rgba(255,255,255,1.0)"/><text x="1037" y="418" style="stroke-width:0;stroke:none;fill:rgba(51,51,51,1.0);font-size:20.8px;font-family:'Roboto Medium',sans-serif">924.2</text><path  d="M 1207 408
L 1217 393
L 1281 393
L 1281 423
L 1217 423
L 1207 408
Z" style="stroke-width:1;stroke:rgba(0,116,217,1.0);fill:rgba(255,255,255,1.0)"/><text x="1222" y="418" style="stroke-width:0;stroke:none;fill:rgba(51,51,51,1.0);font-size:20.8px;font-family:'Roboto Medium',sans-serif">924.4</text><path  d="M 1392 408
L 1402 393
L 1466 393
L 1466 423
L 1402 423
L 1392 408
Z" style="stroke-width:1;stroke:rgba(0,116,217,1.0);fill:rgba(255,255,255,1.0)"/><text x="1407" y="418" style="stroke-width:0;stroke:none;fill:rgba(51,51,51,1.0);font-size:20.8px;font-family:'Roboto Medium',sans-serif">924.6</text><path  d="M 1299 211
L 1309 196
L 1424 196
L 1424 226
L 1309 226
L 1299 211
Z" style="stroke-width:1;stroke:rgba(0,116,217,1.0);fill:rgba(255,255,255,1.0)"/><text x="1314" y="221" style="stroke-width:0;stroke:none;fill:rgba(51,51,51,1.0);font-size:20.8px;font-family:'Roboto Medium',sans-serif">924.5 (Std)</text><path  d="M 1577 211
L 1587 196
L 1708 196
L 1708 226
L 1587 226
L 1577 211
Z" style="stroke-width:1;stroke:rgba(0,116,217,1.0);fill:rgba(255,255,255,1.0)"/><text x="1592" y="221" style="stroke-width:0;stroke:none;fill:rgba(51,51,51,1.0);font-size:20.8px;font-family:'Roboto Medium',sans-serif">924.8 (FSK)</text><path  d="M 96 801
L 106 786
L 170 786
L 170 816
L 106 816
L 96 801
Z" style="stroke-width:1;stroke:rgba(0,116,217,1.0);fill:rgba(255,255,255,1.0)"/><text x="111" y="811" style="stroke-width:0;stroke:none;fill:rgba(51,51,51,1.0);font-size:20.8px;font-family:'Roboto Medium',sans-serif">923.2</text><path  d="M 281 801
L 291 786
L 355 786
L 355 816
L 291 816
L 281 801
Z" style="stroke-width:1;stroke:rgba(0,116,217,1.0);fill:rgba(255,255,255,1.0)"/><text x="296" y="811" style="stroke-width:0;stroke:none;fill:rgba(51,51,51,1.0);font-size:20.8px;font-family:'Roboto Medium',sans-serif">923.4</text><path  d="M 466 801
L 476 786
L 540 786
L 540 816
L 476 816
L 466 801
Z" style="stroke-width:1;stroke:rgba(0,116,217,1.0);fill:rgba(255,255,255,1.0)"/><text x="481" y="811" style="stroke-width:0;stroke:none;fill:rgba(51,51,51,1.0);font-size:20.8px;font-family:'Roboto Medium',sans-serif">923.6</text><path  d="M 651 801
L 661 786
L 725 786
L 725 816
L 661 816
L 651 801
Z" style="stroke-width:1;stroke:rgba(0,116,217,1.0);fill:rgba(255,255,255,1.0)"/><text x="666" y="811" style="stroke-width:0;stroke:none;fill:rgba(51,51,51,1.0);font-size:20.8px;font-family:'Roboto Medium',sans-serif">923.8</text><path  d="M 836 801
L 846 786
L 892 786
L 892 816
L 846 816
L 836 801
Z" style="stroke-width:1;stroke:rgba(0,116,217,1.0);fill:rgba(255,255,255,1.0)"/><text x="851" y="811" style="stroke-width:0;stroke:none;fill:rgba(51,51,51,1.0);font-size:20.8px;font-family:'Roboto Medium',sans-serif">924</text><path  d="M 1022 801
L 1032 786
L 1096 786
L 1096 816
L 1032 816
L 1022 801
Z" style="stroke-width:1;stroke:rgba(0,116,217,1.0);fill:rgba(255,255,255,1.0)"/><text x="1037" y="811" style="stroke-width:0;stroke:none;fill:rgba(51,51,51,1.0);font-size:20.8px;font-family:'Roboto Medium',sans-serif">924.2</text><path  d="M 1207 801
L 1217 786
L 1281 786
L 1281 816
L 1217 816
L 1207 801
Z" style="stroke-width:1;stroke:rgba(0,116,217,1.0);fill:rgba(255,255,255,1.0)"/><text x="1222" y="811" style="stroke-width:0;stroke:none;fill:rgba(51,51,51,1.0);font-size:20.8px;font-family:'Roboto Medium',sans-serif">924.4</text><path  d="M 1392 801
L 1402 786
L 1466 786
L 1466 816
L 1402 816
L 1392 801
Z" style="stroke-width:1;stroke:rgba(0,116,217,1.0);fill:rgba(255,255,255,1.0)"/><text x="1407" y="811" style="stroke-width:0;stroke:none;fill:rgba(51,51,51,1.0);font-size:20.8px;font-family:'Roboto Medium',sans-serif">924.6</text><path  d="M 466 604
L 476 589
L 621 589
L 621 619
L 476 619
L 466 604
Z" style="stroke-width:1;stroke:rgba(0,116,217,1.0);fill:rgba(255,255,255,1.0)"/><text x="481" y="614" style="stroke-width:0;stroke:none;fill:rgba(51,51,51,1.0);font-size:20.8px;font-family:'Roboto Medium',sans-serif">Radio 0: 923.6</text><path  d="M 1392 604
L 1402 589
L 1547 589
L 1547 619
L 1402 619
L 1392 604
Z" style="stroke-width:1;stroke:rgba(0,116,217,1.0);fill:rgba(255,255,255,1.0)"/><text x="1407" y="614" style="stroke-width:0;stroke:none;fill:rgba(51,51,51,1.0);font-size:20.8px;font-family:'Roboto Medium',sans-serif">Radio 1: 924.6</text><text x="855" y="47" style="stroke-width:0;stroke:none;fill:rgba(51,51,51,1.0);font-size:37.5px;font-family:'Roboto Medium',sans-serif">AS_923_925</text></svg>