<svg xmlns="http://www.w3.org/2000/svg" xmlns:xlink="http://www.w3.org/1999/xlink" width="1920" height="1080">\n<path  d="M 0 0
L 1920 0
L 1920 1080
L 0 1080
L 0 0" style="stroke-width:0;stroke:rgba(255,255,255,1.0);fill:rgba(255,255,255,1.0)"/><path  d="M 38 15
L 1819 15
L 1819 998
L 38 998
L 38 15" style="stroke-width:0;stroke:rgba(255,255,255,1.0);fill:rgba(255,255,255,1.0)"/><path  d="M 38 998
L 1819 998" style="stroke-width:1;stroke:rgba(51,51,51,1.0);fill:none"/><path  d="M 38 998
L 38 1003" style="stroke-width:1;stroke:rgba(51,51,51,1.0);fill:none"/><text x="38" y="1018" style="stroke-width:0;stroke:none;fill:rgba(51,51,51,1.0);font-size:20.8px;font-family:'Roboto Medium',sans-serif" transform="rotate(45.00,38,1018)">920.438</text><path  d="M 131 998
L 131 1003" style="stroke-width:1;stroke:rgba(51,51,51,1.0);fill:none"/><text x="131" y="1018" style="stroke-width:0;stroke:none;fill:rgba(51,51,51,1.0);font-size:20.8px;font-family:'Roboto Medium',sans-serif" transform="rotate(45.00,131,1018)">920.6</text><path  d="M 245 998
L 245 1003" style="stroke-width:1;stroke:rgba(51,51,51,1.0);fill:none"/><text x="245" y="1018" style="stroke-width:0;stroke:none;fill:rgba(51,51,51,1.0);font-size:20.8px;font-family:'Roboto Medium',sans-serif" transform="rotate(45.00,245,1018)">920.8</text><path  d="M 302 998
L 302 1003" style="stroke-width:1;stroke:rgba(51,51,51,1.0);fill:none"/><text x="302" y="1018" style="stroke-width:0;stroke:none;fill:rgba(51,51,51,1.0);font-size:20.8px;font-family:'Roboto Medium',sans-serif" transform="rotate(45.00,302,1018)">920.9</text><path  d="M 359 998
L 359 1003" style="stroke-width:1;stroke:rgba(51,51,51,1.0);fill:none"/><text x="359" y="1018" style="stroke-width:0;stroke:none;fill:rgba(51,51,51,1.0);font-size:20.8px;font-family:'Roboto Medium',sans-serif" transform="rotate(45.00,359,1018)">921</text><path  d="M 473 998
L 473 1003" style="stroke-width:1;stroke:rgba(51,51,51,1.0);fill:none"/><text x="473" y="1018" style="stroke-width:0;stroke:none;fill:rgba(51,51,51,1.0);font-size:20.8px;font-family:'Roboto Medium',sans-serif" transform="rotate(45.00,473,1018)">921.2</text><path  d="M 566 998
L 566 1003" style="stroke-width:1;stroke:rgba(51,51,51,1.0);fill:none"/><text x="566" y="1018" style="stroke-width:0;stroke:none;fill:rgba(51,51,51,1.0);font-size:20.8px;font-family:'Roboto Medium',sans-serif" transform="rotate(45.00,566,1018)">921.362</text><path  d="M 986 998
L 986 1003" style="stroke-width:1;stroke:rgba(51,51,51,1.0);fill:none"/><text x="986" y="1018" style="stroke-width:0;stroke:none;fill:rgba(51,51,51,1.0);font-size:20.8px;font-family:'Roboto Medium',sans-serif" transform="rotate(45.00,986,1018)">922.1</text><path  d="M 1292 998
L 1292 1003" style="stroke-width:1;stroke:rgba(51,51,51,1.0);fill:none"/><text x="1292" y="1018" style="stroke-width:0;stroke:none;fill:rgba(51,51,51,1.0);font-size:20.8px;font-family:'Roboto Medium',sans-serif" transform="rotate(45.00,1292,1018)">922.638</text><path  d="M 1328 998
L 1328 1003" style="stroke-width:1;stroke:rgba(51,51,51,1.0);fill:none"/><text x="1328" y="1018" style="stroke-width:0;stroke:none;fill:rgba(51,51,51,1.0);font-size:20.8px;font-family:'Roboto Medium',sans-serif" transform="rotate(45.00,1328,1018)">922.7</text><path  d="M 1385 998
L 1385 1003" style="stroke-width:1;stroke:rgba(51,51,51,1.0);fill:none"/><text x="1385" y="1018" style="stroke-width:0;stroke:none;fill:rgba(51,51,51,1.0);font-size:20.8px;font-family:'Roboto Medium',sans-serif" transform="rotate(45.00,1385,1018)">922.8</text><path  d="M 1499 998
L 1499 1003" style="stroke-width:1;stroke:rgba(51,51,51,1.0);fill:none"/><text x="1499" y="1018" style="stroke-width:0;stroke:none;fill:rgba(51,51,51,1.0);font-size:20.8px;font-family:'Roboto Medium',sans-serif" transform="rotate(45.00,1499,1018)">923</text><path  d="M 1556 998
L 1556 1003" style="stroke-width:1;stroke:rgba(51,51,51,1.0);fill:none"/><text x="1556" y="1018" style="stroke-width:0;stroke:none;fill:rgba(51,51,51,1.0);font-size:20.8px;font-family:'Roboto Medium',sans-serif" transform="rotate(45.00,1556,1018)">923.1</text><path  d="M 1613 998
L 1613 1003" style="stroke-width:1;stroke:rgba(51,51,51,1.0);fill:none"/><text x="1613" y="1018" style="stroke-width:0;stroke:none;fill:rgba(51,51,51,1.0);font-size:20.8px;font-family:'Roboto Medium',sans-serif" transform="rotate(45.00,1613,1018)">923.2</text><path  d="M 1727 998
L 1727 1003" style="stroke-width:1;stroke:rgba(51,51,51,1.0);fill:none"/><text x="1727" y="1018" style="stroke-width:0;stroke:none;fill:rgba(51,51,51,1.0);font-size:20.8px;font-family:'Roboto Medium',sans-serif" transform="rotate(45.00,1727,1018)">923.4</text><path  d="M 1819 998
L 1819 1003" style="stroke-width:1;stroke:rgba(51,51,51,1.0);fill:none"/><text x="1819" y="1018" style="stroke-width:0;stroke:none;fill:rgba(51,51,51,1.0);font-size:20.8px;font-family:'Roboto Medium',sans-serif" transform="rotate(45.00,1819,1018)">923.562</text><path  d="M 131 998
L 131 15" style="stroke-width:0;stroke:none;fill:none"/><path  d="M 245 998
L 245 15" style="stroke-width:0;stroke:none;fill:none"/><path  d="M 302 998
L 302 15" style="stroke-width:0;stroke:none;fill:none"/><path  d="M 359 998
L 359 15" style="stroke-width:0;stroke:none;fill:none"/><path  d="M 473 998
L 473 15" style="stroke-width:0;stroke:none;fill:none"/><path  d="M 566 998
L 566 15" style="stroke-width:0;stroke:none;fill:none"/><path  d="M 986 998
L 986 15" style="stroke-width:0;stroke:none;fill:none"/><path  d="M 1292 998
L 1292 15" style="stroke-width:0;stroke:none;fill:none"/><path  d="M 1328 998
L 1328 15" style="stroke-width:0;stroke:none;fill:none"/><path  d="M 1385 998
L 1385 15" style="stroke-width:0;stroke:none;fill:none"/><path  d="M 1499 998
L 1499 15" style="stroke-width:0;stroke:none;fill:none"/><path  d="M 1556 998
L 1556 15" style="stroke-width:0;stroke:none;fill:none"/><path  d="M 1613 998
L 1613 15" style="stroke-width:0;stroke:none;fill:none"/><path  d="M 1727 998
L 1727 15" style="stroke-width:0;stroke:none;fill:none"/><path  d="M 1820 998
L 1820 15" style="stroke-width:1;stroke:rgba(51,51,51,1.0);fill:none"/><path  d="M 1820 998
L 1825 998" style="stroke-width:1;stroke:rgba(51,51,51,1.0);fill:none"/><text x="1830" y="1008" style="stroke-width:0;stroke:none;fill:rgba(51,51,51,1.0);font-size:20.8px;font-family:'Roboto Medium',sans-serif"></text><path  d="M 1820 801
L 1825 801" style="stroke-width:1;stroke:rgba(51,51,51,1.0);fill:none"/><text x="1830" y="811" style="stroke-width:0;stroke:none;fill:rgba(51,51,51,1.0);font-size:20.8px;font-family:'Roboto Medium',sans-serif">Downlink</text><path  d="M 1820 604
L 1825 604" style="stroke-width:1;stroke:rgba(51,51,51,1.0);fill:none"/><text x="1830" y="614" style="stroke-width:0;stroke:none;fill:rgba(51,51,51,1.0);font-size:20.8px;font-family:'Roboto Medium',sans-serif">Radio</text><path  d="M 1820 408
L 1825 408" style="stroke-width:1;stroke:rgba(51,51,51,1.0);fill:none"/><text x="1830" y="418" style="stroke-width:0;stroke:none;fill:rgba(51,51,51,1.0);font-size:20.8px;font-family:'Roboto Medium',sans-serif">Uplink</text><path  d="M 1820 211
L 1825 211" style="stroke-width:1;stroke:rgba(51,51,51,1.0);fill:none"/><text x="1830" y="221" style="stroke-width:0;stroke:none;fill:rgba(51,51,51,1.0);font-size:20.8px;font-family:'Roboto Medium',sans-serif">Std/FSK</text><path  d="M 1820 15
L 1825 15" style="stroke-width:1;stroke:rgba(51,51,51,1.0);fill:none"/><text x="1830" y="25" style="stroke-width:0;stroke:none;fill:rgba(51,51,51,1.0);font-size:20.8px;font-family:'Roboto Medium',sans-serif"></text><path  d="M 38 604
L 1819 604" style="stroke-width:0;stroke:none;fill:none"/><path  d="M 38 801
L 1819 801" style="stroke-width:0;stroke:none;fill:none"/><path  d="M 38 604
L 1819 604" style="stroke-width:0;stroke:none;fill:none"/><path  d="M 38 408
L 1819 408" style="stroke-width:0;stroke:none;fill:none"/><path  d="M 38 211
L 1819 211" style="stroke-width:0;stroke:none;fill:none"/><path  d="M 37 998
L 37 15" style="stroke-width:1;stroke:rgba(51,51,51,1.0);fill:none"/><path  d="M 37 998
L 32 998" style="stroke-width:1;stroke:rgba(51,51,51,1.0);fill:none"/><text x="-15" y="1008" style="stroke-width:0;stroke:none;fill:rgba(51,51,51,1.0);font-size:20.8px;font-family:'Roboto Medium',sans-serif">0.00</text><path  d="M 37 998
L 32 998" style="stroke-width:1;stroke:rgba(51,51,51,1.0);fill:none"/><text x="-15" y="1008" style="stroke-width:0;stroke:none;fill:rgba(51,51,51,1.0);font-size:20.8px;font-family:'Roboto Medium',sans-serif">0.00</text><path  d="M 37 998
L 32 998" style="stroke-width:1;stroke:rgba(51,51,51,1.0);fill:none"/><text x="-15" y="1008" style="stroke-width:0;stroke:none;fill:rgba(51,51,51,1.0);font-size:20.8px;font-family:'Roboto Medium',sans-serif">0.00</text><path  d="M 37 998
L 32 998" style="stroke-width:1;stroke:rgba(51,51,51,1.0);fill:none"/><text x="-15" y="1008" style="stroke-width:0;stroke:none;fill:rgba(51,51,51,1.0);font-size:20.8px;font-family:'Roboto Medium',sans-serif">0.00</text><path  d="M 37 998
L 32 998" style="stroke-width:1;stroke:rgba(51,51,51,1.0);fill:none"/><text x="-15" y="1008" style="stroke-width:0;stroke:none;fill:rgba(51,51,51,1.0);font-size:20.8px;font-family:'Roboto Medium',sans-serif">0.00</text><path  d="M 37 998
L 32 998" style="stroke-width:1;stroke:rgba(51,51,51,1.0);fill:none"/><text x="-15" y="1008" style="stroke-width:0;stroke:none;fill:rgba(51,51,51,1.0);font-size:20.8px;font-family:'Roboto Medium',sans-serif">0.00</text><path  d="M 37 998
L 32 998" style="stroke-width:1;stroke:rgba(51,51,51,1.0);fill:none"/><text x="-15" y="1008" style="stroke-width:0;stroke:none;fill:rgba(51,51,51,1.0);font-size:20.8px;font-family:'Roboto Medium',sans-serif">0.00</text><path  d="M 37 998
L 32 998" style="stroke-width:1;stroke:rgba(51,51,51,1.0);fill:none"/><text x="-15" y="1008" style="stroke-width:0;stroke:none;fill:rgba(51,51,51,1.0);font-size:20.8px;font-family:'Roboto Medium',sans-serif">0.00</text><path  d="M 37 998
L 32 998" style="stroke-width:1;stroke:rgba(51,51,51,1.0);fill:none"/><text x="-15" y="1008" style="stroke-width:0;stroke:none;fill:rgba(51,51,51,1.0);font-size:20.8px;font-family:'Roboto Medium',sans-serif">0.00</text><path  d="M 37 998
L 32 998" style="stroke-width:1;stroke:rgba(51,51,51,1.0);fill:none"/><text x="-15" y="1008" style="stroke-width:0;stroke:none;fill:rgba(51,51,51,1.0);font-size:20.8px;font-family:'Roboto Medium',sans-serif">0.00</text><path  d="M 37 998
L 32 998" style="stroke-width:1;stroke:rgba(51,51,51,1.0);fill:none"/><text x="-15" y="1008" style="stroke-width:0;stroke:none;fill:rgba(51,51,51,1.0);font-size:20.8px;font-family:'Roboto Medium',sans-serif">0.00</text><path  d="M 37 998
L 32 998" style="stroke-width:1;stroke:rgba(51,51,51,1.0);fill:none"/><text x="-15" y="1008" style="stroke-width:0;stroke:none;fill:rgba(51,51,51,1.0);font-size:20.8px;font-family:'Roboto Medium',sans-serif">0.00</text><path  d="M 37 998
L 32 998" style="stroke-width:1;stroke:rgba(51,51,51,1.0);fill:none"/><text x="-15" y="1008" style="stroke-width:0;stroke:none;fill:rgba(51,51,51,1.0);font-size:20.8px;font-family:'Roboto Medium',sans-serif">0.00</text><path  d="M 37 998
L 32 998" style="stroke-width:1;stroke:rgba(51,51,51,1.0);fill:none"/><text x="-15" y="1008" style="stroke-width:0;stroke:none;fill:rgba(51,51,51,1.0);font-size:20.8px;font-family:'Roboto Medium',sans-serif">0.00</text><path  d="M 37 998
L 32 998" style="stroke-width:1;stroke:rgba(51,51,51,1.0);fill:none"/><text x="-15" y="1008" style="stroke-width:0;stroke:none;fill:rgba(51,51,51,1.0);font-size:20.8px;font-family:'Roboto Medium',sans-serif">0.00</text><path  d="M 37 998
L 32 998" style="stroke-width:1;stroke:rgba(51,51,51,1.0);fill:none"/><text x="-15" y="1008" style="stroke-width:0;stroke:none;fill:rgba(51,51,51,1.0);font-size:20.8px;font-family:'Roboto Medium',sans-serif">0.00</text><path  d="M 37 998
L 32 998" style="stroke-width:1;stroke:rgba(51,51,51,1.0);fill:none"/><text x="-15" y="1008" style="stroke-width:0;stroke:none;fill:rgba(51,51,51,1.0);font-size:20.8px;font-family:'Roboto Medium',sans-serif">0.00</text><path  d="M 37 998
L 32 998" style="stroke-width:1;stroke:rgba(51,51,51,1.0);fill:none"/><text x="-15" y="1008" style="stroke-width:0;stroke:none;fill:rgba(51,51,51,1.0);font-size:20.8px;font-family:'Roboto Medium',sans-serif">0.00</text><path  d="M 37 998
L 32 998" style="stroke-width:1;stroke:rgba(51,51,51,1.0);fill:none"/><text x="-15" y="1008" style="stroke-width:0;stroke:none;fill:rgba(51,51,51,1.0);font-size:20.8px;font-family:'Roboto Medium',sans-serif">0.00</text><path  d="M 37 998
L 32 998" style="stroke-width:1;stroke:rgba(51,51,51,1.0);fill:none"/><text x="-15" y="1008" style="stroke-width:0;stroke:none;fill:rgba(51,51,51,1.0);font-size:20.8px;font-family:'Roboto Medium',sans-serif">0.00</text><path  d="M 37 998
L 32 998" style="stroke-width:1;stroke:rgba(51,51,51,1.0);fill:none"/><text x="-15" y="1008" style="stroke-width:0;stroke:none;fill:rgba(51,51,51,1.0);font-size:20.8px;font-family:'Roboto Medium',sans-serif">0.00</text><path  d="M 37 998
L 32 998" style="stroke-width:1;stroke:rgba(51,51,51,1.0);fill:none"/><text x="-15" y="1008" style="stroke-width:0;stroke:none;fill:rgba(51,51,51,1.0);font-size:20.8px;font-family:'Roboto Medium',sans-serif">0.00</text><path  d="M 37 998
L 32 998" style="stroke-width:1;stroke:rgba(51,51,51,1.0);fill:none"/><text x="-15" y="1008" style="stroke-width:0;stroke:none;fill:rgba(51,51,51,1.0);font-size:20.8px;font-family:'Roboto Medium',sans-serif">0.00</text><path  d="M 38 998
L 1819 998" style="stroke-width:0;stroke:none;fill:none"/><path  d="M 38 998
L 1819 998" style="stroke-width:0;stroke:none;fill:none"/><path  d="M 38 998
L 1819 998" style="stroke-width:0;stroke:none;fill:none"/><path  d="M 38 998
L 1819 998" style="stroke-width:0;stroke:none;fill:none"/><path  d="M 38 998
L 1819 998" style="stroke-width:0;stroke:none;fill:none"/><path  d="M 38 998
L 1819 998" style="stroke-width:0;stroke:none;fill:none"/><path  d="M 38 998
L 1819 998" style="stroke-width:0;stroke:none;fill:none"/><path  d="M 38 998
L 1819 998" style="stroke-width:0;stroke:none;fill:none"/><path  d="M 38 998
L 1819 998" style="stroke-width:0;stroke:none;fill:none"/><path  d="M 38 998
L 1819 998" style="stroke-width:0;stroke:none;fill:none"/><path  d="M 38 998
L 1819 998" style="stroke-width:0;stroke:none;fill:none"/><path  d="M 38 998
L 1819 998" style="stroke-width:0;stroke:none;fill:none"/><path  d="M 38 998
L 1819 998" style="stroke-width:0;stroke:none;fill:none"/><path  d="M 38 998
L 1819 998" style="stroke-width:0;stroke:none;fill:none"/><path  d="M 38 998
L 1819 998" style="stroke-width:0;stroke:none;fill:none"/><path  d="M 38 998
L 1819 998" style="stroke-width:0;stroke:none;fill:none"/><path  d="M 38 998
L 1819 998" style="stroke-width:0;stroke:none;fill:none"/><path  d="M 38 998
L 1819 998" style="stroke-width:0;stroke:none;fill:none"/><path  d="M 38 998
L 1819 998" style="stroke-width:0;stroke:none;fill:none"/><path  d="M 38 998
L 1819 998" style="stroke-width:0;stroke:none;fill:none"/><path  d="M 38 998
L 1819 998" style="stroke-width:0;stroke:none;fill:none"/><path  d="M 38 998
L 1819 998" style="stroke-width:0;stroke:none;fill:none"/><path  d="M 1577 408
L 1649 408
L 1649 604
L 1577 604
L 1577 408" style="stroke-width:0;stroke:none;fill:rgba(0,217,101,0.5)"/><path  d="M 1577 408
L 1649 408" style="stroke-width:1;stroke:rgba(0,217,101,0.5);fill:none"/><path  d="M 1691 408
L 1763 408
L 1763 604
L 1691 604
L 1691 408" style="stroke-width:0;stroke:none;fill:rgba(0,217,101,0.5)"/><path  d="M 1691 408
L 1763 408" style="stroke-width:1;stroke:rgba(0,217,101,0.5);fill:none"/><path  d="M 1349 408
L 1421 408
L 1421 604
L 1349 604
L 1349 408" style="stroke-width:0;stroke:none;fill:rgba(0,217,101,0.5)"/><path  d="M 1349 408
L 1421 408" style="stroke-width:1;stroke:rgba(0,217,101,0.5);fill:none"/><path  d="M 1463 408
L 1535 408
L 1535 604
L 1463 604
L 1463 408" style="stroke-width:0;stroke:none;fill:rgba(0,217,101,0.5)"/><path  d="M 1463 408
L 1535 408" style="stroke-width:1;stroke:rgba(0,217,101,0.5);fill:none"/><path  d="M 95 408
L 167 408
L 167 604
L 95 604
L 95 408" style="stroke-width:0;stroke:none;fill:rgba(0,116,217,0.5)"/><path  d="M 95 408
L 167 408" style="stroke-width:1;stroke:rgba(0,116,217,0.5);fill:none"/><path  d="M 209 408
L 281 408
L 281 604
L 209 604
L 209 408" style="stroke-width:0;stroke:none;fill:rgba(0,116,217,0.5)"/><path  d="M 209 408
L 281 408" style="stroke-width:1;stroke:rgba(0,116,217,0.5);fill:none"/><path  d="M 323 408
L 395 408
L 395 604
L 323 604
L 323 408" style="stroke-width:0;stroke:none;fill:rgba(0,116,217,0.5)"/><path  d="M 323 408
L 395 408" style="stroke-width:1;stroke:rgba(0,116,217,0.5);fill:none"/><path  d="M 437 408
L 509 408
L 509 604
L 437 604
L 437 408" style="stroke-width:0;stroke:none;fill:rgba(0,116,217,0.5)"/><path  d="M 437 408
L 509 408" style="stroke-width:1;stroke:rgba(0,116,217,0.5);fill:none"/><path  d="M 915 211
L 1057 211
L 1057 604
L 915 604
L 915 211" style="stroke-width:0;stroke:none;fill:rgba(0,217,101,0.5)"/><path  d="M 915 211
L 1057 211" style="stroke-width:1;stroke:rgba(0,217,101,0.5);fill:none"/><path  d="M 1292 211
L 1364 211
L 1364 604
L 1292 604
L 1292 211" style="stroke-width:0;stroke:none;fill:rgba(0,217,101,0.5)"/><path  d="M 1292 211
L 1364 211" style="stroke-width:1;stroke:rgba(0,217,101,0.5);fill:none"/><path  d="M 1577 801
L 1649 801
L 1649 604
L 1577 604
L 1577 801" style="stroke-width:0;stroke:none;fill:rgba(0,217,210,0.5)"/><path  d="M 1577 801
L 1649 801" style="stroke-width:1;stroke:rgba(0,217,210,0.5);fill:none"/><path  d="M 1691 801
L 1763 801
L 1763 604
L 1691 604
L 1691 801" style="stroke-width:0;stroke:none;fill:rgba(0,217,210,0.5)"/><path  d="M 1691 801
L 1763 801" style="stroke-width:1;stroke:rgba(0,217,210,0.5);fill:none"/><path  d="M 1349 801
L 1421 801
L 1421 604
L 1349 604
L 1349 801" style="stroke-width:0;stroke:none;fill:rgba(0,217,210,0.5)"/><path  d="M 1349 801
L 1421 801" style="stroke-width:1;stroke:rgba(0,217,210,0.5);fill:none"/><path  d="M 1463 801
L 1535 801
L 1535 604
L 1463 604
L 1463 801" style="stroke-width:0;stroke:none;fill:rgba(0,217,210,0.5)"/><path  d="M 1463 801
L 1535 801" style="stroke-width:1;stroke:rgba(0,217,210,0.5);fill:none"/><path  d="M 95 801
L 167 801
L 167 604
L 95 604
L 95 801" style="stroke-width:0;stroke:none;fill:rgba(0,217,210,0.5)"/><path  d="M 95 801
L 167 801" style="stroke-width:1;stroke:rgba(0,217,210,0.5);fill:none"/><path  d="M 209 801
L 281 801
L 281 604
L 209 604
L 209 801" style="stroke-width:0;stroke:none;fill:rgba(0,217,210,0.5)"/><path  d="M 209 801
L 281 801" style="stroke-width:1;stroke:rgba(0,217,210,0.5);fill:none"/><path  d="M 323 801
L 395 801
L 395 604
L 323 604
L 323 801" style="stroke-width:0;stroke:none;fill:rgba(0,217,210,0.5)"/><path  d="M 323 801
L 395 801" style="stroke-width:1;stroke:rgba(0,217,210,0.5);fill:none"/><path  d="M 437 801
L 509 801
L 509 604
L 437 604
L 437 801" style="stroke-width:0;stroke:none;fill:rgba(0,217,210,0.5)"/><path  d="M 437 801
L 509 801" style="stroke-width:1;stroke:rgba(0,217,210,0.5);fill:none"/><path  d="M 38 604
L 566 604" style="stroke-width:10;stroke:rgba(0,116,217,0.5);fill:none"/><path  d="M 1292 604
L 1819 604" style="stroke-width:10;stroke:rgba(0,217,101,0.5);fill:none"/><path  d="M 1613 408
L 1623 393
L 1687 393
L 1687 423
L 1623 423
L 1613 408
Z" style="stroke-width:1;stroke:rgba(0,116,217,1.0);fill:rgba(255,255,255,1.0)"/><text x="1628" y="418" style="stroke-width:0;stroke:none;fill:rgba(51,51,51,1.0);font-size:20.8px;font-family:'Roboto Medium',sans-serif">923.2</text><path  d="M 1727 408
L 1737 393
L 1801 393
L 1801 423
L 1737 423
L 1727 408
Z" style="stroke-width:1;stroke:rgba(0,116,217,1.0);fill:rgba(255,255,255,1.0)"/><text x="1742" y="418" style="stroke-width:0;stroke:none;fill:rgba(51,51,51,1.0);font-size:20.8px;font-family:'Roboto Medium',sans-serif">923.4</text><path  d="M 1385 408
L 1395 393
L 1459 393
L 1459 423
L 1395 423
L 1385 408
Z" style="stroke-width:1;stroke:rgba(0,116,217,1.0);fill:rgba(255,255,255,1.0)"/><text x="1400" y="418" style="stroke-width:0;stroke:none;fill:rgba(51,51,51,1.0);font-size:20.8px;font-family:'Roboto Medium',sans-serif">922.8</text><path  d="M 1499 408
L 1509 393
L 1555 393
L 1555 423
L 1509 423
L 1499 408
Z" style="stroke-width:1;stroke:rgba(0,116,217,1.0);fill:rgba(255,255,255,1.0)"/><text x="1514" y="418" style="stroke-width:0;stroke:none;fill:rgba(51,51,51,1.0);font-size:20.8px;font-family:'Roboto Medium',sans-serif">923</text><path  d="M 131 408
L 141 393
L 205 393
L 205 423
L 141 423
L 131 408
Z" style="stroke-width:1;stroke:rgba(0,116,217,1.0);fill:rgba(255,255,255,1.0)"/><text x="146" y="418" style="stroke-width:0;stroke:none;fill:rgba(51,51,51,1.0);font-size:20.8px;font-family:'Roboto Medium',sans-serif">920.6</text><path  d="M 245 408
L 255 393
L 319 393
L 319 423
L 255 423
L 245 408
Z" style="stroke-width:1;stroke:rgba(0,116,217,1.0);fill:rgba(255,255,255,1.0)"/><text x="260" y="418" style="stroke-width:0;stroke:none;fill:rgba(51,51,51,1.0);font-size:20.8px;font-family:'Roboto Medium',sans-serif">920.8</text><path  d="M 359 408
L 369 393
L 415 393
L 415 423
L 369 423
L 359 408
Z" style="stroke-width:1;stroke:rgba(0,116,217,1.0);fill:rgba(255,255,255,1.0)"/><text x="374" y="418" style="stroke-width:0;stroke:none;fill:rgba(51,51,51,1.0);font-size:20.8px;font-family:'Roboto Medium',sans-serif">921</text><path  d="M 473 408
L 483 393
L 547 393
L 547 423
L 483 423
L 473 408
Z" style="stroke-width:1;stroke:rgba(0,116,217,1.0);fill:rgba(255,255,255,1.0)"/><text x="488" y="418" style="stroke-width:0;stroke:none;fill:rgba(51,51,51,1.0);font-size:20.8px;font-family:'Roboto Medium',sans-serif">921.2</text><path  d="M 986 211
L 996 196
L 1111 196
L 1111 226
L 996 226
L 986 211
Z" style="stroke-width:1;stroke:rgba(0,116,217,1.0);fill:rgba(255,255,255,1.0)"/><text x="1001" y="221" style="stroke-width:0;stroke:none;fill:rgba(51,51,51,1.0);font-size:20.8px;font-family:'Roboto Medium',sans-serif">922.1 (Std)</text><path  d="M 1328 211
L 1338 196
L 1459 196
L 1459 226
L 1338 226
L 1328 211
Z" style="stroke-width:1;stroke:rgba(0,116,217,1.0);fill:rgba(255,255,255,1.0)"/><text x="1343" y="221" style="stroke-width:0;stroke:none;fill:rgba(51,51,51,1.0);font-size:20.8px;font-family:'Roboto Medium',sans-serif">922.7 (FSK)</text><path  d="M 1613 801
L 1623 786
L 1687 786
L 1687 816
L 1623 816
L 1613 801
Z" style="stroke-width:1;stroke:rgba(0,116,217,1.0);fill:rgba(255,255,255,1.0)"/><text x="1628" y="811" style="stroke-width:0;stroke:none;fill:rgba(51,51,51,1.0);font-size:20.8px;font-family:'Roboto Medium',sans-serif">923.2</text><path  d="M 1727 801
L 1737 786
L 1801 786
L 1801 816
L 1737 816
L 1727 801
Z" style="stroke-width:1;stroke:rgba(0,116,217,1.0);fill:rgba(255,255,255,1.0)"/><text x="1742" y="811" style="stroke-width:0;stroke:none;fill:rgba(51,51,51,1.0);font-size:20.8px;font-family:'Roboto Medium',sans-serif">923.4</text><path  d="M 1385 801
L 1395 786
L 1459 786
L 1459 816
L 1395 816
L 1385 801
Z" style="stroke-width:1;stroke:rgba(0,116,217,1.0);fill:rgba(255,255,255,1.0)"/><text x="1400" y="811" style="stroke-width:0;stroke:none;fill:rgba(51,51,51,1.0);font-size:20.8px;font-family:'Roboto Medium',sans-serif">922.8</text><path  d="M 1499 801
L 1509 786
L 1555 786
L 1555 816
L 1509 816
L 1499 801
Z" style="stroke-width:1;stroke:rgba(0,116,217,1.0);fill:rgba(255,255,255,1.0)"/><text x="1514" y="811" style="stroke-width:0;stroke:none;fill:rgba(51,51,51,1.0);font-size:20.8px;font-family:'Roboto Medium',sans-serif">923</text><path  d="M 131 801
L 141 786
L 205 786
L 205 816
L 141 816
L 131 801
Z" style="stroke-width:1;stroke:rgba(0,116,217,1.0);fill:rgba(255,255,255,1.0)"/><text x="146" y="811" style="stroke-width:0;stroke:none;fill:rgba(51,51,51,1.0);font-size:20.8px;font-family:'Roboto Medium',sans-serif">920.6</text><path  d="M 245 801
L 255 786
L 319 786
L 319 816
L 255 816
L 245 801
Z" style="stroke-width:1;stroke:rgba(0,116,217,1.0);fill:rgba(255,255,255,1.0)"/><text x="260" y="811" style="stroke-width:0;stroke:none;fill:rgba(51,51,51,1.0);font-size:20.8px;font-family:'Roboto Medium',sans-serif">920.8</text><path  d="M 359 801
L 369 786
L 415 786
L 415 816
L 369 816
L 359 801
Z" style="stroke-width:1;stroke:rgba(0,116,217,1.0);fill:rgba(255,255,255,1.0)"/><text x="374" y="811" style="stroke-width:0;stroke:none;fill:rgba(51,51,51,1.0);font-size:20.8px;font-family:'Roboto Medium',sans-serif">921</text><path  d="M 473 801
L 483 786
L 547 786
L 547 816
L 483 816
L 473 801
Z" style="stroke-width:1;stroke:rgba(0,116,217,1.0);fill:rgba(255,255,255,1.0)"/><text x="488" y="811" style="stroke-width:0;stroke:none;fill:rgba(51,51,51,1.0);font-size:20.8px;font-family:'Roboto Medium',sans-serif">921.2</text><path  d="M 302 604
L 312 589
L 457 589
L 457 619
L 312 619
L 302 604
Z" style="stroke-width:1;stroke:rgba(0,116,217,1.0);fill:rgba(255,255,255,1.0)"/><text x="317" y="614" style="stroke-width:0;stroke:none;fill:rgba(51,51,51,1.0);font-size:20.8px;font-family:'Roboto Medium',sans-serif">Radio 0: 920.9</text><path  d="M 1556 604
L 1566 589
L 1711 589
L 1711 619
L 1566 619
L 1556 604
Z" style="stroke-width:1;stroke:rgba(0,116,217,1.0);fill:rgba(255,255,255,1.0)"/><text x="1571" y="614" style="stroke-width:0;stroke:none;fill:rgba(51,51,51,1.0);font-size:20.8px;font-family:'Roboto Medium',sans-serif">Radio 1: 923.1</text><text x="761" y="47" style="stroke-width:0;stroke:none;fill:rgba(51,51,51,1.0);font-size:37.5px;font-family:'Roboto Medium',sans-serif">AS_920_923_TTN_JP_2</text></svg>