<svg xmlns="http://www.w3.org/2000/svg" xmlns:xlink="http://www.w3.org/1999/xlink" width="1920" height="1080">\n<path  d="M 0 0
L 1920 0
L 1920 1080
L 0 1080
L 0 0" style="stroke-width:0;stroke:rgba(255,255,255,1.0);fill:rgba(255,255,255,1.0)"/><path  d="M 31 15
L 1819 15
L 1819 998
L 31 998
L 31 15" style="stroke-width:0;stroke:rgba(255,255,255,1.0);fill:rgba(255,255,255,1.0)"/><path  d="M 31 998
L 1819 998" style="stroke-width:1;stroke:rgba(51,51,51,1.0);fill:none"/><path  d="M 31 998
L 31 1003" style="stroke-width:1;stroke:rgba(51,51,51,1.0);fill:none"/><text x="31" y="1018" style="stroke-width:0;stroke:none;fill:rgba(51,51,51,1.0);font-size:20.8px;font-family:'Roboto Medium',sans-serif" transform="rotate(45.00,31,1018)">921.8</text><path  d="M 234 998
L 234 1003" style="stroke-width:1;stroke:rgba(51,51,51,1.0);fill:none"/><text x="234" y="1018" style="stroke-width:0;stroke:none;fill:rgba(51,51,51,1.0);font-size:20.8px;font-family:'Roboto Medium',sans-serif" transform="rotate(45.00,234,1018)">922</text><path  d="M 272 998
L 272 1003" style="stroke-width:1;stroke:rgba(51,51,51,1.0);fill:none"/><text x="272" y="1018" style="stroke-width:0;stroke:none;fill:rgba(51,51,51,1.0);font-size:20.8px;font-family:'Roboto Medium',sans-serif" transform="rotate(45.00,272,1018)">922.038</text><path  d="M 336 998
L 336 1003" style="stroke-width:1;stroke:rgba(51,51,51,1.0);fill:none"/><text x="336" y="1018" style="stroke-width:0;stroke:none;fill:rgba(51,51,51,1.0);font-size:20.8px;font-family:'Roboto Medium',sans-serif" transform="rotate(45.00,336,1018)">922.1</text><path  d="M 437 998
L 437 1003" style="stroke-width:1;stroke:rgba(51,51,51,1.0);fill:none"/><text x="437" y="1018" style="stroke-width:0;stroke:none;fill:rgba(51,51,51,1.0);font-size:20.8px;font-family:'Roboto Medium',sans-serif" transform="rotate(45.00,437,1018)">922.2</text><path  d="M 640 998
L 640 1003" style="stroke-width:1;stroke:rgba(51,51,51,1.0);fill:none"/><text x="640" y="1018" style="stroke-width:0;stroke:none;fill:rgba(51,51,51,1.0);font-size:20.8px;font-family:'Roboto Medium',sans-serif" transform="rotate(45.00,640,1018)">922.4</text><path  d="M 742 998
L 742 1003" style="stroke-width:1;stroke:rgba(51,51,51,1.0);fill:none"/><text x="742" y="1018" style="stroke-width:0;stroke:none;fill:rgba(51,51,51,1.0);font-size:20.8px;font-family:'Roboto Medium',sans-serif" transform="rotate(45.00,742,1018)">922.5</text><path  d="M 843 998
L 843 1003" style="stroke-width:1;stroke:rgba(51,51,51,1.0);fill:none"/><text x="843" y="1018" style="stroke-width:0;stroke:none;fill:rgba(51,51,51,1.0);font-size:20.8px;font-family:'Roboto Medium',sans-serif" transform="rotate(45.00,843,1018)">922.6</text><path  d="M 881 998
L 881 1003" style="stroke-width:1;stroke:rgba(51,51,51,1.0);fill:none"/><text x="881" y="1018" style="stroke-width:0;stroke:none;fill:rgba(51,51,51,1.0);font-size:20.8px;font-family:'Roboto Medium',sans-serif" transform="rotate(45.00,881,1018)">922.638</text><path  d="M 1046 998
L 1046 1003" style="stroke-width:1;stroke:rgba(51,51,51,1.0);fill:none"/><text x="1046" y="1018" style="stroke-width:0;stroke:none;fill:rgba(51,51,51,1.0);font-size:20.8px;font-family:'Roboto Medium',sans-serif" transform="rotate(45.00,1046,1018)">922.8</text><path  d="M 1211 998
L 1211 1003" style="stroke-width:1;stroke:rgba(51,51,51,1.0);fill:none"/><text x="1211" y="1018" style="stroke-width:0;stroke:none;fill:rgba(51,51,51,1.0);font-size:20.8px;font-family:'Roboto Medium',sans-serif" transform="rotate(45.00,1211,1018)">922.962</text><path  d="M 1249 998
L 1249 1003" style="stroke-width:1;stroke:rgba(51,51,51,1.0);fill:none"/><text x="1249" y="1018" style="stroke-width:0;stroke:none;fill:rgba(51,51,51,1.0);font-size:20.8px;font-family:'Roboto Medium',sans-serif" transform="rotate(45.00,1249,1018)">923</text><path  d="M 1350 998
L 1350 1003" style="stroke-width:1;stroke:rgba(51,51,51,1.0);fill:none"/><text x="1350" y="1018" style="stroke-width:0;stroke:none;fill:rgba(51,51,51,1.0);font-size:20.8px;font-family:'Roboto Medium',sans-serif" transform="rotate(45.00,1350,1018)">923.1</text><path  d="M 1452 998
L 1452 1003" style="stroke-width:1;stroke:rgba(51,51,51,1.0);fill:none"/><text x="1452" y="1018" style="stroke-width:0;stroke:none;fill:rgba(51,51,51,1.0);font-size:20.8px;font-family:'Roboto Medium',sans-serif" transform="rotate(45.00,1452,1018)">923.2</text><path  d="M 1655 998
L 1655 1003" style="stroke-width:1;stroke:rgba(51,51,51,1.0);fill:none"/><text x="1655" y="1018" style="stroke-width:0;stroke:none;fill:rgba(51,51,51,1.0);font-size:20.8px;font-family:'Roboto Medium',sans-serif" transform="rotate(45.00,1655,1018)">923.4</text><path  d="M 1819 998
L 1819 1003" style="stroke-width:1;stroke:rgba(51,51,51,1.0);fill:none"/><text x="1819" y="1018" style="stroke-width:0;stroke:none;fill:rgba(51,51,51,1.0);font-size:20.8px;font-family:'Roboto Medium',sans-serif" transform="rotate(45.00,1819,1018)">923.562</text><path  d="M 234 998
L 234 15" style="stroke-width:0;stroke:none;fill:none"/><path  d="M 272 998
L 272 15" style="stroke-width:0;stroke:none;fill:none"/><path  d="M 336 998
L 336 15" style="stroke-width:0;stroke:none;fill:none"/><path  d="M 437 998
L 437 15" style="stroke-width:0;stroke:none;fill:none"/><path  d="M 640 998
L 640 15" style="stroke-width:0;stroke:none;fill:none"/><path  d="M 742 998
L 742 15" style="stroke-width:0;stroke:none;fill:none"/><path  d="M 843 998
L 843 15" style="stroke-width:0;stroke:none;fill:none"/><path  d="M 881 998
L 881 15" style="stroke-width:0;stroke:none;fill:none"/><path  d="M 1046 998
L 1046 15" style="stroke-width:0;stroke:none;fill:none"/><path  d="M 1211 998
L 1211 15" style="stroke-width:0;stroke:none;fill:none"/><path  d="M 1249 998
L 1249 15" style="stroke-width:0;stroke:none;fill:none"/><path  d="M 1350 998
L 1350 15" style="stroke-width:0;stroke:none;fill:none"/><path  d="M 1452 998
L 1452 15" style="stroke-width:0;stroke:none;fill:none"/><path  d="M 1655 998
L 1655 15" style="stroke-width:0;stroke:none;fill:none"/><path  d="M 1820 998
L 1820 15" style="stroke-width:1;stroke:rgba(51,51,51,1.0);fill:none"/><path  d="M 1820 998
L 1825 998" style="stroke-width:1;stroke:rgba(51,51,51,1.0);fill:none"/><text x="1830" y="1008" style="stroke-width:0;stroke:none;fill:rgba(51,51,51,1.0);font-size:20.8px;font-family:'Roboto Medium',sans-serif"></text><path  d="M 1820 801
L 1825 801" style="stroke-width:1;stroke:rgba(51,51,51,1.0);fill:none"/><text x="1830" y="811" style="stroke-width:0;stroke:none;fill:rgba(51,51,51,1.0);font-size:20.8px;font-family:'Roboto Medium',sans-serif">Downlink</text><path  d="M 1820 604
L 1825 604" style="stroke-width:1;stroke:rgba(51,51,51,1.0);fill:none"/><text x="1830" y="614" style="stroke-width:0;stroke:none;fill:rgba(51,51,51,1.0);font-size:20.8px;font-family:'Roboto Medium',sans-serif">Radio</text><path  d="M 1820 408
L 1825 408" style="stroke-width:1;stroke:rgba(51,51,51,1.0);fill:none"/><text x="1830" y="418" style="stroke-width:0;stroke:none;fill:rgba(51,51,51,1.0);font-size:20.8px;font-family:'Roboto Medium',sans-serif">Uplink</text><path  d="M 1820 211
L 1825 211" style="stroke-width:1;stroke:rgba(51,51,51,1.0);fill:none"/><text x="1830" y="221" style="stroke-width:0;stroke:none;fill:rgba(51,51,51,1.0);font-size:20.8px;font-family:'Roboto Medium',sans-serif">Std/FSK</text><path  d="M 1820 15
L 1825 15" style="stroke-width:1;stroke:rgba(51,51,51,1.0);fill:none"/><text x="1830" y="25" style="stroke-width:0;stroke:none;fill:rgba(51,51,51,1.0);font-size:20.8px;font-family:'Roboto Medium',sans-serif"></text><path  d="M 31 604
L 1819 604" style="stroke-width:0;stroke:none;fill:none"/><path  d="M 31 801
L 1819 801" style="stroke-width:0;stroke:none;fill:none"/><path  d="M 31 604
L 1819 604" style="stroke-width:0;stroke:none;fill:none"/><path  d="M 31 408
L 1819 408" style="stroke-width:0;stroke:none;fill:none"/><path  d="M 31 211
L 1819 211" style="stroke-width:0;stroke:none;fill:none"/><path  d="M 30 998
L 30 15" style="stroke-width:1;stroke:rgba(51,51,51,1.0);fill:none"/><path  d="M 30 998
L 25 998" style="stroke-width:1;stroke:rgba(51,51,51,1.0);fill:none"/><text x="-22" y="1008" style="stroke-width:0;stroke:none;fill:rgba(51,51,51,1.0);font-size:20.8px;font-family:'Roboto Medium',sans-serif">0.00</text><path  d="M 30 998
L 25 998" style="stroke-width:1;stroke:rgba(51,51,51,1.0);fill:none"/><text x="-22" y="1008" style="stroke-width:0;stroke:none;fill:rgba(51,51,51,1.0);font-size:20.8px;font-family:'Roboto Medium',sans-serif">0.00</text><path  d="M 30 998
L 25 998" style="stroke-width:1;stroke:rgba(51,51,51,1.0);fill:none"/><text x="-22" y="1008" style="stroke-width:0;stroke:none;fill:rgba(51,51,51,1.0);font-size:20.8px;font-family:'Roboto Medium',sans-serif">0.00</text><path  d="M 30 998
L 25 998" style="stroke-width:1;stroke:rgba(51,51,51,1.0);fill:none"/><text x="-22" y="1008" style="stroke-width:0;stroke:none;fill:rgba(51,51,51,1.0);font-size:20.8px;font-family:'Roboto Medium',sans-serif">0.00</text><path  d="M 30 998
L 25 998" style="stroke-width:1;stroke:rgba(51,51,51,1.0);fill:none"/><text x="-22" y="1008" style="stroke-width:0;stroke:none;fill:rgba(51,51,51,1.0);font-size:20.8px;font-family:'Roboto Medium',sans-serif">0.00</text><path  d="M 30 998
L 25 998" style="stroke-width:1;stroke:rgba(51,51,51,1.0);fill:none"/><text x="-22" y="1008" style="stroke-width:0;stroke:none;fill:rgba(51,51,51,1.0);font-size:20.8px;font-family:'Roboto Medium',sans-serif">0.00</text><path  d="M 30 998
L 25 998" style="stroke-width:1;stroke:rgba(51,51,51,1.0);fill:none"/><text x="-22" y="1008" style="stroke-width:0;stroke:none;fill:rgba(51,51,51,1.0);font-size:20.8px;font-family:'Roboto Medium',sans-serif">0.00</text><path  d="M 30 998
L 25 998" style="stroke-width:1;stroke:rgba(51,51,51,1.0);fill:none"/><text x="-22" y="1008" style="stroke-width:0;stroke:none;fill:rgba(51,51,51,1.0);font-size:20.8px;font-family:'Roboto Medium',sans-serif">0.00</text><path  d="M 30 998
L 25 998" style="stroke-width:1;stroke:rgba(51,51,51,1.0);fill:none"/><text x="-22" y="1008" style="stroke-width:0;stroke:none;fill:rgba(51,51,51,1.0);font-size:20.8px;font-family:'Roboto Medium',sans-serif">0.00</text><path  d="M 30 998
L 25 998" style="stroke-width:1;stroke:rgba(51,51,51,1.0);fill:none"/><text x="-22" y="1008" style="stroke-width:0;stroke:none;fill:rgba(51,51,51,1.0);font-size:20.8px;font-family:'Roboto Medium',sans-serif">0.00</text><path  d="M 30 998
L 25 998" style="stroke-width:1;stroke:rgba(51,51,51,1.0);fill:none"/><text x="-22" y="1008" style="stroke-width:0;stroke:none;fill:rgba(51,51,51,1.0);font-size:20.8px;font-family:'Roboto Medium',sans-serif">0.00</text><path  d="M 30 998
L 25 998" style="stroke-width:1;stroke:rgba(51,51,51,1.0);fill:none"/><text x="-22" y="1008" style="stroke-width:0;stroke:none;fill:rgba(51,51,51,1.0);font-size:20.8px;font-family:'Roboto Medium',sans-serif">0.00</text><path  d="M 30 998
L 25 998" style="stroke-width:1;stroke:rgba(51,51,51,1.0);fill:none"/><text x="-22" y="1008" style="stroke-width:0;stroke:none;fill:rgba(51,51,51,1.0);font-size:20.8px;font-family:'Roboto Medium',sans-serif">0.00</text><path  d="M 30 998
L 25 998" style="stroke-width:1;stroke:rgba(51,51,51,1.0);fill:none"/><text x="-22" y="1008" style="stroke-width:0;stroke:none;fill:rgba(51,51,51,1.0);font-size:20.8px;font-family:'Roboto Medium',sans-serif">0.00</text><path  d="M 30 998
L 25 998" style="stroke-width:1;stroke:rgba(51,51,51,1.0);fill:none"/><text x="-22" y="1008" style="stroke-width:0;stroke:none;fill:rgba(51,51,51,1.0);font-size:20.8px;font-family:'Roboto Medium',sans-serif">0.00</text><path  d="M 30 998
L 25 998" style="stroke-width:1;stroke:rgba(51,51,51,1.0);fill:none"/><text x="-22" y="1008" style="stroke-width:0;stroke:none;fill:rgba(51,51,51,1.0);font-size:20.8px;font-family:'Roboto Medium',sans-serif">0.00</text><path  d="M 30 998
L 25 998" style="stroke-width:1;stroke:rgba(51,51,51,1.0);fill:none"/><text x="-22" y="1008" style="stroke-width:0;stroke:none;fill:rgba(51,51,51,1.0);font-size:20.8px;font-family:'Roboto Medium',sans-serif">0.00</text><path  d="M 30 998
L 25 998" style="stroke-width:1;stroke:rgba(51,51,51,1.0);fill:none"/><text x="-22" y="1008" style="stroke-width:0;stroke:none;fill:rgba(51,51,51,1.0);font-size:20.8px;font-family:'Roboto Medium',sans-serif">0.00</text><path  d="M 30 998
L 25 998" style="stroke-width:1;stroke:rgba(51,51,51,1.0);fill:none"/><text x="-22" y="1008" style="stroke-width:0;stroke:none;fill:rgba(51,51,51,1.0);font-size:20.8px;font-family:'Roboto Medium',sans-serif">0.00</text><path  d="M 30 998
L 25 998" style="stroke-width:1;stroke:rgba(51,51,51,1.0);fill:none"/><text x="-22" y="1008" style="stroke-width:0;stroke:none;fill:rgba(51,51,51,1.0);font-size:20.8px;font-family:'Roboto Medium',sans-serif">0.00</text><path  d="M 30 998
L 25 998" style="stroke-width:1;stroke:rgba(51,51,51,1.0);fill:none"/><text x="-22" y="1008" style="stroke-width:0;stroke:none;fill:rgba(51,51,51,1.0);font-size:20.8px;font-family:'Roboto Medium',sans-serif">0.00</text><path  d="M 30 998
L 25 998" style="stroke-width:1;stroke:rgba(51,51,51,1.0);fill:none"/><text x="-22" y="1008" style="stroke-width:0;stroke:none;fill:rgba(51,51,51,1.0);font-size:20.8px;font-family:'Roboto Medium',sans-serif">0.00</text><path  d="M 30 998
L 25 998" style="stroke-width:1;stroke:rgba(51,51,51,1.0);fill:none"/><text x="-22" y="1008" style="stroke-width:0;stroke:none;fill:rgba(51,51,51,1.0);font-size:20.8px;font-family:'Roboto Medium',sans-serif">0.00</text><path  d="M 31 998
L 1819 998" style="stroke-width:0;stroke:none;fill:none"/><path  d="M 31 998
L 1819 998" style="stroke-width:0;stroke:none;fill:none"/><path  d="M 31 998
L 1819 998" style="stroke-width:0;stroke:none;fill:none"/><path  d="M 31 998
L 1819 998" style="stroke-width:0;stroke:none;fill:none"/><path  d="M 31 998
L 1819 998" style="stroke-width:0;stroke:none;fill:none"/><path  d="M 31 998
L 1819 998" style="stroke-width:0;stroke:none;fill:none"/><path  d="M 31 998
L 1819 998" style="stroke-width:0;stroke:none;fill:none"/><path  d="M 31 998
L 1819 998" style="stroke-width:0;stroke:none;fill:none"/><path  d="M 31 998
L 1819 998" style="stroke-width:0;stroke:none;fill:none"/><path  d="M 31 998
L 1819 998" style="stroke-width:0;stroke:none;fill:none"/><path  d="M 31 998
L 1819 998" style="stroke-width:0;stroke:none;fill:none"/><path  d="M 31 998
L 1819 998" style="stroke-width:0;stroke:none;fill:none"/><path  d="M 31 998
L 1819 998" style="stroke-width:0;stroke:none;fill:none"/><path  d="M 31 998
L 1819 998" style="stroke-width:0;stroke:none;fill:none"/><path  d="M 31 998
L 1819 998" style="stroke-width:0;stroke:none;fill:none"/><path  d="M 31 998
L 1819 998" style="stroke-width:0;stroke:none;fill:none"/><path  d="M 31 998
L 1819 998" style="stroke-width:0;stroke:none;fill:none"/><path  d="M 31 998
L 1819 998" style="stroke-width:0;stroke:none;fill:none"/><path  d="M 31 998
L 1819 998" style="stroke-width:0;stroke:none;fill:none"/><path  d="M 31 998
L 1819 998" style="stroke-width:0;stroke:none;fill:none"/><path  d="M 31 998
L 1819 998" style="stroke-width:0;stroke:none;fill:none"/><path  d="M 31 998
L 1819 998" style="stroke-width:0;stroke:none;fill:none"/><path  d="M 1388 408
L 1515 408
L 1515 604
L 1388 604
L 1388 408" style="stroke-width:0;stroke:none;fill:rgba(0,217,101,0.5)"/><path  d="M 1388 408
L 1515 408" style="stroke-width:1;stroke:rgba(0,217,101,0.5);fill:none"/><path  d="M 1591 408
L 1718 408
L 1718 604
L 1591 604
L 1591 408" style="stroke-width:0;stroke:none;fill:rgba(0,217,101,0.5)"/><path  d="M 1591 408
L 1718 408" style="stroke-width:1;stroke:rgba(0,217,101,0.5);fill:none"/><path  d="M 983 408
L 1109 408
L 1109 604
L 983 604
L 983 408" style="stroke-width:0;stroke:none;fill:rgba(0,217,101,0.5)"/><path  d="M 983 408
L 1109 408" style="stroke-width:1;stroke:rgba(0,217,101,0.5);fill:none"/><path  d="M 1185 408
L 1312 408
L 1312 604
L 1185 604
L 1185 408" style="stroke-width:0;stroke:none;fill:rgba(0,217,101,0.5)"/><path  d="M 1185 408
L 1312 408" style="stroke-width:1;stroke:rgba(0,217,101,0.5);fill:none"/><path  d="M 171 408
L 298 408
L 298 604
L 171 604
L 171 408" style="stroke-width:0;stroke:none;fill:rgba(0,116,217,0.5)"/><path  d="M 171 408
L 298 408" style="stroke-width:1;stroke:rgba(0,116,217,0.5);fill:none"/><path  d="M 374 408
L 501 408
L 501 604
L 374 604
L 374 408" style="stroke-width:0;stroke:none;fill:rgba(0,116,217,0.5)"/><path  d="M 374 408
L 501 408" style="stroke-width:1;stroke:rgba(0,116,217,0.5);fill:none"/><path  d="M 577 408
L 704 408
L 704 604
L 577 604
L 577 408" style="stroke-width:0;stroke:none;fill:rgba(0,116,217,0.5)"/><path  d="M 577 408
L 704 408" style="stroke-width:1;stroke:rgba(0,116,217,0.5);fill:none"/><path  d="M 780 408
L 906 408
L 906 604
L 780 604
L 780 408" style="stroke-width:0;stroke:none;fill:rgba(0,116,217,0.5)"/><path  d="M 780 408
L 906 408" style="stroke-width:1;stroke:rgba(0,116,217,0.5);fill:none"/><path  d="M 209 211
L 463 211
L 463 604
L 209 604
L 209 211" style="stroke-width:0;stroke:none;fill:rgba(0,217,101,0.5)"/><path  d="M 209 211
L 463 211" style="stroke-width:1;stroke:rgba(0,217,101,0.5);fill:none"/><path  d="M -32 211
L 95 211
L 95 604
L -32 604
L -32 211" style="stroke-width:0;stroke:none;fill:rgba(0,217,101,0.5)"/><path  d="M -32 211
L 95 211" style="stroke-width:1;stroke:rgba(0,217,101,0.5);fill:none"/><path  d="M 1388 801
L 1515 801
L 1515 604
L 1388 604
L 1388 801" style="stroke-width:0;stroke:none;fill:rgba(0,217,210,0.5)"/><path  d="M 1388 801
L 1515 801" style="stroke-width:1;stroke:rgba(0,217,210,0.5);fill:none"/><path  d="M 1591 801
L 1718 801
L 1718 604
L 1591 604
L 1591 801" style="stroke-width:0;stroke:none;fill:rgba(0,217,210,0.5)"/><path  d="M 1591 801
L 1718 801" style="stroke-width:1;stroke:rgba(0,217,210,0.5);fill:none"/><path  d="M 983 801
L 1109 801
L 1109 604
L 983 604
L 983 801" style="stroke-width:0;stroke:none;fill:rgba(0,217,210,0.5)"/><path  d="M 983 801
L 1109 801" style="stroke-width:1;stroke:rgba(0,217,210,0.5);fill:none"/><path  d="M 1185 801
L 1312 801
L 1312 604
L 1185 604
L 1185 801" style="stroke-width:0;stroke:none;fill:rgba(0,217,210,0.5)"/><path  d="M 1185 801
L 1312 801" style="stroke-width:1;stroke:rgba(0,217,210,0.5);fill:none"/><path  d="M 171 801
L 298 801
L 298 604
L 171 604
L 171 801" style="stroke-width:0;stroke:none;fill:rgba(0,217,210,0.5)"/><path  d="M 171 801
L 298 801" style="stroke-width:1;stroke:rgba(0,217,210,0.5);fill:none"/><path  d="M 374 801
L 501 801
L 501 604
L 374 604
L 374 801" style="stroke-width:0;stroke:none;fill:rgba(0,217,210,0.5)"/><path  d="M 374 801
L 501 801" style="stroke-width:1;stroke:rgba(0,217,210,0.5);fill:none"/><path  d="M 577 801
L 704 801
L 704 604
L 577 604
L 577 801" style="stroke-width:0;stroke:none;fill:rgba(0,217,210,0.5)"/><path  d="M 577 801
L 704 801" style="stroke-width:1;stroke:rgba(0,217,210,0.5);fill:none"/><path  d="M 780 801
L 906 801
L 906 604
L 780 604
L 780 801" style="stroke-width:0;stroke:none;fill:rgba(0,217,210,0.5)"/><path  d="M 780 801
L 906 801" style="stroke-width:1;stroke:rgba(0,217,210,0.5);fill:none"/><path  d="M 272 604
L 1211 604" style="stroke-width:10;stroke:rgba(0,116,217,0.5);fill:none"/><path  d="M 881 604
L 1819 604" style="stroke-width:10;stroke:rgba(0,217,101,0.5);fill:none"/><path  d="M 1452 408
L 1462 393
L 1526 393
L 1526 423
L 1462 423
L 1452 408
Z" style="stroke-width:1;stroke:rgba(0,116,217,1.0);fill:rgba(255,255,255,1.0)"/><text x="1467" y="418" style="stroke-width:0;stroke:none;fill:rgba(51,51,51,1.0);font-size:20.8px;font-family:'Roboto Medium',sans-serif">923.2</text><path  d="M 1655 408
L 1665 393
L 1729 393
L 1729 423
L 1665 423
L 1655 408
Z" style="stroke-width:1;stroke:rgba(0,116,217,1.0);fill:rgba(255,255,255,1.0)"/><text x="1670" y="418" style="stroke-width:0;stroke:none;fill:rgba(51,51,51,1.0);font-size:20.8px;font-family:'Roboto Medium',sans-serif">923.4</text><path  d="M 1046 408
L 1056 393
L 1120 393
L 1120 423
L 1056 423
L 1046 408
Z" style="stroke-width:1;stroke:rgba(0,116,217,1.0);fill:rgba(255,255,255,1.0)"/><text x="1061" y="418" style="stroke-width:0;stroke:none;fill:rgba(51,51,51,1.0);font-size:20.8px;font-family:'Roboto Medium',sans-serif">922.8</text><path  d="M 1249 408
L 1259 393
L 1305 393
L 1305 423
L 1259 423
L 1249 408
Z" style="stroke-width:1;stroke:rgba(0,116,217,1.0);fill:rgba(255,255,255,1.0)"/><text x="1264" y="418" style="stroke-width:0;stroke:none;fill:rgba(51,51,51,1.0);font-size:20.8px;font-family:'Roboto Medium',sans-serif">923</text><path  d="M 234 408
L 244 393
L 290 393
L 290 423
L 244 423
L 234 408
Z" style="stroke-width:1;stroke:rgba(0,116,217,1.0);fill:rgba(255,255,255,1.0)"/><text x="249" y="418" style="stroke-width:0;stroke:none;fill:rgba(51,51,51,1.0);font-size:20.8px;font-family:'Roboto Medium',sans-serif">922</text><path  d="M 437 408
L 447 393
L 511 393
L 511 423
L 447 423
L 437 408
Z" style="stroke-width:1;stroke:rgba(0,116,217,1.0);fill:rgba(255,255,255,1.0)"/><text x="452" y="418" style="stroke-width:0;stroke:none;fill:rgba(51,51,51,1.0);font-size:20.8px;font-family:'Roboto Medium',sans-serif">922.2</text><path  d="M 640 408
L 650 393
L 714 393
L 714 423
L 650 423
L 640 408
Z" style="stroke-width:1;stroke:rgba(0,116,217,1.0);fill:rgba(255,255,255,1.0)"/><text x="655" y="418" style="stroke-width:0;stroke:none;fill:rgba(51,51,51,1.0);font-size:20.8px;font-family:'Roboto Medium',sans-serif">922.4</text><path  d="M 843 408
L 853 393
L 917 393
L 917 423
L 853 423
L 843 408
Z" style="stroke-width:1;stroke:rgba(0,116,217,1.0);fill:rgba(255,255,255,1.0)"/><text x="858" y="418" style="stroke-width:0;stroke:none;fill:rgba(51,51,51,1.0);font-size:20.8px;font-family:'Roboto Medium',sans-serif">922.6</text><path  d="M 336 211
L 346 196
L 461 196
L 461 226
L 346 226
L 336 211
Z" style="stroke-width:1;stroke:rgba(0,116,217,1.0);fill:rgba(255,255,255,1.0)"/><text x="351" y="221" style="stroke-width:0;stroke:none;fill:rgba(51,51,51,1.0);font-size:20.8px;font-family:'Roboto Medium',sans-serif">922.1 (Std)</text><path  d="M 31 211
L 41 196
L 162 196
L 162 226
L 41 226
L 31 211
Z" style="stroke-width:1;stroke:rgba(0,116,217,1.0);fill:rgba(255,255,255,1.0)"/><text x="46" y="221" style="stroke-width:0;stroke:none;fill:rgba(51,51,51,1.0);font-size:20.8px;font-family:'Roboto Medium',sans-serif">921.8 (FSK)</text><path  d="M 1452 801
L 1462 786
L 1526 786
L 1526 816
L 1462 816
L 1452 801
Z" style="stroke-width:1;stroke:rgba(0,116,217,1.0);fill:rgba(255,255,255,1.0)"/><text x="1467" y="811" style="stroke-width:0;stroke:none;fill:rgba(51,51,51,1.0);font-size:20.8px;font-family:'Roboto Medium',sans-serif">923.2</text><path  d="M 1655 801
L 1665 786
L 1729 786
L 1729 816
L 1665 816
L 1655 801
Z" style="stroke-width:1;stroke:rgba(0,116,217,1.0);fill:rgba(255,255,255,1.0)"/><text x="1670" y="811" style="stroke-width:0;stroke:none;fill:rgba(51,51,51,1.0);font-size:20.8px;font-family:'Roboto Medium',sans-serif">923.4</text><path  d="M 1046 801
L 1056 786
L 1120 786
L 1120 816
L 1056 816
L 1046 801
Z" style="stroke-width:1;stroke:rgba(0,116,217,1.0);fill:rgba(255,255,255,1.0)"/><text x="1061" y="811" style="stroke-width:0;stroke:none;fill:rgba(51,51,51,1.0);font-size:20.8px;font-family:'Roboto Medium',sans-serif">922.8</text><path  d="M 1249 801
L 1259 786
L 1305 786
L 1305 816
L 1259 816
L 1249 801
Z" style="stroke-width:1;stroke:rgba(0,116,217,1.0);fill:rgba(255,255,255,1.0)"/><text x="1264" y="811" style="stroke-width:0;stroke:none;fill:rgba(51,51,51,1.0);font-size:20.8px;font-family:'Roboto Medium',sans-serif">923</text><path  d="M 234 801
L 244 786
L 290 786
L 290 816
L 244 816
L 234 801
Z" style="stroke-width:1;stroke:rgba(0,116,217,1.0);fill:rgba(255,255,255,1.0)"/><text x="249" y="811" style="stroke-width:0;stroke:none;fill:rgba(51,51,51,1.0);font-size:20.8px;font-family:'Roboto Medium',sans-serif">922</text><path  d="M 437 801
L 447 786
L 511 786
L 511 816
L 447 816
L 437 801
Z" style="stroke-width:1;stroke:rgba(0,116,217,1.0);fill:rgba(255,255,255,1.0)"/><text x="452" y="811" style="stroke-width:0;stroke:none;fill:rgba(51,51,51,1.0);font-size:20.8px;font-family:'Roboto Medium',sans-serif">922.2</text><path  d="M 640 801
L 650 786
L 714 786
L 714 816
L 650 816
L 640 801
Z" style="stroke-width:1;stroke:rgba(0,116,217,1.0);fill:rgba(255,255,255,1.0)"/><text x="655" y="811" style="stroke-width:0;stroke:none;fill:rgba(51,51,51,1.0);font-size:20.8px;font-family:'Roboto Medium',sans-serif">922.4</text><path  d="M 843 801
L 853 786
L 917 786
L 917 816
L 853 816
L 843 801
Z" style="stroke-width:1;stroke:rgba(0,116,217,1.0);fill:rgba(255,255,255,1.0)"/><text x="858" y="811" style="stroke-width:0;stroke:none;fill:rgba(51,51,51,1.0);font-size:20.8px;font-family:'Roboto Medium',sans-serif">922.6</text><path  d="M 742 604
L 752 589
L 897 589
L 897 619
L 752 619
L 742 604
Z" style="stroke-width:1;stroke:rgba(0,116,217,1.0);fill:rgba(255,255,255,1.0)"/><text x="757" y="614" style="stroke-width:0;stroke:none;fill:rgba(51,51,51,1.0);font-size:20.8px;font-family:'Roboto Medium',sans-serif">Radio 0: 922.5</text><path  d="M 1350 604
L 1360 589
L 1505 589
L 1505 619
L 1360 619
L 1350 604
Z" style="stroke-width:1;stroke:rgba(0,116,217,1.0);fill:rgba(255,255,255,1.0)"/><text x="1365" y="614" style="stroke-width:0;stroke:none;fill:rgba(51,51,51,1.0);font-size:20.8px;font-family:'Roboto Medium',sans-serif">Radio 1: 923.1</text><text x="761" y="47" style="stroke-width:0;stroke:none;fill:rgba(51,51,51,1.0);font-size:37.5px;font-family:'Roboto Medium',sans-serif">AS_920_923_TTN_JP_1</text></svg>