<svg xmlns="http://www.w3.org/2000/svg" xmlns:xlink="http://www.w3.org/1999/xlink" width="1920" height="1080">\n<path  d="M 0 0
L 1920 0
L 1920 1080
L 0 1080
L 0 0" style="stroke-width:0;stroke:rgba(255,255,255,1.0);fill:rgba(255,255,255,1.0)"/><path  d="M 38 15
L 1819 15
L 1819 998
L 38 998
L 38 15" style="stroke-width:0;stroke:rgba(255,255,255,1.0);fill:rgba(255,255,255,1.0)"/><path  d="M 38 998
L 1819 998" style="stroke-width:1;stroke:rgba(51,51,51,1.0);fill:none"/><path  d="M 38 998
L 38 1003" style="stroke-width:1;stroke:rgba(51,51,51,1.0);fill:none"/><text x="38" y="1018" style="stroke-width:0;stroke:none;fill:rgba(51,51,51,1.0);font-size:20.8px;font-family:'Roboto Medium',sans-serif" transform="rotate(45.00,38,1018)">916.737</text><path  d="M 107 998
L 107 1003" style="stroke-width:1;stroke:rgba(51,51,51,1.0);fill:none"/><text x="107" y="1018" style="stroke-width:0;stroke:none;fill:rgba(51,51,51,1.0);font-size:20.8px;font-family:'Roboto Medium',sans-serif" transform="rotate(45.00,107,1018)">916.8</text><path  d="M 326 998
L 326 1003" style="stroke-width:1;stroke:rgba(51,51,51,1.0);fill:none"/><text x="326" y="1018" style="stroke-width:0;stroke:none;fill:rgba(51,51,51,1.0);font-size:20.8px;font-family:'Roboto Medium',sans-serif" transform="rotate(45.00,326,1018)">917</text><path  d="M 545 998
L 545 1003" style="stroke-width:1;stroke:rgba(51,51,51,1.0);fill:none"/><text x="545" y="1018" style="stroke-width:0;stroke:none;fill:rgba(51,51,51,1.0);font-size:20.8px;font-family:'Roboto Medium',sans-serif" transform="rotate(45.00,545,1018)">917.2</text><path  d="M 765 998
L 765 1003" style="stroke-width:1;stroke:rgba(51,51,51,1.0);fill:none"/><text x="765" y="1018" style="stroke-width:0;stroke:none;fill:rgba(51,51,51,1.0);font-size:20.8px;font-family:'Roboto Medium',sans-serif" transform="rotate(45.00,765,1018)">917.4</text><path  d="M 806 998
L 806 1003" style="stroke-width:1;stroke:rgba(51,51,51,1.0);fill:none"/><text x="806" y="1018" style="stroke-width:0;stroke:none;fill:rgba(51,51,51,1.0);font-size:20.8px;font-family:'Roboto Medium',sans-serif" transform="rotate(45.00,806,1018)">917.438</text><path  d="M 874 998
L 874 1003" style="stroke-width:1;stroke:rgba(51,51,51,1.0);fill:none"/><text x="874" y="1018" style="stroke-width:0;stroke:none;fill:rgba(51,51,51,1.0);font-size:20.8px;font-family:'Roboto Medium',sans-serif" transform="rotate(45.00,874,1018)">917.5</text><path  d="M 984 998
L 984 1003" style="stroke-width:1;stroke:rgba(51,51,51,1.0);fill:none"/><text x="984" y="1018" style="stroke-width:0;stroke:none;fill:rgba(51,51,51,1.0);font-size:20.8px;font-family:'Roboto Medium',sans-serif" transform="rotate(45.00,984,1018)">917.6</text><path  d="M 1052 998
L 1052 1003" style="stroke-width:1;stroke:rgba(51,51,51,1.0);fill:none"/><text x="1052" y="1018" style="stroke-width:0;stroke:none;fill:rgba(51,51,51,1.0);font-size:20.8px;font-family:'Roboto Medium',sans-serif" transform="rotate(45.00,1052,1018)">917.663</text><path  d="M 1203 998
L 1203 1003" style="stroke-width:1;stroke:rgba(51,51,51,1.0);fill:none"/><text x="1203" y="1018" style="stroke-width:0;stroke:none;fill:rgba(51,51,51,1.0);font-size:20.8px;font-family:'Roboto Medium',sans-serif" transform="rotate(45.00,1203,1018)">917.8</text><path  d="M 1313 998
L 1313 1003" style="stroke-width:1;stroke:rgba(51,51,51,1.0);fill:none"/><text x="1313" y="1018" style="stroke-width:0;stroke:none;fill:rgba(51,51,51,1.0);font-size:20.8px;font-family:'Roboto Medium',sans-serif" transform="rotate(45.00,1313,1018)">917.9</text><path  d="M 1422 998
L 1422 1003" style="stroke-width:1;stroke:rgba(51,51,51,1.0);fill:none"/><text x="1422" y="1018" style="stroke-width:0;stroke:none;fill:rgba(51,51,51,1.0);font-size:20.8px;font-family:'Roboto Medium',sans-serif" transform="rotate(45.00,1422,1018)">918</text><path  d="M 1641 998
L 1641 1003" style="stroke-width:1;stroke:rgba(51,51,51,1.0);fill:none"/><text x="1641" y="1018" style="stroke-width:0;stroke:none;fill:rgba(51,51,51,1.0);font-size:20.8px;font-family:'Roboto Medium',sans-serif" transform="rotate(45.00,1641,1018)">918.2</text><path  d="M 1819 998
L 1819 1003" style="stroke-width:1;stroke:rgba(51,51,51,1.0);fill:none"/><text x="1819" y="1018" style="stroke-width:0;stroke:none;fill:rgba(51,51,51,1.0);font-size:20.8px;font-family:'Roboto Medium',sans-serif" transform="rotate(45.00,1819,1018)">918.362</text><path  d="M 107 998
L 107 15" style="stroke-width:0;stroke:none;fill:none"/><path  d="M 326 998
L 326 15" style="stroke-width:0;stroke:none;fill:none"/><path  d="M 545 998
L 545 15" style="stroke-width:0;stroke:none;fill:none"/><path  d="M 765 998
L 765 15" style="stroke-width:0;stroke:none;fill:none"/><path  d="M 806 998
L 806 15" style="stroke-width:0;stroke:none;fill:none"/><path  d="M 874 998
L 874 15" style="stroke-width:0;stroke:none;fill:none"/><path  d="M 984 998
L 984 15" style="stroke-width:0;stroke:none;fill:none"/><path  d="M 1052 998
L 1052 15" style="stroke-width:0;stroke:none;fill:none"/><path  d="M 1203 998
L 1203 15" style="stroke-width:0;stroke:none;fill:none"/><path  d="M 1313 998
L 1313 15" style="stroke-width:0;stroke:none;fill:none"/><path  d="M 1422 998
L 1422 15" style="stroke-width:0;stroke:none;fill:none"/><path  d="M 1641 998
L 1641 15" style="stroke-width:0;stroke:none;fill:none"/><path  d="M 1820 998
L 1820 15" style="stroke-width:1;stroke:rgba(51,51,51,1.0);fill:none"/><path  d="M 1820 998
L 1825 998" style="stroke-width:1;stroke:rgba(51,51,51,1.0);fill:none"/><text x="1830" y="1008" style="stroke-width:0;stroke:none;fill:rgba(51,51,51,1.0);font-size:20.8px;font-family:'Roboto Medium',sans-serif"></text><path  d="M 1820 801
L 1825 801" style="stroke-width:1;stroke:rgba(51,51,51,1.0);fill:none"/><text x="1830" y="811" style="stroke-width:0;stroke:none;fill:rgba(51,51,51,1.0);font-size:20.8px;font-family:'Roboto Medium',sans-serif">Downlink</text><path  d="M 1820 604
L 1825 604" style="stroke-width:1;stroke:rgba(51,51,51,1.0);fill:none"/><text x="1830" y="614" style="stroke-width:0;stroke:none;fill:rgba(51,51,51,1.0);font-size:20.8px;font-family:'Roboto Medium',sans-serif">Radio</text><path  d="M 1820 408
L 1825 408" style="stroke-width:1;stroke:rgba(51,51,51,1.0);fill:none"/><text x="1830" y="418" style="stroke-width:0;stroke:none;fill:rgba(51,51,51,1.0);font-size:20.8px;font-family:'Roboto Medium',sans-serif">Uplink</text><path  d="M 1820 211
L 1825 211" style="stroke-width:1;stroke:rgba(51,51,51,1.0);fill:none"/><text x="1830" y="221" style="stroke-width:0;stroke:none;fill:rgba(51,51,51,1.0);font-size:20.8px;font-family:'Roboto Medium',sans-serif">Std/FSK</text><path  d="M 1820 15
L 1825 15" style="stroke-width:1;stroke:rgba(51,51,51,1.0);fill:none"/><text x="1830" y="25" style="stroke-width:0;stroke:none;fill:rgba(51,51,51,1.0);font-size:20.8px;font-family:'Roboto Medium',sans-serif"></text><path  d="M 38 604
L 1819 604" style="stroke-width:0;stroke:none;fill:none"/><path  d="M 38 801
L 1819 801" style="stroke-width:0;stroke:none;fill:none"/><path  d="M 38 604
L 1819 604" style="stroke-width:0;stroke:none;fill:none"/><path  d="M 38 408
L 1819 408" style="stroke-width:0;stroke:none;fill:none"/><path  d="M 38 211
L 1819 211" style="stroke-width:0;stroke:none;fill:none"/><path  d="M 37 998
L 37 15" style="stroke-width:1;stroke:rgba(51,51,51,1.0);fill:none"/><path  d="M 37 998
L 32 998" style="stroke-width:1;stroke:rgba(51,51,51,1.0);fill:none"/><text x="-15" y="1008" style="stroke-width:0;stroke:none;fill:rgba(51,51,51,1.0);font-size:20.8px;font-family:'Roboto Medium',sans-serif">0.00</text><path  d="M 37 998
L 32 998" style="stroke-width:1;stroke:rgba(51,51,51,1.0);fill:none"/><text x="-15" y="1008" style="stroke-width:0;stroke:none;fill:rgba(51,51,51,1.0);font-size:20.8px;font-family:'Roboto Medium',sans-serif">0.00</text><path  d="M 37 998
L 32 998" style="stroke-width:1;stroke:rgba(51,51,51,1.0);fill:none"/><text x="-15" y="1008" style="stroke-width:0;stroke:none;fill:rgba(51,51,51,1.0);font-size:20.8px;font-family:'Roboto Medium',sans-serif">0.00</text><path  d="M 37 998
L 32 998" style="stroke-width:1;stroke:rgba(51,51,51,1.0);fill:none"/><text x="-15" y="1008" style="stroke-width:0;stroke:none;fill:rgba(51,51,51,1.0);font-size:20.8px;font-family:'Roboto Medium',sans-serif">0.00</text><path  d="M 37 998
L 32 998" style="stroke-width:1;stroke:rgba(51,51,51,1.0);fill:none"/><text x="-15" y="1008" style="stroke-width:0;stroke:none;fill:rgba(51,51,51,1.0);font-size:20.8px;font-family:'Roboto Medium',sans-serif">0.00</text><path  d="M 37 998
L 32 998" style="stroke-width:1;stroke:rgba(51,51,51,1.0);fill:none"/><text x="-15" y="1008" style="stroke-width:0;stroke:none;fill:rgba(51,51,51,1.0);font-size:20.8px;font-family:'Roboto Medium',sans-serif">0.00</text><path  d="M 37 998
L 32 998" style="stroke-width:1;stroke:rgba(51,51,51,1.0);fill:none"/><text x="-15" y="1008" style="stroke-width:0;stroke:none;fill:rgba(51,51,51,1.0);font-size:20.8px;font-family:'Roboto Medium',sans-serif">0.00</text><path  d="M 37 998
L 32 998" style="stroke-width:1;stroke:rgba(51,51,51,1.0);fill:none"/><text x="-15" y="1008" style="stroke-width:0;stroke:none;fill:rgba(51,51,51,1.0);font-size:20.8px;font-family:'Roboto Medium',sans-serif">0.00</text><path  d="M 37 998
L 32 998" style="stroke-width:1;stroke:rgba(51,51,51,1.0);fill:none"/><text x="-15" y="1008" style="stroke-width:0;stroke:none;fill:rgba(51,51,51,1.0);font-size:20.8px;font-family:'Roboto Medium',sans-serif">0.00</text><path  d="M 37 998
L 32 998" style="stroke-width:1;stroke:rgba(51,51,51,1.0);fill:none"/><text x="-15" y="1008" style="stroke-width:0;stroke:none;fill:rgba(51,51,51,1.0);font-size:20.8px;font-family:'Roboto Medium',sans-serif">0.00</text><path  d="M 37 998
L 32 998" style="stroke-width:1;stroke:rgba(51,51,51,1.0);fill:none"/><text x="-15" y="1008" style="stroke-width:0;stroke:none;fill:rgba(51,51,51,1.0);font-size:20.8px;font-family:'Roboto Medium',sans-serif">0.00</text><path  d="M 37 998
L 32 998" style="stroke-width:1;stroke:rgba(51,51,51,1.0);fill:none"/><text x="-15" y="1008" style="stroke-width:0;stroke:none;fill:rgba(51,51,51,1.0);font-size:20.8px;font-family:'Roboto Medium',sans-serif">0.00</text><path  d="M 37 998
L 32 998" style="stroke-width:1;stroke:rgba(51,51,51,1.0);fill:none"/><text x="-15" y="1008" style="stroke-width:0;stroke:none;fill:rgba(51,51,51,1.0);font-size:20.8px;font-family:'Roboto Medium',sans-serif">0.00</text><path  d="M 37 998
L 32 998" style="stroke-width:1;stroke:rgba(51,51,51,1.0);fill:none"/><text x="-15" y="1008" style="stroke-width:0;stroke:none;fill:rgba(51,51,51,1.0);font-size:20.8px;font-family:'Roboto Medium',sans-serif">0.00</text><path  d="M 37 998
L 32 998" style="stroke-width:1;stroke:rgba(51,51,51,1.0);fill:none"/><text x="-15" y="1008" style="stroke-width:0;stroke:none;fill:rgba(51,51,51,1.0);font-size:20.8px;font-family:'Roboto Medium',sans-serif">0.00</text><path  d="M 37 998
L 32 998" style="stroke-width:1;stroke:rgba(51,51,51,1.0);fill:none"/><text x="-15" y="1008" style="stroke-width:0;stroke:none;fill:rgba(51,51,51,1.0);font-size:20.8px;font-family:'Roboto Medium',sans-serif">0.00</text><path  d="M 37 998
L 32 998" style="stroke-width:1;stroke:rgba(51,51,51,1.0);fill:none"/><text x="-15" y="1008" style="stroke-width:0;stroke:none;fill:rgba(51,51,51,1.0);font-size:20.8px;font-family:'Roboto Medium',sans-serif">0.00</text><path  d="M 37 998
L 32 998" style="stroke-width:1;stroke:rgba(51,51,51,1.0);fill:none"/><text x="-15" y="1008" style="stroke-width:0;stroke:none;fill:rgba(51,51,51,1.0);font-size:20.8px;font-family:'Roboto Medium',sans-serif">0.00</text><path  d="M 37 998
L 32 998" style="stroke-width:1;stroke:rgba(51,51,51,1.0);fill:none"/><text x="-15" y="1008" style="stroke-width:0;stroke:none;fill:rgba(51,51,51,1.0);font-size:20.8px;font-family:'Roboto Medium',sans-serif">0.00</text><path  d="M 37 998
L 32 998" style="stroke-width:1;stroke:rgba(51,51,51,1.0);fill:none"/><text x="-15" y="1008" style="stroke-width:0;stroke:none;fill:rgba(51,51,51,1.0);font-size:20.8px;font-family:'Roboto Medium',sans-serif">0.00</text><path  d="M 37 998
L 32 998" style="stroke-width:1;stroke:rgba(51,51,51,1.0);fill:none"/><text x="-15" y="1008" style="stroke-width:0;stroke:none;fill:rgba(51,51,51,1.0);font-size:20.8px;font-family:'Roboto Medium',sans-serif">0.00</text><path  d="M 37 998
L 32 998" style="stroke-width:1;stroke:rgba(51,51,51,1.0);fill:none"/><text x="-15" y="1008" style="stroke-width:0;stroke:none;fill:rgba(51,51,51,1.0);font-size:20.8px;font-family:'Roboto Medium',sans-serif">0.00</text><path  d="M 37 998
L 32 998" style="stroke-width:1;stroke:rgba(51,51,51,1.0);fill:none"/><text x="-15" y="1008" style="stroke-width:0;stroke:none;fill:rgba(51,51,51,1.0);font-size:20.8px;font-family:'Roboto Medium',sans-serif">0.00</text><path  d="M 38 998
L 1819 998" style="stroke-width:0;stroke:none;fill:none"/><path  d="M 38 998
L 1819 998" style="stroke-width:0;stroke:none;fill:none"/><path  d="M 38 998
L 1819 998" style="stroke-width:0;stroke:none;fill:none"/><path  d="M 38 998
L 1819 998" style="stroke-width:0;stroke:none;fill:none"/><path  d="M 38 998
L 1819 998" style="stroke-width:0;stroke:none;fill:none"/><path  d="M 38 998
L 1819 998" style="stroke-width:0;stroke:none;fill:none"/><path  d="M 38 998
L 1819 998" style="stroke-width:0;stroke:none;fill:none"/><path  d="M 38 998
L 1819 998" style="stroke-width:0;stroke:none;fill:none"/><path  d="M 38 998
L 1819 998" style="stroke-width:0;stroke:none;fill:none"/><path  d="M 38 998
L 1819 998" style="stroke-width:0;stroke:none;fill:none"/><path  d="M 38 998
L 1819 998" style="stroke-width:0;stroke:none;fill:none"/><path  d="M 38 998
L 1819 998" style="stroke-width:0;stroke:none;fill:none"/><path  d="M 38 998
L 1819 998" style="stroke-width:0;stroke:none;fill:none"/><path  d="M 38 998
L 1819 998" style="stroke-width:0;stroke:none;fill:none"/><path  d="M 38 998
L 1819 998" style="stroke-width:0;stroke:none;fill:none"/><path  d="M 38 998
L 1819 998" style="stroke-width:0;stroke:none;fill:none"/><path  d="M 38 998
L 1819 998" style="stroke-width:0;stroke:none;fill:none"/><path  d="M 38 998
L 1819 998" style="stroke-width:0;stroke:none;fill:none"/><path  d="M 38 998
L 1819 998" style="stroke-width:0;stroke:none;fill:none"/><path  d="M 38 998
L 1819 998" style="stroke-width:0;stroke:none;fill:none"/><path  d="M 38 998
L 1819 998" style="stroke-width:0;stroke:none;fill:none"/><path  d="M 38 998
L 1819 998" style="stroke-width:0;stroke:none;fill:none"/><path  d="M 38 408
L 175 408
L 175 604
L 38 604
L 38 408" style="stroke-width:0;stroke:none;fill:rgba(0,116,217,0.5)"/><path  d="M 38 408
L 175 408" style="stroke-width:1;stroke:rgba(0,116,217,0.5);fill:none"/><path  d="M 258 408
L 395 408
L 395 604
L 258 604
L 258 408" style="stroke-width:0;stroke:none;fill:rgba(0,116,217,0.5)"/><path  d="M 258 408
L 395 408" style="stroke-width:1;stroke:rgba(0,116,217,0.5);fill:none"/><path  d="M 477 408
L 614 408
L 614 604
L 477 604
L 477 408" style="stroke-width:0;stroke:none;fill:rgba(0,116,217,0.5)"/><path  d="M 477 408
L 614 408" style="stroke-width:1;stroke:rgba(0,116,217,0.5);fill:none"/><path  d="M 696 408
L 833 408
L 833 604
L 696 604
L 696 408" style="stroke-width:0;stroke:none;fill:rgba(0,116,217,0.5)"/><path  d="M 696 408
L 833 408" style="stroke-width:1;stroke:rgba(0,116,217,0.5);fill:none"/><path  d="M 915 408
L 1052 408
L 1052 604
L 915 604
L 915 408" style="stroke-width:0;stroke:none;fill:rgba(0,217,101,0.5)"/><path  d="M 915 408
L 1052 408" style="stroke-width:1;stroke:rgba(0,217,101,0.5);fill:none"/><path  d="M 1134 408
L 1271 408
L 1271 604
L 1134 604
L 1134 408" style="stroke-width:0;stroke:none;fill:rgba(0,217,101,0.5)"/><path  d="M 1134 408
L 1271 408" style="stroke-width:1;stroke:rgba(0,217,101,0.5);fill:none"/><path  d="M 1354 408
L 1491 408
L 1491 604
L 1354 604
L 1354 408" style="stroke-width:0;stroke:none;fill:rgba(0,217,101,0.5)"/><path  d="M 1354 408
L 1491 408" style="stroke-width:1;stroke:rgba(0,217,101,0.5);fill:none"/><path  d="M 1573 408
L 1710 408
L 1710 604
L 1573 604
L 1573 408" style="stroke-width:0;stroke:none;fill:rgba(0,217,101,0.5)"/><path  d="M 1573 408
L 1710 408" style="stroke-width:1;stroke:rgba(0,217,101,0.5);fill:none"/><path  d="M 737 211
L 1011 211
L 1011 604
L 737 604
L 737 211" style="stroke-width:0;stroke:none;fill:rgba(0,116,217,0.5)"/><path  d="M 737 211
L 1011 211" style="stroke-width:1;stroke:rgba(0,116,217,0.5);fill:none"/><path  d="M 38 604
L 1052 604" style="stroke-width:10;stroke:rgba(0,116,217,0.5);fill:none"/><path  d="M 806 604
L 1819 604" style="stroke-width:10;stroke:rgba(0,217,101,0.5);fill:none"/><path  d="M 107 408
L 117 393
L 181 393
L 181 423
L 117 423
L 107 408
Z" style="stroke-width:1;stroke:rgba(0,217,101,1.0);fill:rgba(255,255,255,1.0)"/><text x="122" y="418" style="stroke-width:0;stroke:none;fill:rgba(51,51,51,1.0);font-size:20.8px;font-family:'Roboto Medium',sans-serif">916.8</text><path  d="M 326 408
L 336 393
L 382 393
L 382 423
L 336 423
L 326 408
Z" style="stroke-width:1;stroke:rgba(0,217,101,1.0);fill:rgba(255,255,255,1.0)"/><text x="341" y="418" style="stroke-width:0;stroke:none;fill:rgba(51,51,51,1.0);font-size:20.8px;font-family:'Roboto Medium',sans-serif">917</text><path  d="M 545 408
L 555 393
L 619 393
L 619 423
L 555 423
L 545 408
Z" style="stroke-width:1;stroke:rgba(0,217,101,1.0);fill:rgba(255,255,255,1.0)"/><text x="560" y="418" style="stroke-width:0;stroke:none;fill:rgba(51,51,51,1.0);font-size:20.8px;font-family:'Roboto Medium',sans-serif">917.2</text><path  d="M 765 408
L 775 393
L 839 393
L 839 423
L 775 423
L 765 408
Z" style="stroke-width:1;stroke:rgba(0,217,101,1.0);fill:rgba(255,255,255,1.0)"/><text x="780" y="418" style="stroke-width:0;stroke:none;fill:rgba(51,51,51,1.0);font-size:20.8px;font-family:'Roboto Medium',sans-serif">917.4</text><path  d="M 984 408
L 994 393
L 1058 393
L 1058 423
L 994 423
L 984 408
Z" style="stroke-width:1;stroke:rgba(0,217,101,1.0);fill:rgba(255,255,255,1.0)"/><text x="999" y="418" style="stroke-width:0;stroke:none;fill:rgba(51,51,51,1.0);font-size:20.8px;font-family:'Roboto Medium',sans-serif">917.6</text><path  d="M 1203 408
L 1213 393
L 1277 393
L 1277 423
L 1213 423
L 1203 408
Z" style="stroke-width:1;stroke:rgba(0,217,101,1.0);fill:rgba(255,255,255,1.0)"/><text x="1218" y="418" style="stroke-width:0;stroke:none;fill:rgba(51,51,51,1.0);font-size:20.8px;font-family:'Roboto Medium',sans-serif">917.8</text><path  d="M 1422 408
L 1432 393
L 1478 393
L 1478 423
L 1432 423
L 1422 408
Z" style="stroke-width:1;stroke:rgba(0,217,101,1.0);fill:rgba(255,255,255,1.0)"/><text x="1437" y="418" style="stroke-width:0;stroke:none;fill:rgba(51,51,51,1.0);font-size:20.8px;font-family:'Roboto Medium',sans-serif">918</text><path  d="M 1641 408
L 1651 393
L 1715 393
L 1715 423
L 1651 423
L 1641 408
Z" style="stroke-width:1;stroke:rgba(0,217,101,1.0);fill:rgba(255,255,255,1.0)"/><text x="1656" y="418" style="stroke-width:0;stroke:none;fill:rgba(51,51,51,1.0);font-size:20.8px;font-family:'Roboto Medium',sans-serif">918.2</text><path  d="M 874 211
L 884 196
L 999 196
L 999 226
L 884 226
L 874 211
Z" style="stroke-width:1;stroke:rgba(0,217,101,1.0);fill:rgba(255,255,255,1.0)"/><text x="889" y="221" style="stroke-width:0;stroke:none;fill:rgba(51,51,51,1.0);font-size:20.8px;font-family:'Roboto Medium',sans-serif">917.5 (Std)</text><path  d="M 545 604
L 555 589
L 700 589
L 700 619
L 555 619
L 545 604
Z" style="stroke-width:1;stroke:rgba(0,217,101,1.0);fill:rgba(255,255,255,1.0)"/><text x="560" y="614" style="stroke-width:0;stroke:none;fill:rgba(51,51,51,1.0);font-size:20.8px;font-family:'Roboto Medium',sans-serif">Radio 0: 917.2</text><path  d="M 1313 604
L 1323 589
L 1468 589
L 1468 619
L 1323 619
L 1313 604
Z" style="stroke-width:1;stroke:rgba(0,217,101,1.0);fill:rgba(255,255,255,1.0)"/><text x="1328" y="614" style="stroke-width:0;stroke:none;fill:rgba(51,51,51,1.0);font-size:20.8px;font-family:'Roboto Medium',sans-serif">Radio 1: 917.9</text><text x="793" y="47" style="stroke-width:0;stroke:none;fill:rgba(51,51,51,1.0);font-size:37.5px;font-family:'Roboto Medium',sans-serif">AU_915_928_FSB_2</text></svg>