<svg xmlns="http://www.w3.org/2000/svg" xmlns:xlink="http://www.w3.org/1999/xlink" width="1920" height="1080">\n<path  d="M 0 0
L 1920 0
L 1920 1080
L 0 1080
L 0 0" style="stroke-width:0;stroke:rgba(255,255,255,1.0);fill:rgba(255,255,255,1.0)"/><path  d="M 38 15
L 1819 15
L 1819 998
L 38 998
L 38 15" style="stroke-width:0;stroke:rgba(255,255,255,1.0);fill:rgba(255,255,255,1.0)"/><path  d="M 38 998
L 1819 998" style="stroke-width:1;stroke:rgba(51,51,51,1.0);fill:none"/><path  d="M 38 998
L 38 1003" style="stroke-width:1;stroke:rgba(51,51,51,1.0);fill:none"/><text x="38" y="1018" style="stroke-width:0;stroke:none;fill:rgba(51,51,51,1.0);font-size:20.8px;font-family:'Roboto Medium',sans-serif" transform="rotate(45.00,38,1018)">433.012</text><path  d="M 206 998
L 206 1003" style="stroke-width:1;stroke:rgba(51,51,51,1.0);fill:none"/><text x="206" y="1018" style="stroke-width:0;stroke:none;fill:rgba(51,51,51,1.0);font-size:20.8px;font-family:'Roboto Medium',sans-serif" transform="rotate(45.00,206,1018)">433.175</text><path  d="M 413 998
L 413 1003" style="stroke-width:1;stroke:rgba(51,51,51,1.0);fill:none"/><text x="413" y="1018" style="stroke-width:0;stroke:none;fill:rgba(51,51,51,1.0);font-size:20.8px;font-family:'Roboto Medium',sans-serif" transform="rotate(45.00,413,1018)">433.375</text><path  d="M 516 998
L 516 1003" style="stroke-width:1;stroke:rgba(51,51,51,1.0);fill:none"/><text x="516" y="1018" style="stroke-width:0;stroke:none;fill:rgba(51,51,51,1.0);font-size:20.8px;font-family:'Roboto Medium',sans-serif" transform="rotate(45.00,516,1018)">433.475</text><path  d="M 619 998
L 619 1003" style="stroke-width:1;stroke:rgba(51,51,51,1.0);fill:none"/><text x="619" y="1018" style="stroke-width:0;stroke:none;fill:rgba(51,51,51,1.0);font-size:20.8px;font-family:'Roboto Medium',sans-serif" transform="rotate(45.00,619,1018)">433.575</text><path  d="M 826 998
L 826 1003" style="stroke-width:1;stroke:rgba(51,51,51,1.0);fill:none"/><text x="826" y="1018" style="stroke-width:0;stroke:none;fill:rgba(51,51,51,1.0);font-size:20.8px;font-family:'Roboto Medium',sans-serif" transform="rotate(45.00,826,1018)">433.775</text><path  d="M 864 998
L 864 1003" style="stroke-width:1;stroke:rgba(51,51,51,1.0);fill:none"/><text x="864" y="1018" style="stroke-width:0;stroke:none;fill:rgba(51,51,51,1.0);font-size:20.8px;font-family:'Roboto Medium',sans-serif" transform="rotate(45.00,864,1018)">433.812</text><path  d="M 994 998
L 994 1003" style="stroke-width:1;stroke:rgba(51,51,51,1.0);fill:none"/><text x="994" y="1018" style="stroke-width:0;stroke:none;fill:rgba(51,51,51,1.0);font-size:20.8px;font-family:'Roboto Medium',sans-serif" transform="rotate(45.00,994,1018)">433.938</text><path  d="M 1032 998
L 1032 1003" style="stroke-width:1;stroke:rgba(51,51,51,1.0);fill:none"/><text x="1032" y="1018" style="stroke-width:0;stroke:none;fill:rgba(51,51,51,1.0);font-size:20.8px;font-family:'Roboto Medium',sans-serif" transform="rotate(45.00,1032,1018)">433.975</text><path  d="M 1135 998
L 1135 1003" style="stroke-width:1;stroke:rgba(51,51,51,1.0);fill:none"/><text x="1135" y="1018" style="stroke-width:0;stroke:none;fill:rgba(51,51,51,1.0);font-size:20.8px;font-family:'Roboto Medium',sans-serif" transform="rotate(45.00,1135,1018)">434.075</text><path  d="M 1239 998
L 1239 1003" style="stroke-width:1;stroke:rgba(51,51,51,1.0);fill:none"/><text x="1239" y="1018" style="stroke-width:0;stroke:none;fill:rgba(51,51,51,1.0);font-size:20.8px;font-family:'Roboto Medium',sans-serif" transform="rotate(45.00,1239,1018)">434.175</text><path  d="M 1342 998
L 1342 1003" style="stroke-width:1;stroke:rgba(51,51,51,1.0);fill:none"/><text x="1342" y="1018" style="stroke-width:0;stroke:none;fill:rgba(51,51,51,1.0);font-size:20.8px;font-family:'Roboto Medium',sans-serif" transform="rotate(45.00,1342,1018)">434.275</text><path  d="M 1445 998
L 1445 1003" style="stroke-width:1;stroke:rgba(51,51,51,1.0);fill:none"/><text x="1445" y="1018" style="stroke-width:0;stroke:none;fill:rgba(51,51,51,1.0);font-size:20.8px;font-family:'Roboto Medium',sans-serif" transform="rotate(45.00,1445,1018)">434.375</text><path  d="M 1652 998
L 1652 1003" style="stroke-width:1;stroke:rgba(51,51,51,1.0);fill:none"/><text x="1652" y="1018" style="stroke-width:0;stroke:none;fill:rgba(51,51,51,1.0);font-size:20.8px;font-family:'Roboto Medium',sans-serif" transform="rotate(45.00,1652,1018)">434.575</text><path  d="M 1819 998
L 1819 1003" style="stroke-width:1;stroke:rgba(51,51,51,1.0);fill:none"/><text x="1819" y="1018" style="stroke-width:0;stroke:none;fill:rgba(51,51,51,1.0);font-size:20.8px;font-family:'Roboto Medium',sans-serif" transform="rotate(45.00,1819,1018)">434.738</text><path  d="M 206 998
L 206 15" style="stroke-width:0;stroke:none;fill:none"/><path  d="M 413 998
L 413 15" style="stroke-width:0;stroke:none;fill:none"/><path  d="M 516 998
L 516 15" style="stroke-width:0;stroke:none;fill:none"/><path  d="M 619 998
L 619 15" style="stroke-width:0;stroke:none;fill:none"/><path  d="M 826 998
L 826 15" style="stroke-width:0;stroke:none;fill:none"/><path  d="M 864 998
L 864 15" style="stroke-width:0;stroke:none;fill:none"/><path  d="M 994 998
L 994 15" style="stroke-width:0;stroke:none;fill:none"/><path  d="M 1032 998
L 1032 15" style="stroke-width:0;stroke:none;fill:none"/><path  d="M 1135 998
L 1135 15" style="stroke-width:0;stroke:none;fill:none"/><path  d="M 1239 998
L 1239 15" style="stroke-width:0;stroke:none;fill:none"/><path  d="M 1342 998
L 1342 15" style="stroke-width:0;stroke:none;fill:none"/><path  d="M 1445 998
L 1445 15" style="stroke-width:0;stroke:none;fill:none"/><path  d="M 1652 998
L 1652 15" style="stroke-width:0;stroke:none;fill:none"/><path  d="M 1820 998
L 1820 15" style="stroke-width:1;stroke:rgba(51,51,51,1.0);fill:none"/><path  d="M 1820 998
L 1825 998" style="stroke-width:1;stroke:rgba(51,51,51,1.0);fill:none"/><text x="1830" y="1008" style="stroke-width:0;stroke:none;fill:rgba(51,51,51,1.0);font-size:20.8px;font-family:'Roboto Medium',sans-serif"></text><path  d="M 1820 801
L 1825 801" style="stroke-width:1;stroke:rgba(51,51,51,1.0);fill:none"/><text x="1830" y="811" style="stroke-width:0;stroke:none;fill:rgba(51,51,51,1.0);font-size:20.8px;font-family:'Roboto Medium',sans-serif">Downlink</text><path  d="M 1820 604
L 1825 604" style="stroke-width:1;stroke:rgba(51,51,51,1.0);fill:none"/><text x="1830" y="614" style="stroke-width:0;stroke:none;fill:rgba(51,51,51,1.0);font-size:20.8px;font-family:'Roboto Medium',sans-serif">Radio</text><path  d="M 1820 408
L 1825 408" style="stroke-width:1;stroke:rgba(51,51,51,1.0);fill:none"/><text x="1830" y="418" style="stroke-width:0;stroke:none;fill:rgba(51,51,51,1.0);font-size:20.8px;font-family:'Roboto Medium',sans-serif">Uplink</text><path  d="M 1820 211
L 1825 211" style="stroke-width:1;stroke:rgba(51,51,51,1.0);fill:none"/><text x="1830" y="221" style="stroke-width:0;stroke:none;fill:rgba(51,51,51,1.0);font-size:20.8px;font-family:'Roboto Medium',sans-serif">Std/FSK</text><path  d="M 1820 15
L 1825 15" style="stroke-width:1;stroke:rgba(51,51,51,1.0);fill:none"/><text x="1830" y="25" style="stroke-width:0;stroke:none;fill:rgba(51,51,51,1.0);font-size:20.8px;font-family:'Roboto Medium',sans-serif"></text><path  d="M 38 604
L 1819 604" style="stroke-width:0;stroke:none;fill:none"/><path  d="M 38 801
L 1819 801" style="stroke-width:0;stroke:none;fill:none"/><path  d="M 38 604
L 1819 604" style="stroke-width:0;stroke:none;fill:none"/><path  d="M 38 408
L 1819 408" style="stroke-width:0;stroke:none;fill:none"/><path  d="M 38 211
L 1819 211" style="stroke-width:0;stroke:none;fill:none"/><path  d="M 37 998
L 37 15" style="stroke-width:1;stroke:rgba(51,51,51,1.0);fill:none"/><path  d="M 37 998
L 32 998" style="stroke-width:1;stroke:rgba(51,51,51,1.0);fill:none"/><text x="-15" y="1008" style="stroke-width:0;stroke:none;fill:rgba(51,51,51,1.0);font-size:20.8px;font-family:'Roboto Medium',sans-serif">0.00</text><path  d="M 37 998
L 32 998" style="stroke-width:1;stroke:rgba(51,51,51,1.0);fill:none"/><text x="-15" y="1008" style="stroke-width:0;stroke:none;fill:rgba(51,51,51,1.0);font-size:20.8px;font-family:'Roboto Medium',sans-serif">0.00</text><path  d="M 37 998
L 32 998" style="stroke-width:1;stroke:rgba(51,51,51,1.0);fill:none"/><text x="-15" y="1008" style="stroke-width:0;stroke:none;fill:rgba(51,51,51,1.0);font-size:20.8px;font-family:'Roboto Medium',sans-serif">0.00</text><path  d="M 37 998
L 32 998" style="stroke-width:1;stroke:rgba(51,51,51,1.0);fill:none"/><text x="-15" y="1008" style="stroke-width:0;stroke:none;fill:rgba(51,51,51,1.0);font-size:20.8px;font-family:'Roboto Medium',sans-serif">0.00</text><path  d="M 37 998
L 32 998" style="stroke-width:1;stroke:rgba(51,51,51,1.0);fill:none"/><text x="-15" y="1008" style="stroke-width:0;stroke:none;fill:rgba(51,51,51,1.0);font-size:20.8px;font-family:'Roboto Medium',sans-serif">0.00</text><path  d="M 37 998
L 32 998" style="stroke-width:1;stroke:rgba(51,51,51,1.0);fill:none"/><text x="-15" y="1008" style="stroke-width:0;stroke:none;fill:rgba(51,51,51,1.0);font-size:20.8px;font-family:'Roboto Medium',sans-serif">0.00</text><path  d="M 37 998
L 32 998" style="stroke-width:1;stroke:rgba(51,51,51,1.0);fill:none"/><text x="-15" y="1008" style="stroke-width:0;stroke:none;fill:rgba(51,51,51,1.0);font-size:20.8px;font-family:'Roboto Medium',sans-serif">0.00</text><path  d="M 37 998
L 32 998" style="stroke-width:1;stroke:rgba(51,51,51,1.0);fill:none"/><text x="-15" y="1008" style="stroke-width:0;stroke:none;fill:rgba(51,51,51,1.0);font-size:20.8px;font-family:'Roboto Medium',sans-serif">0.00</text><path  d="M 37 998
L 32 998" style="stroke-width:1;stroke:rgba(51,51,51,1.0);fill:none"/><text x="-15" y="1008" style="stroke-width:0;stroke:none;fill:rgba(51,51,51,1.0);font-size:20.8px;font-family:'Roboto Medium',sans-serif">0.00</text><path  d="M 37 998
L 32 998" style="stroke-width:1;stroke:rgba(51,51,51,1.0);fill:none"/><text x="-15" y="1008" style="stroke-width:0;stroke:none;fill:rgba(51,51,51,1.0);font-size:20.8px;font-family:'Roboto Medium',sans-serif">0.00</text><path  d="M 37 998
L 32 998" style="stroke-width:1;stroke:rgba(51,51,51,1.0);fill:none"/><text x="-15" y="1008" style="stroke-width:0;stroke:none;fill:rgba(51,51,51,1.0);font-size:20.8px;font-family:'Roboto Medium',sans-serif">0.00</text><path  d="M 37 998
L 32 998" style="stroke-width:1;stroke:rgba(51,51,51,1.0);fill:none"/><text x="-15" y="1008" style="stroke-width:0;stroke:none;fill:rgba(51,51,51,1.0);font-size:20.8px;font-family:'Roboto Medium',sans-serif">0.00</text><path  d="M 37 998
L 32 998" style="stroke-width:1;stroke:rgba(51,51,51,1.0);fill:none"/><text x="-15" y="1008" style="stroke-width:0;stroke:none;fill:rgba(51,51,51,1.0);font-size:20.8px;font-family:'Roboto Medium',sans-serif">0.00</text><path  d="M 37 998
L 32 998" style="stroke-width:1;stroke:rgba(51,51,51,1.0);fill:none"/><text x="-15" y="1008" style="stroke-width:0;stroke:none;fill:rgba(51,51,51,1.0);font-size:20.8px;font-family:'Roboto Medium',sans-serif">0.00</text><path  d="M 37 998
L 32 998" style="stroke-width:1;stroke:rgba(51,51,51,1.0);fill:none"/><text x="-15" y="1008" style="stroke-width:0;stroke:none;fill:rgba(51,51,51,1.0);font-size:20.8px;font-family:'Roboto Medium',sans-serif">0.00</text><path  d="M 37 998
L 32 998" style="stroke-width:1;stroke:rgba(51,51,51,1.0);fill:none"/><text x="-15" y="1008" style="stroke-width:0;stroke:none;fill:rgba(51,51,51,1.0);font-size:20.8px;font-family:'Roboto Medium',sans-serif">0.00</text><path  d="M 37 998
L 32 998" style="stroke-width:1;stroke:rgba(51,51,51,1.0);fill:none"/><text x="-15" y="1008" style="stroke-width:0;stroke:none;fill:rgba(51,51,51,1.0);font-size:20.8px;font-family:'Roboto Medium',sans-serif">0.00</text><path  d="M 37 998
L 32 998" style="stroke-width:1;stroke:rgba(51,51,51,1.0);fill:none"/><text x="-15" y="1008" style="stroke-width:0;stroke:none;fill:rgba(51,51,51,1.0);font-size:20.8px;font-family:'Roboto Medium',sans-serif">0.00</text><path  d="M 37 998
L 32 998" style="stroke-width:1;stroke:rgba(51,51,51,1.0);fill:none"/><text x="-15" y="1008" style="stroke-width:0;stroke:none;fill:rgba(51,51,51,1.0);font-size:20.8px;font-family:'Roboto Medium',sans-serif">0.00</text><path  d="M 37 998
L 32 998" style="stroke-width:1;stroke:rgba(51,51,51,1.0);fill:none"/><text x="-15" y="1008" style="stroke-width:0;stroke:none;fill:rgba(51,51,51,1.0);font-size:20.8px;font-family:'Roboto Medium',sans-serif">0.00</text><path  d="M 37 998
L 32 998" style="stroke-width:1;stroke:rgba(51,51,51,1.0);fill:none"/><text x="-15" y="1008" style="stroke-width:0;stroke:none;fill:rgba(51,51,51,1.0);font-size:20.8px;font-family:'Roboto Medium',sans-serif">0.00</text><path  d="M 37 998
L 32 998" style="stroke-width:1;stroke:rgba(51,51,51,1.0);fill:none"/><text x="-15" y="1008" style="stroke-width:0;stroke:none;fill:rgba(51,51,51,1.0);font-size:20.8px;font-family:'Roboto Medium',sans-serif">0.00</text><path  d="M 37 998
L 32 998" style="stroke-width:1;stroke:rgba(51,51,51,1.0);fill:none"/><text x="-15" y="1008" style="stroke-width:0;stroke:none;fill:rgba(51,51,51,1.0);font-size:20.8px;font-family:'Roboto Medium',sans-serif">0.00</text><path  d="M 38 998
L 1819 998" style="stroke-width:0;stroke:none;fill:none"/><path  d="M 38 998
L 1819 998" style="stroke-width:0;stroke:none;fill:none"/><path  d="M 38 998
L 1819 998" style="stroke-width:0;stroke:none;fill:none"/><path  d="M 38 998
L 1819 998" style="stroke-width:0;stroke:none;fill:none"/><path  d="M 38 998
L 1819 998" style="stroke-width:0;stroke:none;fill:none"/><path  d="M 38 998
L 1819 998" style="stroke-width:0;stroke:none;fill:none"/><path  d="M 38 998
L 1819 998" style="stroke-width:0;stroke:none;fill:none"/><path  d="M 38 998
L 1819 998" style="stroke-width:0;stroke:none;fill:none"/><path  d="M 38 998
L 1819 998" style="stroke-width:0;stroke:none;fill:none"/><path  d="M 38 998
L 1819 998" style="stroke-width:0;stroke:none;fill:none"/><path  d="M 38 998
L 1819 998" style="stroke-width:0;stroke:none;fill:none"/><path  d="M 38 998
L 1819 998" style="stroke-width:0;stroke:none;fill:none"/><path  d="M 38 998
L 1819 998" style="stroke-width:0;stroke:none;fill:none"/><path  d="M 38 998
L 1819 998" style="stroke-width:0;stroke:none;fill:none"/><path  d="M 38 998
L 1819 998" style="stroke-width:0;stroke:none;fill:none"/><path  d="M 38 998
L 1819 998" style="stroke-width:0;stroke:none;fill:none"/><path  d="M 38 998
L 1819 998" style="stroke-width:0;stroke:none;fill:none"/><path  d="M 38 998
L 1819 998" style="stroke-width:0;stroke:none;fill:none"/><path  d="M 38 998
L 1819 998" style="stroke-width:0;stroke:none;fill:none"/><path  d="M 38 998
L 1819 998" style="stroke-width:0;stroke:none;fill:none"/><path  d="M 38 998
L 1819 998" style="stroke-width:0;stroke:none;fill:none"/><path  d="M 38 998
L 1819 998" style="stroke-width:0;stroke:none;fill:none"/><path  d="M 142 408
L 271 408
L 271 604
L 142 604
L 142 408" style="stroke-width:0;stroke:none;fill:rgba(0,116,217,0.5)"/><path  d="M 142 408
L 271 408" style="stroke-width:1;stroke:rgba(0,116,217,0.5);fill:none"/><path  d="M 348 408
L 477 408
L 477 604
L 348 604
L 348 408" style="stroke-width:0;stroke:none;fill:rgba(0,116,217,0.5)"/><path  d="M 348 408
L 477 408" style="stroke-width:1;stroke:rgba(0,116,217,0.5);fill:none"/><path  d="M 555 408
L 684 408
L 684 604
L 555 604
L 555 408" style="stroke-width:0;stroke:none;fill:rgba(0,116,217,0.5)"/><path  d="M 555 408
L 684 408" style="stroke-width:1;stroke:rgba(0,116,217,0.5);fill:none"/><path  d="M 761 408
L 890 408
L 890 604
L 761 604
L 761 408" style="stroke-width:0;stroke:none;fill:rgba(0,116,217,0.5)"/><path  d="M 761 408
L 890 408" style="stroke-width:1;stroke:rgba(0,116,217,0.5);fill:none"/><path  d="M 968 408
L 1097 408
L 1097 604
L 968 604
L 968 408" style="stroke-width:0;stroke:none;fill:rgba(0,217,101,0.5)"/><path  d="M 968 408
L 1097 408" style="stroke-width:1;stroke:rgba(0,217,101,0.5);fill:none"/><path  d="M 1174 408
L 1303 408
L 1303 604
L 1174 604
L 1174 408" style="stroke-width:0;stroke:none;fill:rgba(0,217,101,0.5)"/><path  d="M 1174 408
L 1303 408" style="stroke-width:1;stroke:rgba(0,217,101,0.5);fill:none"/><path  d="M 1381 408
L 1510 408
L 1510 604
L 1381 604
L 1381 408" style="stroke-width:0;stroke:none;fill:rgba(0,217,101,0.5)"/><path  d="M 1381 408
L 1510 408" style="stroke-width:1;stroke:rgba(0,217,101,0.5);fill:none"/><path  d="M 1587 408
L 1716 408
L 1716 604
L 1587 604
L 1587 408" style="stroke-width:0;stroke:none;fill:rgba(0,217,101,0.5)"/><path  d="M 1587 408
L 1716 408" style="stroke-width:1;stroke:rgba(0,217,101,0.5);fill:none"/><path  d="M 1006 211
L 1265 211
L 1265 604
L 1006 604
L 1006 211" style="stroke-width:0;stroke:none;fill:rgba(0,217,101,0.5)"/><path  d="M 1006 211
L 1265 211" style="stroke-width:1;stroke:rgba(0,217,101,0.5);fill:none"/><path  d="M 142 801
L 271 801
L 271 604
L 142 604
L 142 801" style="stroke-width:0;stroke:none;fill:rgba(0,217,210,0.5)"/><path  d="M 142 801
L 271 801" style="stroke-width:1;stroke:rgba(0,217,210,0.5);fill:none"/><path  d="M 348 801
L 477 801
L 477 604
L 348 604
L 348 801" style="stroke-width:0;stroke:none;fill:rgba(0,217,210,0.5)"/><path  d="M 348 801
L 477 801" style="stroke-width:1;stroke:rgba(0,217,210,0.5);fill:none"/><path  d="M 555 801
L 684 801
L 684 604
L 555 604
L 555 801" style="stroke-width:0;stroke:none;fill:rgba(0,217,210,0.5)"/><path  d="M 555 801
L 684 801" style="stroke-width:1;stroke:rgba(0,217,210,0.5);fill:none"/><path  d="M 761 801
L 890 801
L 890 604
L 761 604
L 761 801" style="stroke-width:0;stroke:none;fill:rgba(0,217,210,0.5)"/><path  d="M 761 801
L 890 801" style="stroke-width:1;stroke:rgba(0,217,210,0.5);fill:none"/><path  d="M 968 801
L 1097 801
L 1097 604
L 968 604
L 968 801" style="stroke-width:0;stroke:none;fill:rgba(0,217,210,0.5)"/><path  d="M 968 801
L 1097 801" style="stroke-width:1;stroke:rgba(0,217,210,0.5);fill:none"/><path  d="M 1174 801
L 1303 801
L 1303 604
L 1174 604
L 1174 801" style="stroke-width:0;stroke:none;fill:rgba(0,217,210,0.5)"/><path  d="M 1174 801
L 1303 801" style="stroke-width:1;stroke:rgba(0,217,210,0.5);fill:none"/><path  d="M 1381 801
L 1510 801
L 1510 604
L 1381 604
L 1381 801" style="stroke-width:0;stroke:none;fill:rgba(0,217,210,0.5)"/><path  d="M 1381 801
L 1510 801" style="stroke-width:1;stroke:rgba(0,217,210,0.5);fill:none"/><path  d="M 1587 801
L 1716 801
L 1716 604
L 1587 604
L 1587 801" style="stroke-width:0;stroke:none;fill:rgba(0,217,210,0.5)"/><path  d="M 1587 801
L 1716 801" style="stroke-width:1;stroke:rgba(0,217,210,0.5);fill:none"/><path  d="M 38 604
L 994 604" style="stroke-width:10;stroke:rgba(0,116,217,0.5);fill:none"/><path  d="M 864 604
L 1819 604" style="stroke-width:10;stroke:rgba(0,217,101,0.5);fill:none"/><path  d="M 206 408
L 216 393
L 303 393
L 303 423
L 216 423
L 206 408
Z" style="stroke-width:1;stroke:rgba(217,101,0,1.0);fill:rgba(255,255,255,1.0)"/><text x="221" y="418" style="stroke-width:0;stroke:none;fill:rgba(51,51,51,1.0);font-size:20.8px;font-family:'Roboto Medium',sans-serif">433.175</text><path  d="M 413 408
L 423 393
L 510 393
L 510 423
L 423 423
L 413 408
Z" style="stroke-width:1;stroke:rgba(217,101,0,1.0);fill:rgba(255,255,255,1.0)"/><text x="428" y="418" style="stroke-width:0;stroke:none;fill:rgba(51,51,51,1.0);font-size:20.8px;font-family:'Roboto Medium',sans-serif">433.375</text><path  d="M 619 408
L 629 393
L 716 393
L 716 423
L 629 423
L 619 408
Z" style="stroke-width:1;stroke:rgba(217,101,0,1.0);fill:rgba(255,255,255,1.0)"/><text x="634" y="418" style="stroke-width:0;stroke:none;fill:rgba(51,51,51,1.0);font-size:20.8px;font-family:'Roboto Medium',sans-serif">433.575</text><path  d="M 826 408
L 836 393
L 923 393
L 923 423
L 836 423
L 826 408
Z" style="stroke-width:1;stroke:rgba(217,101,0,1.0);fill:rgba(255,255,255,1.0)"/><text x="841" y="418" style="stroke-width:0;stroke:none;fill:rgba(51,51,51,1.0);font-size:20.8px;font-family:'Roboto Medium',sans-serif">433.775</text><path  d="M 1032 408
L 1042 393
L 1129 393
L 1129 423
L 1042 423
L 1032 408
Z" style="stroke-width:1;stroke:rgba(217,101,0,1.0);fill:rgba(255,255,255,1.0)"/><text x="1047" y="418" style="stroke-width:0;stroke:none;fill:rgba(51,51,51,1.0);font-size:20.8px;font-family:'Roboto Medium',sans-serif">433.975</text><path  d="M 1239 408
L 1249 393
L 1336 393
L 1336 423
L 1249 423
L 1239 408
Z" style="stroke-width:1;stroke:rgba(217,101,0,1.0);fill:rgba(255,255,255,1.0)"/><text x="1254" y="418" style="stroke-width:0;stroke:none;fill:rgba(51,51,51,1.0);font-size:20.8px;font-family:'Roboto Medium',sans-serif">434.175</text><path  d="M 1445 408
L 1455 393
L 1542 393
L 1542 423
L 1455 423
L 1445 408
Z" style="stroke-width:1;stroke:rgba(217,101,0,1.0);fill:rgba(255,255,255,1.0)"/><text x="1460" y="418" style="stroke-width:0;stroke:none;fill:rgba(51,51,51,1.0);font-size:20.8px;font-family:'Roboto Medium',sans-serif">434.375</text><path  d="M 1652 408
L 1662 393
L 1749 393
L 1749 423
L 1662 423
L 1652 408
Z" style="stroke-width:1;stroke:rgba(217,101,0,1.0);fill:rgba(255,255,255,1.0)"/><text x="1667" y="418" style="stroke-width:0;stroke:none;fill:rgba(51,51,51,1.0);font-size:20.8px;font-family:'Roboto Medium',sans-serif">434.575</text><path  d="M 1135 211
L 1145 196
L 1283 196
L 1283 226
L 1145 226
L 1135 211
Z" style="stroke-width:1;stroke:rgba(217,101,0,1.0);fill:rgba(255,255,255,1.0)"/><text x="1150" y="221" style="stroke-width:0;stroke:none;fill:rgba(51,51,51,1.0);font-size:20.8px;font-family:'Roboto Medium',sans-serif">434.075 (Std)</text><path  d="M 206 801
L 216 786
L 303 786
L 303 816
L 216 816
L 206 801
Z" style="stroke-width:1;stroke:rgba(217,101,0,1.0);fill:rgba(255,255,255,1.0)"/><text x="221" y="811" style="stroke-width:0;stroke:none;fill:rgba(51,51,51,1.0);font-size:20.8px;font-family:'Roboto Medium',sans-serif">433.175</text><path  d="M 413 801
L 423 786
L 510 786
L 510 816
L 423 816
L 413 801
Z" style="stroke-width:1;stroke:rgba(217,101,0,1.0);fill:rgba(255,255,255,1.0)"/><text x="428" y="811" style="stroke-width:0;stroke:none;fill:rgba(51,51,51,1.0);font-size:20.8px;font-family:'Roboto Medium',sans-serif">433.375</text><path  d="M 619 801
L 629 786
L 716 786
L 716 816
L 629 816
L 619 801
Z" style="stroke-width:1;stroke:rgba(217,101,0,1.0);fill:rgba(255,255,255,1.0)"/><text x="634" y="811" style="stroke-width:0;stroke:none;fill:rgba(51,51,51,1.0);font-size:20.8px;font-family:'Roboto Medium',sans-serif">433.575</text><path  d="M 826 801
L 836 786
L 923 786
L 923 816
L 836 816
L 826 801
Z" style="stroke-width:1;stroke:rgba(217,101,0,1.0);fill:rgba(255,255,255,1.0)"/><text x="841" y="811" style="stroke-width:0;stroke:none;fill:rgba(51,51,51,1.0);font-size:20.8px;font-family:'Roboto Medium',sans-serif">433.775</text><path  d="M 1032 801
L 1042 786
L 1129 786
L 1129 816
L 1042 816
L 1032 801
Z" style="stroke-width:1;stroke:rgba(217,101,0,1.0);fill:rgba(255,255,255,1.0)"/><text x="1047" y="811" style="stroke-width:0;stroke:none;fill:rgba(51,51,51,1.0);font-size:20.8px;font-family:'Roboto Medium',sans-serif">433.975</text><path  d="M 1239 801
L 1249 786
L 1336 786
L 1336 816
L 1249 816
L 1239 801
Z" style="stroke-width:1;stroke:rgba(217,101,0,1.0);fill:rgba(255,255,255,1.0)"/><text x="1254" y="811" style="stroke-width:0;stroke:none;fill:rgba(51,51,51,1.0);font-size:20.8px;font-family:'Roboto Medium',sans-serif">434.175</text><path  d="M 1445 801
L 1455 786
L 1542 786
L 1542 816
L 1455 816
L 1445 801
Z" style="stroke-width:1;stroke:rgba(217,101,0,1.0);fill:rgba(255,255,255,1.0)"/><text x="1460" y="811" style="stroke-width:0;stroke:none;fill:rgba(51,51,51,1.0);font-size:20.8px;font-family:'Roboto Medium',sans-serif">434.375</text><path  d="M 1652 801
L 1662 786
L 1749 786
L 1749 816
L 1662 816
L 1652 801
Z" style="stroke-width:1;stroke:rgba(217,101,0,1.0);fill:rgba(255,255,255,1.0)"/><text x="1667" y="811" style="stroke-width:0;stroke:none;fill:rgba(51,51,51,1.0);font-size:20.8px;font-family:'Roboto Medium',sans-serif">434.575</text><path  d="M 516 604
L 526 589
L 694 589
L 694 619
L 526 619
L 516 604
Z" style="stroke-width:1;stroke:rgba(217,101,0,1.0);fill:rgba(255,255,255,1.0)"/><text x="531" y="614" style="stroke-width:0;stroke:none;fill:rgba(51,51,51,1.0);font-size:20.8px;font-family:'Roboto Medium',sans-serif">Radio 0: 433.475</text><path  d="M 1342 604
L 1352 589
L 1520 589
L 1520 619
L 1352 619
L 1342 604
Z" style="stroke-width:1;stroke:rgba(217,101,0,1.0);fill:rgba(255,255,255,1.0)"/><text x="1357" y="614" style="stroke-width:0;stroke:none;fill:rgba(51,51,51,1.0);font-size:20.8px;font-family:'Roboto Medium',sans-serif">Radio 1: 434.275</text><text x="897" y="47" style="stroke-width:0;stroke:none;fill:rgba(51,51,51,1.0);font-size:37.5px;font-family:'Roboto Medium',sans-serif">EU_433</text></svg>