<svg xmlns="http://www.w3.org/2000/svg" xmlns:xlink="http://www.w3.org/1999/xlink" width="1920" height="1080">\n<path  d="M 0 0
L 1920 0
L 1920 1080
L 0 1080
L 0 0" style="stroke-width:0;stroke:rgba(255,255,255,1.0);fill:rgba(255,255,255,1.0)"/><path  d="M 38 15
L 1819 15
L 1819 998
L 38 998
L 38 15" style="stroke-width:0;stroke:rgba(255,255,255,1.0);fill:rgba(255,255,255,1.0)"/><path  d="M 38 998
L 1819 998" style="stroke-width:1;stroke:rgba(51,51,51,1.0);fill:none"/><path  d="M 38 998
L 38 1003" style="stroke-width:1;stroke:rgba(51,51,51,1.0);fill:none"/><text x="38" y="1018" style="stroke-width:0;stroke:none;fill:rgba(51,51,51,1.0);font-size:20.8px;font-family:'Roboto Medium',sans-serif" transform="rotate(45.00,38,1018)">864.737</text><path  d="M 313 998
L 313 1003" style="stroke-width:1;stroke:rgba(51,51,51,1.0);fill:none"/><text x="313" y="1018" style="stroke-width:0;stroke:none;fill:rgba(51,51,51,1.0);font-size:20.8px;font-family:'Roboto Medium',sans-serif" transform="rotate(45.00,313,1018)">865.062</text><path  d="M 429 998
L 429 1003" style="stroke-width:1;stroke:rgba(51,51,51,1.0);fill:none"/><text x="429" y="1018" style="stroke-width:0;stroke:none;fill:rgba(51,51,51,1.0);font-size:20.8px;font-family:'Roboto Medium',sans-serif" transform="rotate(45.00,429,1018)">865.2</text><path  d="M 456 998
L 456 1003" style="stroke-width:1;stroke:rgba(51,51,51,1.0);fill:none"/><text x="456" y="1018" style="stroke-width:0;stroke:none;fill:rgba(51,51,51,1.0);font-size:20.8px;font-family:'Roboto Medium',sans-serif" transform="rotate(45.00,456,1018)">865.232</text><path  d="M 600 998
L 600 1003" style="stroke-width:1;stroke:rgba(51,51,51,1.0);fill:none"/><text x="600" y="1018" style="stroke-width:0;stroke:none;fill:rgba(51,51,51,1.0);font-size:20.8px;font-family:'Roboto Medium',sans-serif" transform="rotate(45.00,600,1018)">865.403</text><path  d="M 819 998
L 819 1003" style="stroke-width:1;stroke:rgba(51,51,51,1.0);fill:none"/><text x="819" y="1018" style="stroke-width:0;stroke:none;fill:rgba(51,51,51,1.0);font-size:20.8px;font-family:'Roboto Medium',sans-serif" transform="rotate(45.00,819,1018)">865.663</text><path  d="M 1039 998
L 1039 1003" style="stroke-width:1;stroke:rgba(51,51,51,1.0);fill:none"/><text x="1039" y="1018" style="stroke-width:0;stroke:none;fill:rgba(51,51,51,1.0);font-size:20.8px;font-family:'Roboto Medium',sans-serif" transform="rotate(45.00,1039,1018)">865.923</text><path  d="M 1091 998
L 1091 1003" style="stroke-width:1;stroke:rgba(51,51,51,1.0);fill:none"/><text x="1091" y="1018" style="stroke-width:0;stroke:none;fill:rgba(51,51,51,1.0);font-size:20.8px;font-family:'Roboto Medium',sans-serif" transform="rotate(45.00,1091,1018)">865.985</text><path  d="M 1260 998
L 1260 1003" style="stroke-width:1;stroke:rgba(51,51,51,1.0);fill:none"/><text x="1260" y="1018" style="stroke-width:0;stroke:none;fill:rgba(51,51,51,1.0);font-size:20.8px;font-family:'Roboto Medium',sans-serif" transform="rotate(45.00,1260,1018)">866.185</text><path  d="M 1429 998
L 1429 1003" style="stroke-width:1;stroke:rgba(51,51,51,1.0);fill:none"/><text x="1429" y="1018" style="stroke-width:0;stroke:none;fill:rgba(51,51,51,1.0);font-size:20.8px;font-family:'Roboto Medium',sans-serif" transform="rotate(45.00,1429,1018)">866.385</text><path  d="M 1598 998
L 1598 1003" style="stroke-width:1;stroke:rgba(51,51,51,1.0);fill:none"/><text x="1598" y="1018" style="stroke-width:0;stroke:none;fill:rgba(51,51,51,1.0);font-size:20.8px;font-family:'Roboto Medium',sans-serif" transform="rotate(45.00,1598,1018)">866.585</text><path  d="M 1767 998
L 1767 1003" style="stroke-width:1;stroke:rgba(51,51,51,1.0);fill:none"/><text x="1767" y="1018" style="stroke-width:0;stroke:none;fill:rgba(51,51,51,1.0);font-size:20.8px;font-family:'Roboto Medium',sans-serif" transform="rotate(45.00,1767,1018)">866.785</text><path  d="M 1819 998
L 1819 1003" style="stroke-width:1;stroke:rgba(51,51,51,1.0);fill:none"/><text x="1819" y="1018" style="stroke-width:0;stroke:none;fill:rgba(51,51,51,1.0);font-size:20.8px;font-family:'Roboto Medium',sans-serif" transform="rotate(45.00,1819,1018)">866.847</text><path  d="M 313 998
L 313 15" style="stroke-width:0;stroke:none;fill:none"/><path  d="M 429 998
L 429 15" style="stroke-width:0;stroke:none;fill:none"/><path  d="M 456 998
L 456 15" style="stroke-width:0;stroke:none;fill:none"/><path  d="M 600 998
L 600 15" style="stroke-width:0;stroke:none;fill:none"/><path  d="M 819 998
L 819 15" style="stroke-width:0;stroke:none;fill:none"/><path  d="M 1039 998
L 1039 15" style="stroke-width:0;stroke:none;fill:none"/><path  d="M 1091 998
L 1091 15" style="stroke-width:0;stroke:none;fill:none"/><path  d="M 1260 998
L 1260 15" style="stroke-width:0;stroke:none;fill:none"/><path  d="M 1429 998
L 1429 15" style="stroke-width:0;stroke:none;fill:none"/><path  d="M 1598 998
L 1598 15" style="stroke-width:0;stroke:none;fill:none"/><path  d="M 1767 998
L 1767 15" style="stroke-width:0;stroke:none;fill:none"/><path  d="M 1820 998
L 1820 15" style="stroke-width:1;stroke:rgba(51,51,51,1.0);fill:none"/><path  d="M 1820 998
L 1825 998" style="stroke-width:1;stroke:rgba(51,51,51,1.0);fill:none"/><text x="1830" y="1008" style="stroke-width:0;stroke:none;fill:rgba(51,51,51,1.0);font-size:20.8px;font-family:'Roboto Medium',sans-serif"></text><path  d="M 1820 801
L 1825 801" style="stroke-width:1;stroke:rgba(51,51,51,1.0);fill:none"/><text x="1830" y="811" style="stroke-width:0;stroke:none;fill:rgba(51,51,51,1.0);font-size:20.8px;font-family:'Roboto Medium',sans-serif">Downlink</text><path  d="M 1820 604
L 1825 604" style="stroke-width:1;stroke:rgba(51,51,51,1.0);fill:none"/><text x="1830" y="614" style="stroke-width:0;stroke:none;fill:rgba(51,51,51,1.0);font-size:20.8px;font-family:'Roboto Medium',sans-serif">Radio</text><path  d="M 1820 408
L 1825 408" style="stroke-width:1;stroke:rgba(51,51,51,1.0);fill:none"/><text x="1830" y="418" style="stroke-width:0;stroke:none;fill:rgba(51,51,51,1.0);font-size:20.8px;font-family:'Roboto Medium',sans-serif">Uplink</text><path  d="M 1820 211
L 1825 211" style="stroke-width:1;stroke:rgba(51,51,51,1.0);fill:none"/><text x="1830" y="221" style="stroke-width:0;stroke:none;fill:rgba(51,51,51,1.0);font-size:20.8px;font-family:'Roboto Medium',sans-serif">Std/FSK</text><path  d="M 1820 15
L 1825 15" style="stroke-width:1;stroke:rgba(51,51,51,1.0);fill:none"/><text x="1830" y="25" style="stroke-width:0;stroke:none;fill:rgba(51,51,51,1.0);font-size:20.8px;font-family:'Roboto Medium',sans-serif"></text><path  d="M 38 604
L 1819 604" style="stroke-width:0;stroke:none;fill:none"/><path  d="M 38 801
L 1819 801" style="stroke-width:0;stroke:none;fill:none"/><path  d="M 38 604
L 1819 604" style="stroke-width:0;stroke:none;fill:none"/><path  d="M 38 408
L 1819 408" style="stroke-width:0;stroke:none;fill:none"/><path  d="M 38 211
L 1819 211" style="stroke-width:0;stroke:none;fill:none"/><path  d="M 37 998
L 37 15" style="stroke-width:1;stroke:rgba(51,51,51,1.0);fill:none"/><path  d="M 37 998
L 32 998" style="stroke-width:1;stroke:rgba(51,51,51,1.0);fill:none"/><text x="-15" y="1008" style="stroke-width:0;stroke:none;fill:rgba(51,51,51,1.0);font-size:20.8px;font-family:'Roboto Medium',sans-serif">0.00</text><path  d="M 37 998
L 32 998" style="stroke-width:1;stroke:rgba(51,51,51,1.0);fill:none"/><text x="-15" y="1008" style="stroke-width:0;stroke:none;fill:rgba(51,51,51,1.0);font-size:20.8px;font-family:'Roboto Medium',sans-serif">0.00</text><path  d="M 37 998
L 32 998" style="stroke-width:1;stroke:rgba(51,51,51,1.0);fill:none"/><text x="-15" y="1008" style="stroke-width:0;stroke:none;fill:rgba(51,51,51,1.0);font-size:20.8px;font-family:'Roboto Medium',sans-serif">0.00</text><path  d="M 37 998
L 32 998" style="stroke-width:1;stroke:rgba(51,51,51,1.0);fill:none"/><text x="-15" y="1008" style="stroke-width:0;stroke:none;fill:rgba(51,51,51,1.0);font-size:20.8px;font-family:'Roboto Medium',sans-serif">0.00</text><path  d="M 37 998
L 32 998" style="stroke-width:1;stroke:rgba(51,51,51,1.0);fill:none"/><text x="-15" y="1008" style="stroke-width:0;stroke:none;fill:rgba(51,51,51,1.0);font-size:20.8px;font-family:'Roboto Medium',sans-serif">0.00</text><path  d="M 37 998
L 32 998" style="stroke-width:1;stroke:rgba(51,51,51,1.0);fill:none"/><text x="-15" y="1008" style="stroke-width:0;stroke:none;fill:rgba(51,51,51,1.0);font-size:20.8px;font-family:'Roboto Medium',sans-serif">0.00</text><path  d="M 37 998
L 32 998" style="stroke-width:1;stroke:rgba(51,51,51,1.0);fill:none"/><text x="-15" y="1008" style="stroke-width:0;stroke:none;fill:rgba(51,51,51,1.0);font-size:20.8px;font-family:'Roboto Medium',sans-serif">0.00</text><path  d="M 37 998
L 32 998" style="stroke-width:1;stroke:rgba(51,51,51,1.0);fill:none"/><text x="-15" y="1008" style="stroke-width:0;stroke:none;fill:rgba(51,51,51,1.0);font-size:20.8px;font-family:'Roboto Medium',sans-serif">0.00</text><path  d="M 37 998
L 32 998" style="stroke-width:1;stroke:rgba(51,51,51,1.0);fill:none"/><text x="-15" y="1008" style="stroke-width:0;stroke:none;fill:rgba(51,51,51,1.0);font-size:20.8px;font-family:'Roboto Medium',sans-serif">0.00</text><path  d="M 37 998
L 32 998" style="stroke-width:1;stroke:rgba(51,51,51,1.0);fill:none"/><text x="-15" y="1008" style="stroke-width:0;stroke:none;fill:rgba(51,51,51,1.0);font-size:20.8px;font-family:'Roboto Medium',sans-serif">0.00</text><path  d="M 37 998
L 32 998" style="stroke-width:1;stroke:rgba(51,51,51,1.0);fill:none"/><text x="-15" y="1008" style="stroke-width:0;stroke:none;fill:rgba(51,51,51,1.0);font-size:20.8px;font-family:'Roboto Medium',sans-serif">0.00</text><path  d="M 37 998
L 32 998" style="stroke-width:1;stroke:rgba(51,51,51,1.0);fill:none"/><text x="-15" y="1008" style="stroke-width:0;stroke:none;fill:rgba(51,51,51,1.0);font-size:20.8px;font-family:'Roboto Medium',sans-serif">0.00</text><path  d="M 37 998
L 32 998" style="stroke-width:1;stroke:rgba(51,51,51,1.0);fill:none"/><text x="-15" y="1008" style="stroke-width:0;stroke:none;fill:rgba(51,51,51,1.0);font-size:20.8px;font-family:'Roboto Medium',sans-serif">0.00</text><path  d="M 37 998
L 32 998" style="stroke-width:1;stroke:rgba(51,51,51,1.0);fill:none"/><text x="-15" y="1008" style="stroke-width:0;stroke:none;fill:rgba(51,51,51,1.0);font-size:20.8px;font-family:'Roboto Medium',sans-serif">0.00</text><path  d="M 37 998
L 32 998" style="stroke-width:1;stroke:rgba(51,51,51,1.0);fill:none"/><text x="-15" y="1008" style="stroke-width:0;stroke:none;fill:rgba(51,51,51,1.0);font-size:20.8px;font-family:'Roboto Medium',sans-serif">0.00</text><path  d="M 37 998
L 32 998" style="stroke-width:1;stroke:rgba(51,51,51,1.0);fill:none"/><text x="-15" y="1008" style="stroke-width:0;stroke:none;fill:rgba(51,51,51,1.0);font-size:20.8px;font-family:'Roboto Medium',sans-serif">0.00</text><path  d="M 37 998
L 32 998" style="stroke-width:1;stroke:rgba(51,51,51,1.0);fill:none"/><text x="-15" y="1008" style="stroke-width:0;stroke:none;fill:rgba(51,51,51,1.0);font-size:20.8px;font-family:'Roboto Medium',sans-serif">0.00</text><path  d="M 37 998
L 32 998" style="stroke-width:1;stroke:rgba(51,51,51,1.0);fill:none"/><text x="-15" y="1008" style="stroke-width:0;stroke:none;fill:rgba(51,51,51,1.0);font-size:20.8px;font-family:'Roboto Medium',sans-serif">0.00</text><path  d="M 37 998
L 32 998" style="stroke-width:1;stroke:rgba(51,51,51,1.0);fill:none"/><text x="-15" y="1008" style="stroke-width:0;stroke:none;fill:rgba(51,51,51,1.0);font-size:20.8px;font-family:'Roboto Medium',sans-serif">0.00</text><path  d="M 37 998
L 32 998" style="stroke-width:1;stroke:rgba(51,51,51,1.0);fill:none"/><text x="-15" y="1008" style="stroke-width:0;stroke:none;fill:rgba(51,51,51,1.0);font-size:20.8px;font-family:'Roboto Medium',sans-serif">0.00</text><path  d="M 37 998
L 32 998" style="stroke-width:1;stroke:rgba(51,51,51,1.0);fill:none"/><text x="-15" y="1008" style="stroke-width:0;stroke:none;fill:rgba(51,51,51,1.0);font-size:20.8px;font-family:'Roboto Medium',sans-serif">0.00</text><path  d="M 37 998
L 32 998" style="stroke-width:1;stroke:rgba(51,51,51,1.0);fill:none"/><text x="-15" y="1008" style="stroke-width:0;stroke:none;fill:rgba(51,51,51,1.0);font-size:20.8px;font-family:'Roboto Medium',sans-serif">0.00</text><path  d="M 37 998
L 32 998" style="stroke-width:1;stroke:rgba(51,51,51,1.0);fill:none"/><text x="-15" y="1008" style="stroke-width:0;stroke:none;fill:rgba(51,51,51,1.0);font-size:20.8px;font-family:'Roboto Medium',sans-serif">0.00</text><path  d="M 38 998
L 1819 998" style="stroke-width:0;stroke:none;fill:none"/><path  d="M 38 998
L 1819 998" style="stroke-width:0;stroke:none;fill:none"/><path  d="M 38 998
L 1819 998" style="stroke-width:0;stroke:none;fill:none"/><path  d="M 38 998
L 1819 998" style="stroke-width:0;stroke:none;fill:none"/><path  d="M 38 998
L 1819 998" style="stroke-width:0;stroke:none;fill:none"/><path  d="M 38 998
L 1819 998" style="stroke-width:0;stroke:none;fill:none"/><path  d="M 38 998
L 1819 998" style="stroke-width:0;stroke:none;fill:none"/><path  d="M 38 998
L 1819 998" style="stroke-width:0;stroke:none;fill:none"/><path  d="M 38 998
L 1819 998" style="stroke-width:0;stroke:none;fill:none"/><path  d="M 38 998
L 1819 998" style="stroke-width:0;stroke:none;fill:none"/><path  d="M 38 998
L 1819 998" style="stroke-width:0;stroke:none;fill:none"/><path  d="M 38 998
L 1819 998" style="stroke-width:0;stroke:none;fill:none"/><path  d="M 38 998
L 1819 998" style="stroke-width:0;stroke:none;fill:none"/><path  d="M 38 998
L 1819 998" style="stroke-width:0;stroke:none;fill:none"/><path  d="M 38 998
L 1819 998" style="stroke-width:0;stroke:none;fill:none"/><path  d="M 38 998
L 1819 998" style="stroke-width:0;stroke:none;fill:none"/><path  d="M 38 998
L 1819 998" style="stroke-width:0;stroke:none;fill:none"/><path  d="M 38 998
L 1819 998" style="stroke-width:0;stroke:none;fill:none"/><path  d="M 38 998
L 1819 998" style="stroke-width:0;stroke:none;fill:none"/><path  d="M 38 998
L 1819 998" style="stroke-width:0;stroke:none;fill:none"/><path  d="M 38 998
L 1819 998" style="stroke-width:0;stroke:none;fill:none"/><path  d="M 38 998
L 1819 998" style="stroke-width:0;stroke:none;fill:none"/><path  d="M 260 408
L 366 408
L 366 604
L 260 604
L 260 408" style="stroke-width:0;stroke:none;fill:rgba(0,116,217,0.5)"/><path  d="M 260 408
L 366 408" style="stroke-width:1;stroke:rgba(0,116,217,0.5);fill:none"/><path  d="M 547 408
L 653 408
L 653 604
L 547 604
L 547 408" style="stroke-width:0;stroke:none;fill:rgba(0,116,217,0.5)"/><path  d="M 547 408
L 653 408" style="stroke-width:1;stroke:rgba(0,116,217,0.5);fill:none"/><path  d="M 1039 408
L 1144 408
L 1144 604
L 1039 604
L 1039 408" style="stroke-width:0;stroke:none;fill:rgba(0,217,101,0.5)"/><path  d="M 1039 408
L 1144 408" style="stroke-width:1;stroke:rgba(0,217,101,0.5);fill:none"/><path  d="M 404 408
L 509 408
L 509 604
L 404 604
L 404 408" style="stroke-width:0;stroke:none;fill:rgba(0,116,217,0.5)"/><path  d="M 404 408
L 509 408" style="stroke-width:1;stroke:rgba(0,116,217,0.5);fill:none"/><path  d="M 1208 408
L 1313 408
L 1313 604
L 1208 604
L 1208 408" style="stroke-width:0;stroke:none;fill:rgba(0,217,101,0.5)"/><path  d="M 1208 408
L 1313 408" style="stroke-width:1;stroke:rgba(0,217,101,0.5);fill:none"/><path  d="M 1376 408
L 1482 408
L 1482 604
L 1376 604
L 1376 408" style="stroke-width:0;stroke:none;fill:rgba(0,217,101,0.5)"/><path  d="M 1376 408
L 1482 408" style="stroke-width:1;stroke:rgba(0,217,101,0.5);fill:none"/><path  d="M 1545 408
L 1651 408
L 1651 604
L 1545 604
L 1545 408" style="stroke-width:0;stroke:none;fill:rgba(0,217,101,0.5)"/><path  d="M 1545 408
L 1651 408" style="stroke-width:1;stroke:rgba(0,217,101,0.5);fill:none"/><path  d="M 1714 408
L 1819 408
L 1819 604
L 1714 604
L 1714 408" style="stroke-width:0;stroke:none;fill:rgba(0,217,101,0.5)"/><path  d="M 1714 408
L 1819 408" style="stroke-width:1;stroke:rgba(0,217,101,0.5);fill:none"/><path  d="M 260 801
L 366 801
L 366 604
L 260 604
L 260 801" style="stroke-width:0;stroke:none;fill:rgba(0,217,210,0.5)"/><path  d="M 260 801
L 366 801" style="stroke-width:1;stroke:rgba(0,217,210,0.5);fill:none"/><path  d="M 547 801
L 653 801
L 653 604
L 547 604
L 547 801" style="stroke-width:0;stroke:none;fill:rgba(0,217,210,0.5)"/><path  d="M 547 801
L 653 801" style="stroke-width:1;stroke:rgba(0,217,210,0.5);fill:none"/><path  d="M 1039 801
L 1144 801
L 1144 604
L 1039 604
L 1039 801" style="stroke-width:0;stroke:none;fill:rgba(0,217,210,0.5)"/><path  d="M 1039 801
L 1144 801" style="stroke-width:1;stroke:rgba(0,217,210,0.5);fill:none"/><path  d="M 404 801
L 509 801
L 509 604
L 404 604
L 404 801" style="stroke-width:0;stroke:none;fill:rgba(0,217,210,0.5)"/><path  d="M 404 801
L 509 801" style="stroke-width:1;stroke:rgba(0,217,210,0.5);fill:none"/><path  d="M 1208 801
L 1313 801
L 1313 604
L 1208 604
L 1208 801" style="stroke-width:0;stroke:none;fill:rgba(0,217,210,0.5)"/><path  d="M 1208 801
L 1313 801" style="stroke-width:1;stroke:rgba(0,217,210,0.5);fill:none"/><path  d="M 1376 801
L 1482 801
L 1482 604
L 1376 604
L 1376 801" style="stroke-width:0;stroke:none;fill:rgba(0,217,210,0.5)"/><path  d="M 1376 801
L 1482 801" style="stroke-width:1;stroke:rgba(0,217,210,0.5);fill:none"/><path  d="M 1545 801
L 1651 801
L 1651 604
L 1545 604
L 1545 801" style="stroke-width:0;stroke:none;fill:rgba(0,217,210,0.5)"/><path  d="M 1545 801
L 1651 801" style="stroke-width:1;stroke:rgba(0,217,210,0.5);fill:none"/><path  d="M 1714 801
L 1819 801
L 1819 604
L 1714 604
L 1714 801" style="stroke-width:0;stroke:none;fill:rgba(0,217,210,0.5)"/><path  d="M 1714 801
L 1819 801" style="stroke-width:1;stroke:rgba(0,217,210,0.5);fill:none"/><path  d="M 38 604
L 819 604" style="stroke-width:10;stroke:rgba(0,116,217,0.5);fill:none"/><path  d="M 1039 604
L 1819 604" style="stroke-width:10;stroke:rgba(0,217,101,0.5);fill:none"/><path  d="M 313 408
L 323 393
L 410 393
L 410 423
L 323 423
L 313 408
Z" style="stroke-width:1;stroke:rgba(0,217,210,1.0);fill:rgba(255,255,255,1.0)"/><text x="328" y="418" style="stroke-width:0;stroke:none;fill:rgba(51,51,51,1.0);font-size:20.8px;font-family:'Roboto Medium',sans-serif">865.062</text><path  d="M 600 408
L 610 393
L 697 393
L 697 423
L 610 423
L 600 408
Z" style="stroke-width:1;stroke:rgba(0,217,210,1.0);fill:rgba(255,255,255,1.0)"/><text x="615" y="418" style="stroke-width:0;stroke:none;fill:rgba(51,51,51,1.0);font-size:20.8px;font-family:'Roboto Medium',sans-serif">865.403</text><path  d="M 1091 408
L 1101 393
L 1188 393
L 1188 423
L 1101 423
L 1091 408
Z" style="stroke-width:1;stroke:rgba(0,217,210,1.0);fill:rgba(255,255,255,1.0)"/><text x="1106" y="418" style="stroke-width:0;stroke:none;fill:rgba(51,51,51,1.0);font-size:20.8px;font-family:'Roboto Medium',sans-serif">865.985</text><path  d="M 456 408
L 466 393
L 553 393
L 553 423
L 466 423
L 456 408
Z" style="stroke-width:1;stroke:rgba(0,217,210,1.0);fill:rgba(255,255,255,1.0)"/><text x="471" y="418" style="stroke-width:0;stroke:none;fill:rgba(51,51,51,1.0);font-size:20.8px;font-family:'Roboto Medium',sans-serif">865.232</text><path  d="M 1260 408
L 1270 393
L 1357 393
L 1357 423
L 1270 423
L 1260 408
Z" style="stroke-width:1;stroke:rgba(0,217,210,1.0);fill:rgba(255,255,255,1.0)"/><text x="1275" y="418" style="stroke-width:0;stroke:none;fill:rgba(51,51,51,1.0);font-size:20.8px;font-family:'Roboto Medium',sans-serif">866.185</text><path  d="M 1429 408
L 1439 393
L 1526 393
L 1526 423
L 1439 423
L 1429 408
Z" style="stroke-width:1;stroke:rgba(0,217,210,1.0);fill:rgba(255,255,255,1.0)"/><text x="1444" y="418" style="stroke-width:0;stroke:none;fill:rgba(51,51,51,1.0);font-size:20.8px;font-family:'Roboto Medium',sans-serif">866.385</text><path  d="M 1598 408
L 1608 393
L 1695 393
L 1695 423
L 1608 423
L 1598 408
Z" style="stroke-width:1;stroke:rgba(0,217,210,1.0);fill:rgba(255,255,255,1.0)"/><text x="1613" y="418" style="stroke-width:0;stroke:none;fill:rgba(51,51,51,1.0);font-size:20.8px;font-family:'Roboto Medium',sans-serif">866.585</text><path  d="M 1767 408
L 1777 393
L 1864 393
L 1864 423
L 1777 423
L 1767 408
Z" style="stroke-width:1;stroke:rgba(0,217,210,1.0);fill:rgba(255,255,255,1.0)"/><text x="1782" y="418" style="stroke-width:0;stroke:none;fill:rgba(51,51,51,1.0);font-size:20.8px;font-family:'Roboto Medium',sans-serif">866.785</text><path  d="M 313 801
L 323 786
L 410 786
L 410 816
L 323 816
L 313 801
Z" style="stroke-width:1;stroke:rgba(0,217,210,1.0);fill:rgba(255,255,255,1.0)"/><text x="328" y="811" style="stroke-width:0;stroke:none;fill:rgba(51,51,51,1.0);font-size:20.8px;font-family:'Roboto Medium',sans-serif">865.062</text><path  d="M 600 801
L 610 786
L 697 786
L 697 816
L 610 816
L 600 801
Z" style="stroke-width:1;stroke:rgba(0,217,210,1.0);fill:rgba(255,255,255,1.0)"/><text x="615" y="811" style="stroke-width:0;stroke:none;fill:rgba(51,51,51,1.0);font-size:20.8px;font-family:'Roboto Medium',sans-serif">865.403</text><path  d="M 1091 801
L 1101 786
L 1188 786
L 1188 816
L 1101 816
L 1091 801
Z" style="stroke-width:1;stroke:rgba(0,217,210,1.0);fill:rgba(255,255,255,1.0)"/><text x="1106" y="811" style="stroke-width:0;stroke:none;fill:rgba(51,51,51,1.0);font-size:20.8px;font-family:'Roboto Medium',sans-serif">865.985</text><path  d="M 456 801
L 466 786
L 553 786
L 553 816
L 466 816
L 456 801
Z" style="stroke-width:1;stroke:rgba(0,217,210,1.0);fill:rgba(255,255,255,1.0)"/><text x="471" y="811" style="stroke-width:0;stroke:none;fill:rgba(51,51,51,1.0);font-size:20.8px;font-family:'Roboto Medium',sans-serif">865.232</text><path  d="M 1260 801
L 1270 786
L 1357 786
L 1357 816
L 1270 816
L 1260 801
Z" style="stroke-width:1;stroke:rgba(0,217,210,1.0);fill:rgba(255,255,255,1.0)"/><text x="1275" y="811" style="stroke-width:0;stroke:none;fill:rgba(51,51,51,1.0);font-size:20.8px;font-family:'Roboto Medium',sans-serif">866.185</text><path  d="M 1429 801
L 1439 786
L 1526 786
L 1526 816
L 1439 816
L 1429 801
Z" style="stroke-width:1;stroke:rgba(0,217,210,1.0);fill:rgba(255,255,255,1.0)"/><text x="1444" y="811" style="stroke-width:0;stroke:none;fill:rgba(51,51,51,1.0);font-size:20.8px;font-family:'Roboto Medium',sans-serif">866.385</text><path  d="M 1598 801
L 1608 786
L 1695 786
L 1695 816
L 1608 816
L 1598 801
Z" style="stroke-width:1;stroke:rgba(0,217,210,1.0);fill:rgba(255,255,255,1.0)"/><text x="1613" y="811" style="stroke-width:0;stroke:none;fill:rgba(51,51,51,1.0);font-size:20.8px;font-family:'Roboto Medium',sans-serif">866.585</text><path  d="M 1767 801
L 1777 786
L 1864 786
L 1864 816
L 1777 816
L 1767 801
Z" style="stroke-width:1;stroke:rgba(0,217,210,1.0);fill:rgba(255,255,255,1.0)"/><text x="1782" y="811" style="stroke-width:0;stroke:none;fill:rgba(51,51,51,1.0);font-size:20.8px;font-family:'Roboto Medium',sans-serif">866.785</text><path  d="M 429 604
L 439 589
L 584 589
L 584 619
L 439 619
L 429 604
Z" style="stroke-width:1;stroke:rgba(0,217,210,1.0);fill:rgba(255,255,255,1.0)"/><text x="444" y="614" style="stroke-width:0;stroke:none;fill:rgba(51,51,51,1.0);font-size:20.8px;font-family:'Roboto Medium',sans-serif">Radio 0: 865.2</text><path  d="M 1429 604
L 1439 589
L 1607 589
L 1607 619
L 1439 619
L 1429 604
Z" style="stroke-width:1;stroke:rgba(0,217,210,1.0);fill:rgba(255,255,255,1.0)"/><text x="1444" y="614" style="stroke-width:0;stroke:none;fill:rgba(51,51,51,1.0);font-size:20.8px;font-family:'Roboto Medium',sans-serif">Radio 1: 866.385</text><text x="861" y="47" style="stroke-width:0;stroke:none;fill:rgba(51,51,51,1.0);font-size:37.5px;font-family:'Roboto Medium',sans-serif">IN_865_867</text></svg>