<svg xmlns="http://www.w3.org/2000/svg" xmlns:xlink="http://www.w3.org/1999/xlink" width="1920" height="1080">\n<path  d="M 0 0
L 1920 0
L 1920 1080
L 0 1080
L 0 0" style="stroke-width:0;stroke:rgba(255,255,255,1.0);fill:rgba(255,255,255,1.0)"/><path  d="M 38 15
L 1819 15
L 1819 998
L 38 998
L 38 15" style="stroke-width:0;stroke:rgba(255,255,255,1.0);fill:rgba(255,255,255,1.0)"/><path  d="M 38 998
L 1819 998" style="stroke-width:1;stroke:rgba(51,51,51,1.0);fill:none"/><path  d="M 38 998
L 38 1003" style="stroke-width:1;stroke:rgba(51,51,51,1.0);fill:none"/><text x="38" y="1018" style="stroke-width:0;stroke:none;fill:rgba(51,51,51,1.0);font-size:20.8px;font-family:'Roboto Medium',sans-serif" transform="rotate(45.00,38,1018)">864.038</text><path  d="M 59 998
L 59 1003" style="stroke-width:1;stroke:rgba(51,51,51,1.0);fill:none"/><text x="59" y="1018" style="stroke-width:0;stroke:none;fill:rgba(51,51,51,1.0);font-size:20.8px;font-family:'Roboto Medium',sans-serif" transform="rotate(45.00,59,1018)">864.1</text><path  d="M 125 998
L 125 1003" style="stroke-width:1;stroke:rgba(51,51,51,1.0);fill:none"/><text x="125" y="1018" style="stroke-width:0;stroke:none;fill:rgba(51,51,51,1.0);font-size:20.8px;font-family:'Roboto Medium',sans-serif" transform="rotate(45.00,125,1018)">864.3</text><path  d="M 190 998
L 190 1003" style="stroke-width:1;stroke:rgba(51,51,51,1.0);fill:none"/><text x="190" y="1018" style="stroke-width:0;stroke:none;fill:rgba(51,51,51,1.0);font-size:20.8px;font-family:'Roboto Medium',sans-serif" transform="rotate(45.00,190,1018)">864.5</text><path  d="M 256 998
L 256 1003" style="stroke-width:1;stroke:rgba(51,51,51,1.0);fill:none"/><text x="256" y="1018" style="stroke-width:0;stroke:none;fill:rgba(51,51,51,1.0);font-size:20.8px;font-family:'Roboto Medium',sans-serif" transform="rotate(45.00,256,1018)">864.7</text><path  d="M 322 998
L 322 1003" style="stroke-width:1;stroke:rgba(51,51,51,1.0);fill:none"/><text x="322" y="1018" style="stroke-width:0;stroke:none;fill:rgba(51,51,51,1.0);font-size:20.8px;font-family:'Roboto Medium',sans-serif" transform="rotate(45.00,322,1018)">864.9</text><path  d="M 342 998
L 342 1003" style="stroke-width:1;stroke:rgba(51,51,51,1.0);fill:none"/><text x="342" y="1018" style="stroke-width:0;stroke:none;fill:rgba(51,51,51,1.0);font-size:20.8px;font-family:'Roboto Medium',sans-serif" transform="rotate(45.00,342,1018)">864.962</text><path  d="M 1516 998
L 1516 1003" style="stroke-width:1;stroke:rgba(51,51,51,1.0);fill:none"/><text x="1516" y="1018" style="stroke-width:0;stroke:none;fill:rgba(51,51,51,1.0);font-size:20.8px;font-family:'Roboto Medium',sans-serif" transform="rotate(45.00,1516,1018)">868.538</text><path  d="M 1635 998
L 1635 1003" style="stroke-width:1;stroke:rgba(51,51,51,1.0);fill:none"/><text x="1635" y="1018" style="stroke-width:0;stroke:none;fill:rgba(51,51,51,1.0);font-size:20.8px;font-family:'Roboto Medium',sans-serif" transform="rotate(45.00,1635,1018)">868.9</text><path  d="M 1668 998
L 1668 1003" style="stroke-width:1;stroke:rgba(51,51,51,1.0);fill:none"/><text x="1668" y="1018" style="stroke-width:0;stroke:none;fill:rgba(51,51,51,1.0);font-size:20.8px;font-family:'Roboto Medium',sans-serif" transform="rotate(45.00,1668,1018)">869</text><path  d="M 1700 998
L 1700 1003" style="stroke-width:1;stroke:rgba(51,51,51,1.0);fill:none"/><text x="1700" y="1018" style="stroke-width:0;stroke:none;fill:rgba(51,51,51,1.0);font-size:20.8px;font-family:'Roboto Medium',sans-serif" transform="rotate(45.00,1700,1018)">869.1</text><path  d="M 1819 998
L 1819 1003" style="stroke-width:1;stroke:rgba(51,51,51,1.0);fill:none"/><text x="1819" y="1018" style="stroke-width:0;stroke:none;fill:rgba(51,51,51,1.0);font-size:20.8px;font-family:'Roboto Medium',sans-serif" transform="rotate(45.00,1819,1018)">869.462</text><path  d="M 59 998
L 59 15" style="stroke-width:0;stroke:none;fill:none"/><path  d="M 125 998
L 125 15" style="stroke-width:0;stroke:none;fill:none"/><path  d="M 190 998
L 190 15" style="stroke-width:0;stroke:none;fill:none"/><path  d="M 256 998
L 256 15" style="stroke-width:0;stroke:none;fill:none"/><path  d="M 322 998
L 322 15" style="stroke-width:0;stroke:none;fill:none"/><path  d="M 342 998
L 342 15" style="stroke-width:0;stroke:none;fill:none"/><path  d="M 1516 998
L 1516 15" style="stroke-width:0;stroke:none;fill:none"/><path  d="M 1635 998
L 1635 15" style="stroke-width:0;stroke:none;fill:none"/><path  d="M 1668 998
L 1668 15" style="stroke-width:0;stroke:none;fill:none"/><path  d="M 1700 998
L 1700 15" style="stroke-width:0;stroke:none;fill:none"/><path  d="M 1820 998
L 1820 15" style="stroke-width:1;stroke:rgba(51,51,51,1.0);fill:none"/><path  d="M 1820 998
L 1825 998" style="stroke-width:1;stroke:rgba(51,51,51,1.0);fill:none"/><text x="1830" y="1008" style="stroke-width:0;stroke:none;fill:rgba(51,51,51,1.0);font-size:20.8px;font-family:'Roboto Medium',sans-serif"></text><path  d="M 1820 801
L 1825 801" style="stroke-width:1;stroke:rgba(51,51,51,1.0);fill:none"/><text x="1830" y="811" style="stroke-width:0;stroke:none;fill:rgba(51,51,51,1.0);font-size:20.8px;font-family:'Roboto Medium',sans-serif">Downlink</text><path  d="M 1820 604
L 1825 604" style="stroke-width:1;stroke:rgba(51,51,51,1.0);fill:none"/><text x="1830" y="614" style="stroke-width:0;stroke:none;fill:rgba(51,51,51,1.0);font-size:20.8px;font-family:'Roboto Medium',sans-serif">Radio</text><path  d="M 1820 408
L 1825 408" style="stroke-width:1;stroke:rgba(51,51,51,1.0);fill:none"/><text x="1830" y="418" style="stroke-width:0;stroke:none;fill:rgba(51,51,51,1.0);font-size:20.8px;font-family:'Roboto Medium',sans-serif">Uplink</text><path  d="M 1820 211
L 1825 211" style="stroke-width:1;stroke:rgba(51,51,51,1.0);fill:none"/><text x="1830" y="221" style="stroke-width:0;stroke:none;fill:rgba(51,51,51,1.0);font-size:20.8px;font-family:'Roboto Medium',sans-serif">Std/FSK</text><path  d="M 1820 15
L 1825 15" style="stroke-width:1;stroke:rgba(51,51,51,1.0);fill:none"/><text x="1830" y="25" style="stroke-width:0;stroke:none;fill:rgba(51,51,51,1.0);font-size:20.8px;font-family:'Roboto Medium',sans-serif"></text><path  d="M 38 604
L 1819 604" style="stroke-width:0;stroke:none;fill:none"/><path  d="M 38 801
L 1819 801" style="stroke-width:0;stroke:none;fill:none"/><path  d="M 38 604
L 1819 604" style="stroke-width:0;stroke:none;fill:none"/><path  d="M 38 408
L 1819 408" style="stroke-width:0;stroke:none;fill:none"/><path  d="M 38 211
L 1819 211" style="stroke-width:0;stroke:none;fill:none"/><path  d="M 37 998
L 37 15" style="stroke-width:1;stroke:rgba(51,51,51,1.0);fill:none"/><path  d="M 37 998
L 32 998" style="stroke-width:1;stroke:rgba(51,51,51,1.0);fill:none"/><text x="-15" y="1008" style="stroke-width:0;stroke:none;fill:rgba(51,51,51,1.0);font-size:20.8px;font-family:'Roboto Medium',sans-serif">0.00</text><path  d="M 37 998
L 32 998" style="stroke-width:1;stroke:rgba(51,51,51,1.0);fill:none"/><text x="-15" y="1008" style="stroke-width:0;stroke:none;fill:rgba(51,51,51,1.0);font-size:20.8px;font-family:'Roboto Medium',sans-serif">0.00</text><path  d="M 37 998
L 32 998" style="stroke-width:1;stroke:rgba(51,51,51,1.0);fill:none"/><text x="-15" y="1008" style="stroke-width:0;stroke:none;fill:rgba(51,51,51,1.0);font-size:20.8px;font-family:'Roboto Medium',sans-serif">0.00</text><path  d="M 37 998
L 32 998" style="stroke-width:1;stroke:rgba(51,51,51,1.0);fill:none"/><text x="-15" y="1008" style="stroke-width:0;stroke:none;fill:rgba(51,51,51,1.0);font-size:20.8px;font-family:'Roboto Medium',sans-serif">0.00</text><path  d="M 37 998
L 32 998" style="stroke-width:1;stroke:rgba(51,51,51,1.0);fill:none"/><text x="-15" y="1008" style="stroke-width:0;stroke:none;fill:rgba(51,51,51,1.0);font-size:20.8px;font-family:'Roboto Medium',sans-serif">0.00</text><path  d="M 37 998
L 32 998" style="stroke-width:1;stroke:rgba(51,51,51,1.0);fill:none"/><text x="-15" y="1008" style="stroke-width:0;stroke:none;fill:rgba(51,51,51,1.0);font-size:20.8px;font-family:'Roboto Medium',sans-serif">0.00</text><path  d="M 37 998
L 32 998" style="stroke-width:1;stroke:rgba(51,51,51,1.0);fill:none"/><text x="-15" y="1008" style="stroke-width:0;stroke:none;fill:rgba(51,51,51,1.0);font-size:20.8px;font-family:'Roboto Medium',sans-serif">0.00</text><path  d="M 37 998
L 32 998" style="stroke-width:1;stroke:rgba(51,51,51,1.0);fill:none"/><text x="-15" y="1008" style="stroke-width:0;stroke:none;fill:rgba(51,51,51,1.0);font-size:20.8px;font-family:'Roboto Medium',sans-serif">0.00</text><path  d="M 37 998
L 32 998" style="stroke-width:1;stroke:rgba(51,51,51,1.0);fill:none"/><text x="-15" y="1008" style="stroke-width:0;stroke:none;fill:rgba(51,51,51,1.0);font-size:20.8px;font-family:'Roboto Medium',sans-serif">0.00</text><path  d="M 37 998
L 32 998" style="stroke-width:1;stroke:rgba(51,51,51,1.0);fill:none"/><text x="-15" y="1008" style="stroke-width:0;stroke:none;fill:rgba(51,51,51,1.0);font-size:20.8px;font-family:'Roboto Medium',sans-serif">0.00</text><path  d="M 37 998
L 32 998" style="stroke-width:1;stroke:rgba(51,51,51,1.0);fill:none"/><text x="-15" y="1008" style="stroke-width:0;stroke:none;fill:rgba(51,51,51,1.0);font-size:20.8px;font-family:'Roboto Medium',sans-serif">0.00</text><path  d="M 37 998
L 32 998" style="stroke-width:1;stroke:rgba(51,51,51,1.0);fill:none"/><text x="-15" y="1008" style="stroke-width:0;stroke:none;fill:rgba(51,51,51,1.0);font-size:20.8px;font-family:'Roboto Medium',sans-serif">0.00</text><path  d="M 37 998
L 32 998" style="stroke-width:1;stroke:rgba(51,51,51,1.0);fill:none"/><text x="-15" y="1008" style="stroke-width:0;stroke:none;fill:rgba(51,51,51,1.0);font-size:20.8px;font-family:'Roboto Medium',sans-serif">0.00</text><path  d="M 37 998
L 32 998" style="stroke-width:1;stroke:rgba(51,51,51,1.0);fill:none"/><text x="-15" y="1008" style="stroke-width:0;stroke:none;fill:rgba(51,51,51,1.0);font-size:20.8px;font-family:'Roboto Medium',sans-serif">0.00</text><path  d="M 37 998
L 32 998" style="stroke-width:1;stroke:rgba(51,51,51,1.0);fill:none"/><text x="-15" y="1008" style="stroke-width:0;stroke:none;fill:rgba(51,51,51,1.0);font-size:20.8px;font-family:'Roboto Medium',sans-serif">0.00</text><path  d="M 37 998
L 32 998" style="stroke-width:1;stroke:rgba(51,51,51,1.0);fill:none"/><text x="-15" y="1008" style="stroke-width:0;stroke:none;fill:rgba(51,51,51,1.0);font-size:20.8px;font-family:'Roboto Medium',sans-serif">0.00</text><path  d="M 37 998
L 32 998" style="stroke-width:1;stroke:rgba(51,51,51,1.0);fill:none"/><text x="-15" y="1008" style="stroke-width:0;stroke:none;fill:rgba(51,51,51,1.0);font-size:20.8px;font-family:'Roboto Medium',sans-serif">0.00</text><path  d="M 37 998
L 32 998" style="stroke-width:1;stroke:rgba(51,51,51,1.0);fill:none"/><text x="-15" y="1008" style="stroke-width:0;stroke:none;fill:rgba(51,51,51,1.0);font-size:20.8px;font-family:'Roboto Medium',sans-serif">0.00</text><path  d="M 37 998
L 32 998" style="stroke-width:1;stroke:rgba(51,51,51,1.0);fill:none"/><text x="-15" y="1008" style="stroke-width:0;stroke:none;fill:rgba(51,51,51,1.0);font-size:20.8px;font-family:'Roboto Medium',sans-serif">0.00</text><path  d="M 37 998
L 32 998" style="stroke-width:1;stroke:rgba(51,51,51,1.0);fill:none"/><text x="-15" y="1008" style="stroke-width:0;stroke:none;fill:rgba(51,51,51,1.0);font-size:20.8px;font-family:'Roboto Medium',sans-serif">0.00</text><path  d="M 37 998
L 32 998" style="stroke-width:1;stroke:rgba(51,51,51,1.0);fill:none"/><text x="-15" y="1008" style="stroke-width:0;stroke:none;fill:rgba(51,51,51,1.0);font-size:20.8px;font-family:'Roboto Medium',sans-serif">0.00</text><path  d="M 37 998
L 32 998" style="stroke-width:1;stroke:rgba(51,51,51,1.0);fill:none"/><text x="-15" y="1008" style="stroke-width:0;stroke:none;fill:rgba(51,51,51,1.0);font-size:20.8px;font-family:'Roboto Medium',sans-serif">0.00</text><path  d="M 37 998
L 32 998" style="stroke-width:1;stroke:rgba(51,51,51,1.0);fill:none"/><text x="-15" y="1008" style="stroke-width:0;stroke:none;fill:rgba(51,51,51,1.0);font-size:20.8px;font-family:'Roboto Medium',sans-serif">0.00</text><path  d="M 38 998
L 1819 998" style="stroke-width:0;stroke:none;fill:none"/><path  d="M 38 998
L 1819 998" style="stroke-width:0;stroke:none;fill:none"/><path  d="M 38 998
L 1819 998" style="stroke-width:0;stroke:none;fill:none"/><path  d="M 38 998
L 1819 998" style="stroke-width:0;stroke:none;fill:none"/><path  d="M 38 998
L 1819 998" style="stroke-width:0;stroke:none;fill:none"/><path  d="M 38 998
L 1819 998" style="stroke-width:0;stroke:none;fill:none"/><path  d="M 38 998
L 1819 998" style="stroke-width:0;stroke:none;fill:none"/><path  d="M 38 998
L 1819 998" style="stroke-width:0;stroke:none;fill:none"/><path  d="M 38 998
L 1819 998" style="stroke-width:0;stroke:none;fill:none"/><path  d="M 38 998
L 1819 998" style="stroke-width:0;stroke:none;fill:none"/><path  d="M 38 998
L 1819 998" style="stroke-width:0;stroke:none;fill:none"/><path  d="M 38 998
L 1819 998" style="stroke-width:0;stroke:none;fill:none"/><path  d="M 38 998
L 1819 998" style="stroke-width:0;stroke:none;fill:none"/><path  d="M 38 998
L 1819 998" style="stroke-width:0;stroke:none;fill:none"/><path  d="M 38 998
L 1819 998" style="stroke-width:0;stroke:none;fill:none"/><path  d="M 38 998
L 1819 998" style="stroke-width:0;stroke:none;fill:none"/><path  d="M 38 998
L 1819 998" style="stroke-width:0;stroke:none;fill:none"/><path  d="M 38 998
L 1819 998" style="stroke-width:0;stroke:none;fill:none"/><path  d="M 38 998
L 1819 998" style="stroke-width:0;stroke:none;fill:none"/><path  d="M 38 998
L 1819 998" style="stroke-width:0;stroke:none;fill:none"/><path  d="M 38 998
L 1819 998" style="stroke-width:0;stroke:none;fill:none"/><path  d="M 38 998
L 1819 998" style="stroke-width:0;stroke:none;fill:none"/><path  d="M 1614 408
L 1655 408
L 1655 604
L 1614 604
L 1614 408" style="stroke-width:0;stroke:none;fill:rgba(0,217,101,0.5)"/><path  d="M 1614 408
L 1655 408" style="stroke-width:1;stroke:rgba(0,217,101,0.5);fill:none"/><path  d="M 1680 408
L 1721 408
L 1721 604
L 1680 604
L 1680 408" style="stroke-width:0;stroke:none;fill:rgba(0,217,101,0.5)"/><path  d="M 1680 408
L 1721 408" style="stroke-width:1;stroke:rgba(0,217,101,0.5);fill:none"/><path  d="M 38 408
L 80 408
L 80 604
L 38 604
L 38 408" style="stroke-width:0;stroke:none;fill:rgba(0,116,217,0.5)"/><path  d="M 38 408
L 80 408" style="stroke-width:1;stroke:rgba(0,116,217,0.5);fill:none"/><path  d="M 104 408
L 145 408
L 145 604
L 104 604
L 104 408" style="stroke-width:0;stroke:none;fill:rgba(0,116,217,0.5)"/><path  d="M 104 408
L 145 408" style="stroke-width:1;stroke:rgba(0,116,217,0.5);fill:none"/><path  d="M 170 408
L 211 408
L 211 604
L 170 604
L 170 408" style="stroke-width:0;stroke:none;fill:rgba(0,116,217,0.5)"/><path  d="M 170 408
L 211 408" style="stroke-width:1;stroke:rgba(0,116,217,0.5);fill:none"/><path  d="M 235 408
L 277 408
L 277 604
L 235 604
L 235 408" style="stroke-width:0;stroke:none;fill:rgba(0,116,217,0.5)"/><path  d="M 235 408
L 277 408" style="stroke-width:1;stroke:rgba(0,116,217,0.5);fill:none"/><path  d="M 301 408
L 342 408
L 342 604
L 301 604
L 301 408" style="stroke-width:0;stroke:none;fill:rgba(0,116,217,0.5)"/><path  d="M 301 408
L 342 408" style="stroke-width:1;stroke:rgba(0,116,217,0.5);fill:none"/><path  d="M 1614 801
L 1655 801
L 1655 604
L 1614 604
L 1614 801" style="stroke-width:0;stroke:none;fill:rgba(0,217,210,0.5)"/><path  d="M 1614 801
L 1655 801" style="stroke-width:1;stroke:rgba(0,217,210,0.5);fill:none"/><path  d="M 1680 801
L 1721 801
L 1721 604
L 1680 604
L 1680 801" style="stroke-width:0;stroke:none;fill:rgba(0,217,210,0.5)"/><path  d="M 1680 801
L 1721 801" style="stroke-width:1;stroke:rgba(0,217,210,0.5);fill:none"/><path  d="M 38 801
L 80 801
L 80 604
L 38 604
L 38 801" style="stroke-width:0;stroke:none;fill:rgba(0,217,210,0.5)"/><path  d="M 38 801
L 80 801" style="stroke-width:1;stroke:rgba(0,217,210,0.5);fill:none"/><path  d="M 104 801
L 145 801
L 145 604
L 104 604
L 104 801" style="stroke-width:0;stroke:none;fill:rgba(0,217,210,0.5)"/><path  d="M 104 801
L 145 801" style="stroke-width:1;stroke:rgba(0,217,210,0.5);fill:none"/><path  d="M 170 801
L 211 801
L 211 604
L 170 604
L 170 801" style="stroke-width:0;stroke:none;fill:rgba(0,217,210,0.5)"/><path  d="M 170 801
L 211 801" style="stroke-width:1;stroke:rgba(0,217,210,0.5);fill:none"/><path  d="M 235 801
L 277 801
L 277 604
L 235 604
L 235 801" style="stroke-width:0;stroke:none;fill:rgba(0,217,210,0.5)"/><path  d="M 235 801
L 277 801" style="stroke-width:1;stroke:rgba(0,217,210,0.5);fill:none"/><path  d="M 301 801
L 342 801
L 342 604
L 301 604
L 301 801" style="stroke-width:0;stroke:none;fill:rgba(0,217,210,0.5)"/><path  d="M 301 801
L 342 801" style="stroke-width:1;stroke:rgba(0,217,210,0.5);fill:none"/><path  d="M 38 604
L 342 604" style="stroke-width:10;stroke:rgba(0,116,217,0.5);fill:none"/><path  d="M 1516 604
L 1819 604" style="stroke-width:10;stroke:rgba(0,217,101,0.5);fill:none"/><path  d="M 1635 408
L 1645 393
L 1709 393
L 1709 423
L 1645 423
L 1635 408
Z" style="stroke-width:1;stroke:rgba(0,217,101,1.0);fill:rgba(255,255,255,1.0)"/><text x="1650" y="418" style="stroke-width:0;stroke:none;fill:rgba(51,51,51,1.0);font-size:20.8px;font-family:'Roboto Medium',sans-serif">868.9</text><path  d="M 1700 408
L 1710 393
L 1774 393
L 1774 423
L 1710 423
L 1700 408
Z" style="stroke-width:1;stroke:rgba(0,217,101,1.0);fill:rgba(255,255,255,1.0)"/><text x="1715" y="418" style="stroke-width:0;stroke:none;fill:rgba(51,51,51,1.0);font-size:20.8px;font-family:'Roboto Medium',sans-serif">869.1</text><path  d="M 59 408
L 69 393
L 133 393
L 133 423
L 69 423
L 59 408
Z" style="stroke-width:1;stroke:rgba(0,217,101,1.0);fill:rgba(255,255,255,1.0)"/><text x="74" y="418" style="stroke-width:0;stroke:none;fill:rgba(51,51,51,1.0);font-size:20.8px;font-family:'Roboto Medium',sans-serif">864.1</text><path  d="M 125 408
L 135 393
L 199 393
L 199 423
L 135 423
L 125 408
Z" style="stroke-width:1;stroke:rgba(0,217,101,1.0);fill:rgba(255,255,255,1.0)"/><text x="140" y="418" style="stroke-width:0;stroke:none;fill:rgba(51,51,51,1.0);font-size:20.8px;font-family:'Roboto Medium',sans-serif">864.3</text><path  d="M 190 408
L 200 393
L 264 393
L 264 423
L 200 423
L 190 408
Z" style="stroke-width:1;stroke:rgba(0,217,101,1.0);fill:rgba(255,255,255,1.0)"/><text x="205" y="418" style="stroke-width:0;stroke:none;fill:rgba(51,51,51,1.0);font-size:20.8px;font-family:'Roboto Medium',sans-serif">864.5</text><path  d="M 256 408
L 266 393
L 330 393
L 330 423
L 266 423
L 256 408
Z" style="stroke-width:1;stroke:rgba(0,217,101,1.0);fill:rgba(255,255,255,1.0)"/><text x="271" y="418" style="stroke-width:0;stroke:none;fill:rgba(51,51,51,1.0);font-size:20.8px;font-family:'Roboto Medium',sans-serif">864.7</text><path  d="M 322 408
L 332 393
L 396 393
L 396 423
L 332 423
L 322 408
Z" style="stroke-width:1;stroke:rgba(0,217,101,1.0);fill:rgba(255,255,255,1.0)"/><text x="337" y="418" style="stroke-width:0;stroke:none;fill:rgba(51,51,51,1.0);font-size:20.8px;font-family:'Roboto Medium',sans-serif">864.9</text><path  d="M 1635 801
L 1645 786
L 1709 786
L 1709 816
L 1645 816
L 1635 801
Z" style="stroke-width:1;stroke:rgba(0,217,101,1.0);fill:rgba(255,255,255,1.0)"/><text x="1650" y="811" style="stroke-width:0;stroke:none;fill:rgba(51,51,51,1.0);font-size:20.8px;font-family:'Roboto Medium',sans-serif">868.9</text><path  d="M 1700 801
L 1710 786
L 1774 786
L 1774 816
L 1710 816
L 1700 801
Z" style="stroke-width:1;stroke:rgba(0,217,101,1.0);fill:rgba(255,255,255,1.0)"/><text x="1715" y="811" style="stroke-width:0;stroke:none;fill:rgba(51,51,51,1.0);font-size:20.8px;font-family:'Roboto Medium',sans-serif">869.1</text><path  d="M 59 801
L 69 786
L 133 786
L 133 816
L 69 816
L 59 801
Z" style="stroke-width:1;stroke:rgba(0,217,101,1.0);fill:rgba(255,255,255,1.0)"/><text x="74" y="811" style="stroke-width:0;stroke:none;fill:rgba(51,51,51,1.0);font-size:20.8px;font-family:'Roboto Medium',sans-serif">864.1</text><path  d="M 125 801
L 135 786
L 199 786
L 199 816
L 135 816
L 125 801
Z" style="stroke-width:1;stroke:rgba(0,217,101,1.0);fill:rgba(255,255,255,1.0)"/><text x="140" y="811" style="stroke-width:0;stroke:none;fill:rgba(51,51,51,1.0);font-size:20.8px;font-family:'Roboto Medium',sans-serif">864.3</text><path  d="M 190 801
L 200 786
L 264 786
L 264 816
L 200 816
L 190 801
Z" style="stroke-width:1;stroke:rgba(0,217,101,1.0);fill:rgba(255,255,255,1.0)"/><text x="205" y="811" style="stroke-width:0;stroke:none;fill:rgba(51,51,51,1.0);font-size:20.8px;font-family:'Roboto Medium',sans-serif">864.5</text><path  d="M 256 801
L 266 786
L 330 786
L 330 816
L 266 816
L 256 801
Z" style="stroke-width:1;stroke:rgba(0,217,101,1.0);fill:rgba(255,255,255,1.0)"/><text x="271" y="811" style="stroke-width:0;stroke:none;fill:rgba(51,51,51,1.0);font-size:20.8px;font-family:'Roboto Medium',sans-serif">864.7</text><path  d="M 322 801
L 332 786
L 396 786
L 396 816
L 332 816
L 322 801
Z" style="stroke-width:1;stroke:rgba(0,217,101,1.0);fill:rgba(255,255,255,1.0)"/><text x="337" y="811" style="stroke-width:0;stroke:none;fill:rgba(51,51,51,1.0);font-size:20.8px;font-family:'Roboto Medium',sans-serif">864.9</text><path  d="M 190 604
L 200 589
L 345 589
L 345 619
L 200 619
L 190 604
Z" style="stroke-width:1;stroke:rgba(0,217,101,1.0);fill:rgba(255,255,255,1.0)"/><text x="205" y="614" style="stroke-width:0;stroke:none;fill:rgba(51,51,51,1.0);font-size:20.8px;font-family:'Roboto Medium',sans-serif">Radio 0: 864.5</text><path  d="M 1668 604
L 1678 589
L 1805 589
L 1805 619
L 1678 619
L 1668 604
Z" style="stroke-width:1;stroke:rgba(0,217,101,1.0);fill:rgba(255,255,255,1.0)"/><text x="1683" y="614" style="stroke-width:0;stroke:none;fill:rgba(51,51,51,1.0);font-size:20.8px;font-family:'Roboto Medium',sans-serif">Radio 1: 869</text><text x="811" y="47" style="stroke-width:0;stroke:none;fill:rgba(51,51,51,1.0);font-size:37.5px;font-family:'Roboto Medium',sans-serif">RU_864_870_TTN</text></svg>