<svg xmlns="http://www.w3.org/2000/svg" xmlns:xlink="http://www.w3.org/1999/xlink" width="1920" height="1080">\n<path  d="M 0 0
L 1920 0
L 1920 1080
L 0 1080
L 0 0" style="stroke-width:0;stroke:rgba(255,255,255,1.0);fill:rgba(255,255,255,1.0)"/><path  d="M 31 15
L 1819 15
L 1819 1013
L 31 1013
L 31 15" style="stroke-width:0;stroke:rgba(255,255,255,1.0);fill:rgba(255,255,255,1.0)"/><path  d="M 31 1013
L 1819 1013" style="stroke-width:1;stroke:rgba(51,51,51,1.0);fill:none"/><path  d="M 31 1013
L 31 1018" style="stroke-width:1;stroke:rgba(51,51,51,1.0);fill:none"/><text x="31" y="1033" style="stroke-width:0;stroke:none;fill:rgba(51,51,51,1.0);font-size:20.8px;font-family:'Roboto Medium',sans-serif" transform="rotate(45.00,31,1033)">867.1</text><path  d="M 287 1013
L 287 1018" style="stroke-width:1;stroke:rgba(51,51,51,1.0);fill:none"/><text x="287" y="1033" style="stroke-width:0;stroke:none;fill:rgba(51,51,51,1.0);font-size:20.8px;font-family:'Roboto Medium',sans-serif" transform="rotate(45.00,287,1033)">867.3</text><path  d="M 1053 1013
L 1053 1018" style="stroke-width:1;stroke:rgba(51,51,51,1.0);fill:none"/><text x="1053" y="1033" style="stroke-width:0;stroke:none;fill:rgba(51,51,51,1.0);font-size:20.8px;font-family:'Roboto Medium',sans-serif" transform="rotate(45.00,1053,1033)">867.9</text><path  d="M 1309 1013
L 1309 1018" style="stroke-width:1;stroke:rgba(51,51,51,1.0);fill:none"/><text x="1309" y="1033" style="stroke-width:0;stroke:none;fill:rgba(51,51,51,1.0);font-size:20.8px;font-family:'Roboto Medium',sans-serif" transform="rotate(45.00,1309,1033)">868.1</text><path  d="M 1564 1013
L 1564 1018" style="stroke-width:1;stroke:rgba(51,51,51,1.0);fill:none"/><text x="1564" y="1033" style="stroke-width:0;stroke:none;fill:rgba(51,51,51,1.0);font-size:20.8px;font-family:'Roboto Medium',sans-serif" transform="rotate(45.00,1564,1033)">868.3</text><path  d="M 1819 1013
L 1819 1018" style="stroke-width:1;stroke:rgba(51,51,51,1.0);fill:none"/><text x="1819" y="1033" style="stroke-width:0;stroke:none;fill:rgba(51,51,51,1.0);font-size:20.8px;font-family:'Roboto Medium',sans-serif" transform="rotate(45.00,1819,1033)">868.5</text><path  d="M 287 1013
L 287 15" style="stroke-width:0;stroke:none;fill:none"/><path  d="M 1053 1013
L 1053 15" style="stroke-width:0;stroke:none;fill:none"/><path  d="M 1309 1013
L 1309 15" style="stroke-width:0;stroke:none;fill:none"/><path  d="M 1564 1013
L 1564 15" style="stroke-width:0;stroke:none;fill:none"/><path  d="M 1820 1013
L 1820 15" style="stroke-width:1;stroke:rgba(51,51,51,1.0);fill:none"/><path  d="M 1820 1013
L 1825 1013" style="stroke-width:1;stroke:rgba(51,51,51,1.0);fill:none"/><text x="1830" y="1023" style="stroke-width:0;stroke:none;fill:rgba(51,51,51,1.0);font-size:20.8px;font-family:'Roboto Medium',sans-serif"></text><path  d="M 1820 813
L 1825 813" style="stroke-width:1;stroke:rgba(51,51,51,1.0);fill:none"/><text x="1830" y="823" style="stroke-width:0;stroke:none;fill:rgba(51,51,51,1.0);font-size:20.8px;font-family:'Roboto Medium',sans-serif">Downlink</text><path  d="M 1820 613
L 1825 613" style="stroke-width:1;stroke:rgba(51,51,51,1.0);fill:none"/><text x="1830" y="623" style="stroke-width:0;stroke:none;fill:rgba(51,51,51,1.0);font-size:20.8px;font-family:'Roboto Medium',sans-serif">Radio</text><path  d="M 1820 414
L 1825 414" style="stroke-width:1;stroke:rgba(51,51,51,1.0);fill:none"/><text x="1830" y="424" style="stroke-width:0;stroke:none;fill:rgba(51,51,51,1.0);font-size:20.8px;font-family:'Roboto Medium',sans-serif">Uplink</text><path  d="M 1820 214
L 1825 214" style="stroke-width:1;stroke:rgba(51,51,51,1.0);fill:none"/><text x="1830" y="224" style="stroke-width:0;stroke:none;fill:rgba(51,51,51,1.0);font-size:20.8px;font-family:'Roboto Medium',sans-serif">Std/FSK</text><path  d="M 1820 15
L 1825 15" style="stroke-width:1;stroke:rgba(51,51,51,1.0);fill:none"/><text x="1830" y="25" style="stroke-width:0;stroke:none;fill:rgba(51,51,51,1.0);font-size:20.8px;font-family:'Roboto Medium',sans-serif"></text><path  d="M 31 613
L 1819 613" style="stroke-width:0;stroke:none;fill:none"/><path  d="M 31 813
L 1819 813" style="stroke-width:0;stroke:none;fill:none"/><path  d="M 31 613
L 1819 613" style="stroke-width:0;stroke:none;fill:none"/><path  d="M 31 414
L 1819 414" style="stroke-width:0;stroke:none;fill:none"/><path  d="M 31 214
L 1819 214" style="stroke-width:0;stroke:none;fill:none"/><path  d="M 30 1013
L 30 15" style="stroke-width:1;stroke:rgba(51,51,51,1.0);fill:none"/><path  d="M 30 1013
L 25 1013" style="stroke-width:1;stroke:rgba(51,51,51,1.0);fill:none"/><text x="-22" y="1023" style="stroke-width:0;stroke:none;fill:rgba(51,51,51,1.0);font-size:20.8px;font-family:'Roboto Medium',sans-serif">0.00</text><path  d="M 30 1013
L 25 1013" style="stroke-width:1;stroke:rgba(51,51,51,1.0);fill:none"/><text x="-22" y="1023" style="stroke-width:0;stroke:none;fill:rgba(51,51,51,1.0);font-size:20.8px;font-family:'Roboto Medium',sans-serif">0.00</text><path  d="M 30 1013
L 25 1013" style="stroke-width:1;stroke:rgba(51,51,51,1.0);fill:none"/><text x="-22" y="1023" style="stroke-width:0;stroke:none;fill:rgba(51,51,51,1.0);font-size:20.8px;font-family:'Roboto Medium',sans-serif">0.00</text><path  d="M 30 1013
L 25 1013" style="stroke-width:1;stroke:rgba(51,51,51,1.0);fill:none"/><text x="-22" y="1023" style="stroke-width:0;stroke:none;fill:rgba(51,51,51,1.0);font-size:20.8px;font-family:'Roboto Medium',sans-serif">0.00</text><path  d="M 30 1013
L 25 1013" style="stroke-width:1;stroke:rgba(51,51,51,1.0);fill:none"/><text x="-22" y="1023" style="stroke-width:0;stroke:none;fill:rgba(51,51,51,1.0);font-size:20.8px;font-family:'Roboto Medium',sans-serif">0.00</text><path  d="M 30 1013
L 25 1013" style="stroke-width:1;stroke:rgba(51,51,51,1.0);fill:none"/><text x="-22" y="1023" style="stroke-width:0;stroke:none;fill:rgba(51,51,51,1.0);font-size:20.8px;font-family:'Roboto Medium',sans-serif">0.00</text><path  d="M 30 1013
L 25 1013" style="stroke-width:1;stroke:rgba(51,51,51,1.0);fill:none"/><text x="-22" y="1023" style="stroke-width:0;stroke:none;fill:rgba(51,51,51,1.0);font-size:20.8px;font-family:'Roboto Medium',sans-serif">0.00</text><path  d="M 30 1013
L 25 1013" style="stroke-width:1;stroke:rgba(51,51,51,1.0);fill:none"/><text x="-22" y="1023" style="stroke-width:0;stroke:none;fill:rgba(51,51,51,1.0);font-size:20.8px;font-family:'Roboto Medium',sans-serif">0.00</text><path  d="M 30 1013
L 25 1013" style="stroke-width:1;stroke:rgba(51,51,51,1.0);fill:none"/><text x="-22" y="1023" style="stroke-width:0;stroke:none;fill:rgba(51,51,51,1.0);font-size:20.8px;font-family:'Roboto Medium',sans-serif">0.00</text><path  d="M 30 1013
L 25 1013" style="stroke-width:1;stroke:rgba(51,51,51,1.0);fill:none"/><text x="-22" y="1023" style="stroke-width:0;stroke:none;fill:rgba(51,51,51,1.0);font-size:20.8px;font-family:'Roboto Medium',sans-serif">0.00</text><path  d="M 30 1013
L 25 1013" style="stroke-width:1;stroke:rgba(51,51,51,1.0);fill:none"/><text x="-22" y="1023" style="stroke-width:0;stroke:none;fill:rgba(51,51,51,1.0);font-size:20.8px;font-family:'Roboto Medium',sans-serif">0.00</text><path  d="M 30 1013
L 25 1013" style="stroke-width:1;stroke:rgba(51,51,51,1.0);fill:none"/><text x="-22" y="1023" style="stroke-width:0;stroke:none;fill:rgba(51,51,51,1.0);font-size:20.8px;font-family:'Roboto Medium',sans-serif">0.00</text><path  d="M 30 1013
L 25 1013" style="stroke-width:1;stroke:rgba(51,51,51,1.0);fill:none"/><text x="-22" y="1023" style="stroke-width:0;stroke:none;fill:rgba(51,51,51,1.0);font-size:20.8px;font-family:'Roboto Medium',sans-serif">0.00</text><path  d="M 30 1013
L 25 1013" style="stroke-width:1;stroke:rgba(51,51,51,1.0);fill:none"/><text x="-22" y="1023" style="stroke-width:0;stroke:none;fill:rgba(51,51,51,1.0);font-size:20.8px;font-family:'Roboto Medium',sans-serif">0.00</text><path  d="M 30 1013
L 25 1013" style="stroke-width:1;stroke:rgba(51,51,51,1.0);fill:none"/><text x="-22" y="1023" style="stroke-width:0;stroke:none;fill:rgba(51,51,51,1.0);font-size:20.8px;font-family:'Roboto Medium',sans-serif">0.00</text><path  d="M 30 1013
L 25 1013" style="stroke-width:1;stroke:rgba(51,51,51,1.0);fill:none"/><text x="-22" y="1023" style="stroke-width:0;stroke:none;fill:rgba(51,51,51,1.0);font-size:20.8px;font-family:'Roboto Medium',sans-serif">0.00</text><path  d="M 30 1013
L 25 1013" style="stroke-width:1;stroke:rgba(51,51,51,1.0);fill:none"/><text x="-22" y="1023" style="stroke-width:0;stroke:none;fill:rgba(51,51,51,1.0);font-size:20.8px;font-family:'Roboto Medium',sans-serif">0.00</text><path  d="M 30 1013
L 25 1013" style="stroke-width:1;stroke:rgba(51,51,51,1.0);fill:none"/><text x="-22" y="1023" style="stroke-width:0;stroke:none;fill:rgba(51,51,51,1.0);font-size:20.8px;font-family:'Roboto Medium',sans-serif">0.00</text><path  d="M 30 1013
L 25 1013" style="stroke-width:1;stroke:rgba(51,51,51,1.0);fill:none"/><text x="-22" y="1023" style="stroke-width:0;stroke:none;fill:rgba(51,51,51,1.0);font-size:20.8px;font-family:'Roboto Medium',sans-serif">0.00</text><path  d="M 30 1013
L 25 1013" style="stroke-width:1;stroke:rgba(51,51,51,1.0);fill:none"/><text x="-22" y="1023" style="stroke-width:0;stroke:none;fill:rgba(51,51,51,1.0);font-size:20.8px;font-family:'Roboto Medium',sans-serif">0.00</text><path  d="M 30 1013
L 25 1013" style="stroke-width:1;stroke:rgba(51,51,51,1.0);fill:none"/><text x="-22" y="1023" style="stroke-width:0;stroke:none;fill:rgba(51,51,51,1.0);font-size:20.8px;font-family:'Roboto Medium',sans-serif">0.00</text><path  d="M 30 1013
L 25 1013" style="stroke-width:1;stroke:rgba(51,51,51,1.0);fill:none"/><text x="-22" y="1023" style="stroke-width:0;stroke:none;fill:rgba(51,51,51,1.0);font-size:20.8px;font-family:'Roboto Medium',sans-serif">0.00</text><path  d="M 30 1013
L 25 1013" style="stroke-width:1;stroke:rgba(51,51,51,1.0);fill:none"/><text x="-22" y="1023" style="stroke-width:0;stroke:none;fill:rgba(51,51,51,1.0);font-size:20.8px;font-family:'Roboto Medium',sans-serif">0.00</text><path  d="M 31 1013
L 1819 1013" style="stroke-width:0;stroke:none;fill:none"/><path  d="M 31 1013
L 1819 1013" style="stroke-width:0;stroke:none;fill:none"/><path  d="M 31 1013
L 1819 1013" style="stroke-width:0;stroke:none;fill:none"/><path  d="M 31 1013
L 1819 1013" style="stroke-width:0;stroke:none;fill:none"/><path  d="M 31 1013
L 1819 1013" style="stroke-width:0;stroke:none;fill:none"/><path  d="M 31 1013
L 1819 1013" style="stroke-width:0;stroke:none;fill:none"/><path  d="M 31 1013
L 1819 1013" style="stroke-width:0;stroke:none;fill:none"/><path  d="M 31 1013
L 1819 1013" style="stroke-width:0;stroke:none;fill:none"/><path  d="M 31 1013
L 1819 1013" style="stroke-width:0;stroke:none;fill:none"/><path  d="M 31 1013
L 1819 1013" style="stroke-width:0;stroke:none;fill:none"/><path  d="M 31 1013
L 1819 1013" style="stroke-width:0;stroke:none;fill:none"/><path  d="M 31 1013
L 1819 1013" style="stroke-width:0;stroke:none;fill:none"/><path  d="M 31 1013
L 1819 1013" style="stroke-width:0;stroke:none;fill:none"/><path  d="M 31 1013
L 1819 1013" style="stroke-width:0;stroke:none;fill:none"/><path  d="M 31 1013
L 1819 1013" style="stroke-width:0;stroke:none;fill:none"/><path  d="M 31 1013
L 1819 1013" style="stroke-width:0;stroke:none;fill:none"/><path  d="M 31 1013
L 1819 1013" style="stroke-width:0;stroke:none;fill:none"/><path  d="M 31 1013
L 1819 1013" style="stroke-width:0;stroke:none;fill:none"/><path  d="M 31 1013
L 1819 1013" style="stroke-width:0;stroke:none;fill:none"/><path  d="M 31 1013
L 1819 1013" style="stroke-width:0;stroke:none;fill:none"/><path  d="M 31 1013
L 1819 1013" style="stroke-width:0;stroke:none;fill:none"/><path  d="M 31 1013
L 1819 1013" style="stroke-width:0;stroke:none;fill:none"/><path  d="M 1229 414
L 1388 414
L 1388 613
L 1229 613
L 1229 414" style="stroke-width:0;stroke:none;fill:rgba(0,116,217,0.5)"/><path  d="M 1229 414
L 1388 414" style="stroke-width:1;stroke:rgba(0,116,217,0.5);fill:none"/><path  d="M 1229 813
L 1388 813
L 1388 613
L 1229 613
L 1229 813" style="stroke-width:0;stroke:none;fill:rgba(0,217,210,0.5)"/><path  d="M 1229 813
L 1388 813" style="stroke-width:1;stroke:rgba(0,217,210,0.5);fill:none"/><path  d="M 1484 414
L 1644 414
L 1644 613
L 1484 613
L 1484 414" style="stroke-width:0;stroke:none;fill:rgba(0,116,217,0.5)"/><path  d="M 1484 414
L 1644 414" style="stroke-width:1;stroke:rgba(0,116,217,0.5);fill:none"/><path  d="M 1484 813
L 1644 813
L 1644 613
L 1484 613
L 1484 813" style="stroke-width:0;stroke:none;fill:rgba(0,217,210,0.5)"/><path  d="M 1484 813
L 1644 813" style="stroke-width:1;stroke:rgba(0,217,210,0.5);fill:none"/><path  d="M 1740 414
L 1899 414
L 1899 613
L 1740 613
L 1740 414" style="stroke-width:0;stroke:none;fill:rgba(0,116,217,0.5)"/><path  d="M 1740 414
L 1899 414" style="stroke-width:1;stroke:rgba(0,116,217,0.5);fill:none"/><path  d="M 1740 813
L 1899 813
L 1899 613
L 1740 613
L 1740 813" style="stroke-width:0;stroke:none;fill:rgba(0,217,210,0.5)"/><path  d="M 1740 813
L 1899 813" style="stroke-width:1;stroke:rgba(0,217,210,0.5);fill:none"/><path  d="M -48 414
L 111 414
L 111 613
L -48 613
L -48 414" style="stroke-width:0;stroke:none;fill:rgba(0,116,217,0.5)"/><path  d="M -48 414
L 111 414" style="stroke-width:1;stroke:rgba(0,116,217,0.5);fill:none"/><path  d="M -48 813
L 111 813
L 111 613
L -48 613
L -48 813" style="stroke-width:0;stroke:none;fill:rgba(0,217,210,0.5)"/><path  d="M -48 813
L 111 813" style="stroke-width:1;stroke:rgba(0,217,210,0.5);fill:none"/><path  d="M 207 414
L 367 414
L 367 613
L 207 613
L 207 414" style="stroke-width:0;stroke:none;fill:rgba(0,116,217,0.5)"/><path  d="M 207 414
L 367 414" style="stroke-width:1;stroke:rgba(0,116,217,0.5);fill:none"/><path  d="M 207 813
L 367 813
L 367 613
L 207 613
L 207 813" style="stroke-width:0;stroke:none;fill:rgba(0,217,210,0.5)"/><path  d="M 207 813
L 367 813" style="stroke-width:1;stroke:rgba(0,217,210,0.5);fill:none"/><path  d="M 973 414
L 1133 414
L 1133 613
L 973 613
L 973 414" style="stroke-width:0;stroke:none;fill:rgba(0,116,217,0.5)"/><path  d="M 973 414
L 1133 414" style="stroke-width:1;stroke:rgba(0,116,217,0.5);fill:none"/><path  d="M 973 813
L 1133 813
L 1133 613
L 973 613
L 973 813" style="stroke-width:0;stroke:none;fill:rgba(0,217,210,0.5)"/><path  d="M 973 813
L 1133 813" style="stroke-width:1;stroke:rgba(0,217,210,0.5);fill:none"/><path  d="M 1309 414
L 1319 399
L 1383 399
L 1383 429
L 1319 429
L 1309 414
Z" style="stroke-width:1;stroke:rgba(217,0,116,1.0);fill:rgba(255,255,255,1.0)"/><text x="1324" y="424" style="stroke-width:0;stroke:none;fill:rgba(51,51,51,1.0);font-size:20.8px;font-family:'Roboto Medium',sans-serif">868.1</text><path  d="M 1309 813
L 1319 798
L 1383 798
L 1383 828
L 1319 828
L 1309 813
Z" style="stroke-width:1;stroke:rgba(217,0,116,1.0);fill:rgba(255,255,255,1.0)"/><text x="1324" y="823" style="stroke-width:0;stroke:none;fill:rgba(51,51,51,1.0);font-size:20.8px;font-family:'Roboto Medium',sans-serif">868.1</text><path  d="M 1564 414
L 1574 399
L 1638 399
L 1638 429
L 1574 429
L 1564 414
Z" style="stroke-width:1;stroke:rgba(217,0,116,1.0);fill:rgba(255,255,255,1.0)"/><text x="1579" y="424" style="stroke-width:0;stroke:none;fill:rgba(51,51,51,1.0);font-size:20.8px;font-family:'Roboto Medium',sans-serif">868.3</text><path  d="M 1564 813
L 1574 798
L 1638 798
L 1638 828
L 1574 828
L 1564 813
Z" style="stroke-width:1;stroke:rgba(217,0,116,1.0);fill:rgba(255,255,255,1.0)"/><text x="1579" y="823" style="stroke-width:0;stroke:none;fill:rgba(51,51,51,1.0);font-size:20.8px;font-family:'Roboto Medium',sans-serif">868.3</text><path  d="M 1819 414
L 1829 399
L 1893 399
L 1893 429
L 1829 429
L 1819 414
Z" style="stroke-width:1;stroke:rgba(217,0,116,1.0);fill:rgba(255,255,255,1.0)"/><text x="1834" y="424" style="stroke-width:0;stroke:none;fill:rgba(51,51,51,1.0);font-size:20.8px;font-family:'Roboto Medium',sans-serif">868.5</text><path  d="M 1819 813
L 1829 798
L 1893 798
L 1893 828
L 1829 828
L 1819 813
Z" style="stroke-width:1;stroke:rgba(217,0,116,1.0);fill:rgba(255,255,255,1.0)"/><text x="1834" y="823" style="stroke-width:0;stroke:none;fill:rgba(51,51,51,1.0);font-size:20.8px;font-family:'Roboto Medium',sans-serif">868.5</text><path  d="M 31 414
L 41 399
L 105 399
L 105 429
L 41 429
L 31 414
Z" style="stroke-width:1;stroke:rgba(217,0,116,1.0);fill:rgba(255,255,255,1.0)"/><text x="46" y="424" style="stroke-width:0;stroke:none;fill:rgba(51,51,51,1.0);font-size:20.8px;font-family:'Roboto Medium',sans-serif">867.1</text><path  d="M 31 813
L 41 798
L 105 798
L 105 828
L 41 828
L 31 813
Z" style="stroke-width:1;stroke:rgba(217,0,116,1.0);fill:rgba(255,255,255,1.0)"/><text x="46" y="823" style="stroke-width:0;stroke:none;fill:rgba(51,51,51,1.0);font-size:20.8px;font-family:'Roboto Medium',sans-serif">867.1</text><path  d="M 287 414
L 297 399
L 361 399
L 361 429
L 297 429
L 287 414
Z" style="stroke-width:1;stroke:rgba(217,0,116,1.0);fill:rgba(255,255,255,1.0)"/><text x="302" y="424" style="stroke-width:0;stroke:none;fill:rgba(51,51,51,1.0);font-size:20.8px;font-family:'Roboto Medium',sans-serif">867.3</text><path  d="M 287 813
L 297 798
L 361 798
L 361 828
L 297 828
L 287 813
Z" style="stroke-width:1;stroke:rgba(217,0,116,1.0);fill:rgba(255,255,255,1.0)"/><text x="302" y="823" style="stroke-width:0;stroke:none;fill:rgba(51,51,51,1.0);font-size:20.8px;font-family:'Roboto Medium',sans-serif">867.3</text><path  d="M 1053 414
L 1063 399
L 1127 399
L 1127 429
L 1063 429
L 1053 414
Z" style="stroke-width:1;stroke:rgba(217,0,116,1.0);fill:rgba(255,255,255,1.0)"/><text x="1068" y="424" style="stroke-width:0;stroke:none;fill:rgba(51,51,51,1.0);font-size:20.8px;font-family:'Roboto Medium',sans-serif">867.9</text><path  d="M 1053 813
L 1063 798
L 1127 798
L 1127 828
L 1063 828
L 1053 813
Z" style="stroke-width:1;stroke:rgba(217,0,116,1.0);fill:rgba(255,255,255,1.0)"/><text x="1068" y="823" style="stroke-width:0;stroke:none;fill:rgba(51,51,51,1.0);font-size:20.8px;font-family:'Roboto Medium',sans-serif">867.9</text><text x="696" y="47" style="stroke-width:0;stroke:none;fill:rgba(51,51,51,1.0);font-size:37.5px;font-family:'Roboto Medium',sans-serif">EU_863_870_ROAMING_DRAFT</text></svg>